<svg width="1835" height="552" viewBox="0 0 1835 552" fill="none" xmlns="http://www.w3.org/2000/svg">
<path d="M836.448 497.793L1139.82 497.793" stroke="url(#paint0_radial_596_4317)" stroke-width="2" stroke-linecap="round" stroke-linejoin="round"/>
<path d="M1207.88 502.355L1286.73 502.355" stroke="url(#paint1_radial_596_4317)" stroke-width="2" stroke-linecap="round" stroke-linejoin="round"/>
<path d="M1810 118.419L1793.4 118.419L1793.4 135.227L1810 135.227L1810 118.419Z" fill="#7700A3"/>
<path d="M1805.44 123.19L1798.17 123.19L1798.17 130.453L1805.44 130.453L1805.44 123.19Z" fill="#CA00C9"/>
<path d="M1810 152.034L1793.4 152.034L1793.4 168.842L1810 168.842L1810 152.034Z" fill="#7700A3"/>
<path d="M1805.44 156.806L1798.17 156.806L1798.17 164.068L1805.44 164.068L1805.44 156.806Z" fill="#CA00C9"/>
<path d="M1810 185.649L1793.4 185.649L1793.4 202.457L1810 202.457L1810 185.649Z" fill="#7700A3"/>
<path d="M1805.44 190.425L1798.17 190.425L1798.17 197.688L1805.44 197.687L1805.44 190.425Z" fill="#CA00C9"/>
<path d="M1810 219.267L1793.4 219.267L1793.4 235.867L1810 235.867L1810 219.267Z" fill="#7700A3"/>
<path d="M1805.44 223.831L1798.17 223.831L1798.17 231.094L1805.44 231.094L1805.44 223.831Z" fill="#CA00C9"/>
<path d="M8.30029 490.656L68.6839 550.832L353.794 550.832L404.84 499.786L507.97 499.786L551.753 543.569L725.641 543.569" stroke="url(#paint2_radial_596_4317)" stroke-width="2" stroke-linecap="round" stroke-linejoin="round"/>
<path d="M1501.97 525.771L1580.83 525.771L1628.56 484.657L1692.89 484.657L1747.88 532L1834 532L1834 425.212L1791.04 388.37L1791.04 280.87L1832.55 245.274L1832.55 102L1128.86 102L1089.02 136.172L933.378 136.172L894.78 103.068L680 103.068" stroke="url(#paint3_radial_596_4317)" stroke-width="2" stroke-linecap="round" stroke-linejoin="round"/>
<path d="M8.30029 469.371L8.30029 186.33L28.8432 165.787L28.8432 139.226L9.13031 119.513L9.1303 8.29132L174.096 8.29131" stroke="url(#paint4_radial_596_4317)" stroke-width="2" stroke-linecap="round" stroke-linejoin="round"/>
<path d="M16.6003 267.877L16.6003 251.069L-7.34691e-07 251.069L0 267.877L16.6003 267.877Z" fill="#7700A3"/>
<path d="M11.8283 263.104L11.8283 255.841L4.56567 255.841L4.56567 263.104L11.8283 263.104Z" fill="#CA00C9"/>
<path d="M16.6003 227.412L16.6003 210.604L-7.34691e-07 210.604L0 227.412L16.6003 227.412Z" fill="#7700A3"/>
<path d="M11.8283 222.639L11.8283 215.376L4.56567 215.376L4.56567 222.639L11.8283 222.639Z" fill="#CA00C9"/>
<path d="M182.603 16.5918L182.603 -0.00852086L165.795 -0.00852013L165.795 16.5918L182.603 16.5918Z" fill="#7700A3"/>
<path d="M177.831 11.8145L177.831 4.55181L170.569 4.55182L170.569 11.8145L177.831 11.8145Z" fill="#CA00C9"/>
<path d="M647.881 111.592L647.881 94.9915L631.281 94.9915L631.281 111.592L647.881 111.592Z" fill="#7700A3"/>
<path d="M643.316 106.814L643.316 99.5518L636.053 99.5518L636.053 106.814L643.316 106.814Z" fill="#CA00C9"/>
<path d="M614.472 111.592L614.472 94.9915L597.665 94.9915L597.665 111.592L614.472 111.592Z" fill="#7700A3"/>
<path d="M609.7 106.814L609.7 99.5518L602.438 99.5518L602.438 106.814L609.7 106.814Z" fill="#CA00C9"/>
<path d="M580.857 111.592L580.857 94.9915L564.05 94.9915L564.05 111.592L580.857 111.592Z" fill="#7700A3"/>
<path d="M576.084 106.814L576.084 99.5518L568.822 99.5518L568.822 106.814L576.084 106.814Z" fill="#CA00C9"/>
<path d="M547.241 111.592L547.241 94.9915L530.641 94.9915L530.641 111.592L547.241 111.592Z" fill="#7700A3"/>
<path d="M542.468 106.814L542.468 99.5518L535.206 99.5518L535.206 106.814L542.468 106.814Z" fill="#CA00C9"/>
<path d="M513.833 111.592L513.833 94.9915L497.025 94.9915L497.025 111.592L513.833 111.592Z" fill="#7700A3"/>
<path d="M509.061 106.814L509.061 99.5518L501.798 99.5518L501.798 106.814L509.061 106.814Z" fill="#CA00C9"/>
<path d="M480.218 111.592L480.218 94.9915L463.41 94.9915L463.41 111.592L480.218 111.592Z" fill="#7700A3"/>
<path d="M475.445 106.814L475.445 99.5518L468.182 99.5518L468.182 106.814L475.445 106.814Z" fill="#CA00C9"/>
<path d="M1246.1 136.542L1246.1 156.047L1144.84 156.047L1144.84 136.542L1246.1 136.542Z" fill="#7700A3"/>
<path d="M1618.99 136.542L1618.99 156.047L1289.05 156.047L1289.05 136.542L1618.99 136.542Z" fill="#7700A3"/>
<path d="M928.55 95.5552L962.166 130.416L948.263 130.416L914.648 95.5552L928.55 95.5552Z" fill="#7700A3"/>
<path d="M958.639 95.5552L992.254 130.416L978.351 130.416L944.736 95.5552L958.639 95.5552Z" fill="#7700A3"/>
<path d="M988.726 95.5552L1022.34 130.416L1008.44 130.416L974.824 95.5552L988.726 95.5552Z" fill="#7700A3"/>
<path d="M1018.81 95.5552L1052.43 130.416L1038.53 130.416L1004.91 95.5552L1018.81 95.5552Z" fill="#7700A3"/>
<path d="M1048.9 95.5552L1082.52 130.416L1068.62 130.416L1035 95.5552L1048.9 95.5552Z" fill="#7700A3"/>
<path d="M1407 511.609L1434.39 511.609L1434.39 539L1407 539L1407 511.609Z" fill="#7700A3"/>
<path d="M1428 518L1413 518L1413 533L1428 533L1428 518Z" fill="#CA00C9"/>
<path d="M1350 511.609L1377.39 511.609L1377.39 539L1350 539L1350 511.609Z" fill="#7700A3"/>
<path d="M1371 518L1356 518L1356 533L1371 533L1371 518Z" fill="#CA00C9"/>
<path d="M1293 511.609L1320.39 511.609L1320.39 539L1293 539L1293 511.609Z" fill="#7700A3"/>
<path d="M1314 518L1299 518L1299 533L1314 533L1314 518Z" fill="#CA00C9"/>
<path d="M1236 511.609L1263.39 511.609L1263.39 539L1236 539L1236 511.609Z" fill="#7700A3"/>
<path d="M1257 518L1242 518L1242 533L1257 533L1257 518Z" fill="#CA00C9"/>
<path d="M1179 511.609L1206.39 511.609L1206.39 539L1179 539L1179 511.609Z" fill="#7700A3"/>
<path d="M1200 518L1185 518L1185 533L1200 533L1200 518Z" fill="#CA00C9"/>
<path d="M1122 511.609L1149.39 511.609L1149.39 539L1122 539L1122 511.609Z" fill="#7700A3"/>
<path d="M1143 518L1128 518L1128 533L1143 533L1143 518Z" fill="#CA00C9"/>
<path d="M1065 511.609L1092.39 511.609L1092.39 539L1065 539L1065 511.609Z" fill="#7700A3"/>
<path d="M1086 518L1071 518L1071 533L1086 533L1086 518Z" fill="#CA00C9"/>
<path d="M1008 511.609L1035.39 511.609L1035.39 539L1008 539L1008 511.609Z" fill="#7700A3"/>
<path d="M1029 518L1014 518L1014 533L1029 533L1029 518Z" fill="#CA00C9"/>
<path d="M951 511.609L978.39 511.609L978.39 539L951 539L951 511.609Z" fill="#7700A3"/>
<path d="M972 518L957 518L957 533L972 533L972 518Z" fill="#CA00C9"/>
<path d="M894 511.609L921.39 511.609L921.39 539L894 539L894 511.609Z" fill="#7700A3"/>
<path d="M915 518L900 518L900 533L915 533L915 518Z" fill="#CA00C9"/>
<path d="M1542.17 491.637L776.272 491.637L752.201 515.5L567.315 515.5" stroke="url(#paint5_radial_596_4317)" stroke-width="2" stroke-linecap="round" stroke-linejoin="round"/>
<path d="M40.8787 254.803L57.479 263.104L74.0793 254.803L74.0793 248.578L57.479 256.878L40.8787 248.578L40.8787 254.803ZM40.8787 201.475L57.479 209.775L74.0793 201.475L74.0793 195.25L57.479 203.55L40.8787 195.25L40.8787 201.475ZM40.8787 219.32L57.479 227.62L74.0793 219.32L74.0793 213.095L57.479 221.395L40.8787 213.095L40.8787 219.32ZM40.8787 236.958L57.479 245.258L74.0793 236.958L74.0793 230.733L57.479 239.033L40.8787 230.733L40.8787 236.958ZM40.8787 148.146L57.479 156.446L74.0793 148.146L74.0793 141.921L57.479 150.221L40.8787 141.921L40.8787 148.146ZM40.8787 106.438L40.8787 112.663L57.479 120.963L74.0793 112.663L74.0793 106.438L57.479 114.738L40.8787 106.438ZM40.8787 183.63L57.479 191.93L73.8718 183.63L73.8718 177.404L57.479 185.705L40.8787 177.404L40.8787 183.63ZM40.8787 130.301L57.479 138.601L73.8718 130.301L73.8718 124.076L57.479 132.376L40.8787 124.076L40.8787 130.301ZM40.8787 165.992L57.479 174.084L73.8718 165.992L73.8718 159.767L57.479 167.859L40.8787 159.767L40.8787 165.992Z" fill="url(#paint6_linear_596_4317)"/>
<path d="M93.5845 438.654L328.271 438.654" stroke="url(#paint7_radial_596_4317)" stroke-width="2" stroke-linecap="round" stroke-linejoin="round"/>
<path d="M1737.84 127.246C1737.84 133.886 1743.23 139.488 1749.87 139.488C1756.72 139.488 1762.11 133.886 1762.11 127.246C1762.11 120.398 1756.72 115.003 1749.87 115.003C1743.23 115.003 1737.84 120.398 1737.84 127.246ZM1708.37 127.246C1708.37 122.888 1704.84 119.36 1700.49 119.36C1696.13 119.36 1692.6 122.888 1692.6 127.246C1692.6 131.603 1696.13 135.131 1700.49 135.131C1704.84 135.131 1708.37 131.603 1708.37 127.246ZM1665.83 127.246C1665.83 123.926 1663.34 121.435 1660.23 121.435C1657.12 121.435 1654.42 123.926 1654.42 127.246C1654.42 130.358 1657.12 132.848 1660.23 132.848C1663.34 132.848 1665.83 130.358 1665.83 127.246ZM1636.16 127.246C1636.16 124.963 1634.5 123.303 1632.22 123.303C1630.14 123.303 1628.48 124.963 1628.48 127.246C1628.48 129.321 1630.14 130.981 1632.22 130.981C1634.5 130.981 1636.16 129.321 1636.16 127.246ZM1611.67 127.246C1611.67 126.001 1610.64 124.963 1609.6 124.963C1608.35 124.963 1607.32 126.001 1607.32 127.246C1607.32 128.491 1608.35 129.321 1609.6 129.321C1610.64 129.321 1611.67 128.491 1611.67 127.246ZM1592.17 127.246C1592.17 126.001 1591.13 124.963 1589.89 124.963C1588.64 124.963 1587.81 126.001 1587.81 127.246C1587.81 128.491 1588.64 129.321 1589.89 129.321C1591.13 129.321 1592.17 128.491 1592.17 127.246ZM1569.76 127.246C1569.76 126.001 1568.72 124.963 1567.48 124.963C1566.23 124.963 1565.19 126.001 1565.19 127.246C1565.19 128.491 1566.23 129.321 1567.48 129.321C1568.72 129.321 1569.76 128.491 1569.76 127.246ZM1547.35 127.246C1547.35 126.001 1546.31 124.963 1545.07 124.963C1543.82 124.963 1542.78 126.001 1542.78 127.246C1542.78 128.491 1543.82 129.321 1545.07 129.321C1546.31 129.321 1547.35 128.491 1547.35 127.246ZM1526.81 127.246C1526.81 126.416 1526.18 126.001 1525.56 126.001C1524.94 126.001 1524.32 126.416 1524.32 127.246C1524.32 127.868 1524.94 128.491 1525.56 128.491C1526.18 128.491 1526.81 127.868 1526.81 127.246ZM1510.83 127.246C1510.83 126.416 1510.21 126.001 1509.58 126.001C1508.96 126.001 1508.34 126.416 1508.34 127.246C1508.34 127.868 1508.96 128.491 1509.58 128.491C1510.21 128.491 1510.83 127.868 1510.83 127.246ZM1494.85 127.246C1494.85 126.416 1494.23 126.001 1493.6 126.001C1492.98 126.001 1492.36 126.416 1492.36 127.246C1492.36 127.868 1492.98 128.491 1493.6 128.491C1494.23 128.491 1494.85 127.868 1494.85 127.246ZM1478.87 127.246C1478.87 126.416 1478.25 126.001 1477.63 126.001C1477 126.001 1476.38 126.416 1476.38 127.246C1476.38 127.868 1477 128.491 1477.63 128.491C1478.25 128.491 1478.87 127.868 1478.87 127.246ZM1462.89 127.246C1462.89 126.416 1462.48 126.001 1461.65 126.001C1461.03 126.001 1460.4 126.416 1460.4 127.246C1460.4 127.868 1461.03 128.491 1461.65 128.491C1462.48 128.491 1462.89 127.868 1462.89 127.246ZM1446.92 127.246C1446.92 126.416 1446.5 126.001 1445.67 126.001C1445.05 126.001 1444.43 126.416 1444.43 127.246C1444.43 127.868 1445.05 128.491 1445.67 128.491C1446.5 128.491 1446.92 127.868 1446.92 127.246Z" fill="#7700A3"/>
<defs>
<radialGradient id="paint0_radial_596_4317" cx="0" cy="0" r="1" gradientUnits="userSpaceOnUse" gradientTransform="translate(nan nan) rotate(nan) scale(nan nan)">
<stop stop-color="#FF46A4" stop-opacity="0"/>
<stop offset="1" stop-color="#9A3AE0"/>
</radialGradient>
<radialGradient id="paint1_radial_596_4317" cx="0" cy="0" r="1" gradientUnits="userSpaceOnUse" gradientTransform="translate(nan nan) rotate(nan) scale(nan nan)">
<stop stop-color="#FF46A4" stop-opacity="0"/>
<stop offset="1" stop-color="#9A3AE0"/>
</radialGradient>
<radialGradient id="paint2_radial_596_4317" cx="0" cy="0" r="1" gradientUnits="userSpaceOnUse" gradientTransform="translate(20220.4 -176556) rotate(-90) scale(7381.39 87991.2)">
<stop stop-color="#FF46A4" stop-opacity="0"/>
<stop offset="1" stop-color="#9A3AE0"/>
</radialGradient>
<radialGradient id="paint3_radial_596_4317" cx="0" cy="0" r="1" gradientUnits="userSpaceOnUse" gradientTransform="translate(154268 -263102) rotate(-90) scale(92167.9 247353)">
<stop stop-color="#FF46A4" stop-opacity="0"/>
<stop offset="1" stop-color="#9A3AE0"/>
</radialGradient>
<radialGradient id="paint4_radial_596_4317" cx="0" cy="0" r="1" gradientUnits="userSpaceOnUse" gradientTransform="translate(8393.16 -86195.5) rotate(-90) scale(12878.6 8504.16)">
<stop stop-color="#FF46A4" stop-opacity="0"/>
<stop offset="1" stop-color="#9A3AE0"/>
</radialGradient>
<radialGradient id="paint5_radial_596_4317" cx="0" cy="0" r="1" gradientUnits="userSpaceOnUse" gradientTransform="translate(120840 -248239) rotate(-90) scale(3965.26 161989)">
<stop stop-color="#FF46A4" stop-opacity="0"/>
<stop offset="1" stop-color="#9A3AE0"/>
</radialGradient>
<linearGradient id="paint6_linear_596_4317" x1="3137.06" y1="-126494" x2="3137.06" y2="-138320" gradientUnits="userSpaceOnUse">
<stop stop-color="#A30BB2"/>
<stop offset="1" stop-color="#370B6B" stop-opacity="0.1"/>
</linearGradient>
<radialGradient id="paint7_radial_596_4317" cx="0" cy="0" r="1" gradientUnits="userSpaceOnUse" gradientTransform="translate(nan nan) rotate(nan) scale(nan nan)">
<stop stop-color="#FF46A4" stop-opacity="0"/>
<stop offset="1" stop-color="#9A3AE0"/>
</radialGradient>
</defs>
</svg>
