<svg width="264" height="48" viewBox="0 0 264 48" fill="none" xmlns="http://www.w3.org/2000/svg">
<path d="M196.603 8.99976H62.3561H35.9121C21.0519 8.99976 9 17.7324 9 28.4998C9 39.2671 21.0519 47.9998 35.9121 47.9998H196.603V41.5563L214.388 28.6693H236.854L264 8.99976H196.603Z" fill="#221C34"/>
<path fill-rule="evenodd" clip-rule="evenodd" d="M247.323 44.4636H223.055L201.806 28.724L189.942 37.5125V44.6022H28.0819C12.6135 44.6022 0 35.2763 0 23.801C0 12.3256 12.6135 2.99976 28.0819 2.99976H259L229.514 24.8411H206.557V23.1076H228.554L253.36 4.73319H28.0819C13.9005 4.73319 2.34016 13.279 2.34016 23.801C2.34016 34.323 13.9005 42.8688 28.0819 42.8688H187.602V36.7844L201.806 26.2625L224.015 42.7301H247.206L252.097 39.1072L258.111 43.5448L252.097 47.9998L247.323 44.4636ZM254.811 43.5622L252.12 41.5687L249.405 43.5622L252.12 45.5556L254.811 43.5622Z" fill="url(#paint0_linear_424_674)"/>
<path d="M33.9423 13.0829L32.7227 11.8766L44.7467 -0.000244141H109.78V1.69887H45.451L33.9423 13.0829Z" fill="#F93099"/>
<defs>
<linearGradient id="paint0_linear_424_674" x1="-1.5843e-06" y1="24.4409" x2="209.172" y2="28.0241" gradientUnits="userSpaceOnUse">
<stop stop-color="#F93099"/>
<stop offset="1" stop-color="#EB80E9"/>
</linearGradient>
</defs>
</svg>
