<svg width="591" height="908" viewBox="0 0 591 908" fill="none" xmlns="http://www.w3.org/2000/svg">
<g style="mix-blend-mode:overlay" clip-path="url(#clip0_596_779)">
<path opacity="0.5" d="M310.134 549.918L372.399 585.905L372.399 657.857L372.15 658.002L310.134 693.844L247.87 657.857L247.87 585.905L248.118 585.76L310.134 549.918ZM371.425 586.465L310.134 551.058L248.843 586.465L248.843 657.277L310.134 692.683L371.425 657.277L371.425 586.465Z" fill="#D0D9DD"/>
<path opacity="0.5" d="M495.457 728.399L557.721 764.386L557.721 836.338L557.472 836.483L495.456 872.324L433.192 836.338L433.192 764.386L433.441 764.24L495.457 728.399ZM556.747 764.945L495.457 729.539L434.166 764.945L434.166 835.757L495.456 871.164L556.747 835.757L556.747 764.945Z" fill="#D0D9DD"/>
<path opacity="0.5" d="M495.457 514.221L557.721 550.208L557.721 622.16L557.472 622.305L495.456 658.147L433.192 622.16L433.192 550.208L433.441 550.063L495.457 514.221ZM556.747 550.767L495.457 515.361L434.166 550.767L434.166 621.58L495.456 656.986L556.747 621.58L556.747 550.767Z" fill="#D0D9DD"/>
<path opacity="0.5" d="M495.457 228.692L495.705 228.837L557.721 264.678L557.721 336.631L557.472 336.776L495.457 372.617L433.192 336.631L433.192 264.678L433.441 264.533L495.457 228.692ZM556.747 265.238L495.457 229.832L434.166 265.238L434.166 336.05L495.457 371.456L556.747 336.05L556.747 265.238Z" fill="#D0D9DD"/>
<path opacity="0.5" d="M433.689 764.095L495.954 800.082L495.954 872.013L495.705 872.159L433.689 908L371.425 872.013L371.425 800.061L371.674 799.916L433.689 764.075L433.689 764.095ZM494.98 800.642L433.689 765.235L372.398 800.642L372.398 871.454L433.689 906.86L494.98 871.454L494.98 800.642Z" fill="#D0D9DD"/>
<path opacity="0.5" d="M433.689 621.311L495.954 657.297L495.954 729.25L495.705 729.395L433.689 765.236L371.425 729.25L371.425 657.297L371.674 657.152L433.689 621.311ZM494.98 657.857L433.689 622.451L372.399 657.857L372.399 728.669L433.689 764.075L494.98 728.669L494.98 657.857Z" fill="#D0D9DD"/>
<path opacity="0.5" d="M433.689 478.546L495.954 514.532L495.954 586.484L495.705 586.629L433.689 622.471L371.425 586.484L371.425 514.532L371.674 514.387L433.689 478.546ZM494.98 515.092L433.689 479.686L372.399 515.092L372.399 585.904L433.689 621.31L494.98 585.904L494.98 515.092Z" fill="#D0D9DD"/>
<path opacity="0.5" d="M433.689 407.153L495.954 443.139L495.954 515.092L495.705 515.237L433.689 551.078L371.425 515.092L371.425 443.139L371.674 442.994L433.689 407.153ZM494.98 443.699L433.689 408.293L372.399 443.699L372.399 514.511L433.689 549.917L494.98 514.511L494.98 443.699Z" fill="#D0D9DD"/>
<path opacity="0.5" d="M310.134 407.153L372.399 443.139L372.399 515.092L372.15 515.237L310.134 551.078L247.87 515.092L247.87 443.139L248.118 442.994L310.134 407.153ZM371.425 443.699L310.134 408.293L248.843 443.699L248.843 514.511L310.134 549.917L371.425 514.511L371.425 443.699Z" fill="#D0D9DD"/>
<path opacity="0.5" d="M433.689 192.995L433.938 193.141L495.954 228.982L495.954 300.934L495.705 301.079L433.689 336.921L371.425 300.934L371.425 228.982L371.674 228.837L433.689 192.995ZM494.98 229.542L433.689 194.136L372.399 229.542L372.399 300.354L433.689 335.76L494.98 300.354L494.98 229.542Z" fill="#D0D9DD"/>
<path opacity="0.5" d="M557.244 192.996L557.493 193.141L619.509 228.962L619.509 300.914L619.26 301.059L557.244 336.9L494.98 300.914L494.98 228.961L495.229 228.816L557.244 192.975L557.244 192.996ZM618.515 229.542L557.224 194.136L495.933 229.542L495.933 300.354L557.224 335.76L618.515 300.354L618.515 229.542Z" fill="#D0D9DD"/>
<path opacity="0.5" d="M371.922 728.399L434.186 764.386L434.186 836.338L433.938 836.483L371.922 872.324L309.658 836.338L309.658 764.386L309.906 764.24L371.922 728.399ZM433.213 764.945L371.922 729.539L310.631 764.945L310.631 835.757L371.922 871.164L433.213 835.757L433.213 764.945Z" fill="#D0D9DD"/>
<path opacity="0.5" d="M371.922 371.457L434.187 407.443L434.187 479.395L433.938 479.541L371.922 515.382L309.658 479.395L309.658 407.443L309.906 407.298L371.922 371.457ZM433.213 408.003L371.922 372.597L310.631 408.003L310.631 478.815L371.922 514.221L433.213 478.815L433.213 408.003Z" fill="#D0D9DD"/>
<path opacity="0.5" d="M310.134 692.704L372.399 728.69L372.399 800.642L372.15 800.787L310.134 836.629L247.87 800.642L247.87 728.69L248.118 728.545L310.134 692.704ZM371.425 729.25L310.134 693.844L248.843 729.25L248.843 800.062L310.134 835.468L371.425 800.062L371.425 729.25Z" fill="#D0D9DD"/>
<path opacity="0.5" d="M248.367 585.614L310.631 621.6L310.631 693.553L310.383 693.698L248.367 729.539L186.103 693.553L186.103 621.6L186.351 621.455L248.367 585.614ZM309.658 622.16L248.367 586.754L187.076 622.16L187.076 692.972L248.367 728.378L309.658 692.972L309.658 622.16Z" fill="#D0D9DD"/>
<path opacity="0.5" d="M63.0448 692.704L125.309 728.69L125.309 800.642L125.061 800.787L63.0448 836.629L0.780429 800.642L0.780435 728.69L1.02899 728.545L63.0448 692.704ZM124.336 729.25L63.0448 693.844L1.75397 729.25L1.75396 800.062L63.0448 835.468L124.336 800.062L124.336 729.25Z" fill="#D0D9DD"/>
<path opacity="0.5" d="M495.457 14.5142L495.705 14.6592L557.721 50.5007L557.721 122.453L557.472 122.598L495.457 158.44L495.208 158.294L433.192 122.453L433.192 50.5007L433.441 50.3556L495.457 14.5142ZM556.747 51.0604L495.457 15.6543L434.166 51.0604L434.166 121.873L495.457 157.279L556.747 121.873L556.747 51.0604Z" fill="#D0D9DD"/>
<path opacity="0.5" d="M433.689 121.209L433.938 121.354L495.954 157.196L495.954 229.148L495.705 229.293L433.689 265.135L433.441 264.99L371.425 229.148L371.425 157.196L371.674 157.051L433.689 121.209ZM494.98 157.755L433.689 122.349L372.399 157.755L372.399 228.568L433.689 263.974L494.98 228.568L494.98 157.755Z" fill="#D0D9DD"/>
<path opacity="0.5" d="M433.689 335.76L495.954 371.747L495.954 443.699L495.705 443.844L433.689 479.686L371.425 443.699L371.425 371.747L371.674 371.602L433.689 335.76ZM494.98 372.306L433.689 336.9L372.399 372.306L372.399 443.119L433.689 478.525L494.98 443.119L494.98 372.306Z" fill="#D0D9DD"/>
<path d="M248.367 443.119L310.88 479.23L310.88 551.472L310.507 551.679L248.367 587.583L185.854 551.472L185.854 479.23L186.227 479.022L248.367 443.119ZM309.409 480.1L248.367 444.839L187.325 480.1L187.325 550.622L248.367 585.883L309.409 550.622L309.409 480.1Z" fill="white"/>
<path d="M495.457 371.166L557.969 407.277L557.969 479.52L557.597 479.727L495.457 515.631L432.944 479.52L432.944 407.277L433.317 407.07L495.457 371.166ZM556.499 408.148L495.457 372.887L434.414 408.148L434.414 478.67L495.457 513.931L556.499 478.67L556.499 408.148Z" fill="white"/>
<path d="M495.457 85.5962L495.829 85.8035L557.969 121.707L557.969 193.95L557.597 194.157L495.457 230.061L495.084 229.853L432.944 193.95L432.944 121.707L433.317 121.5L495.457 85.5962ZM556.499 122.578L495.457 87.3168L434.414 122.578L434.414 193.1L495.457 228.361L556.499 193.1L556.499 122.578Z" fill="white"/>
<path d="M495.457 585.323L557.969 621.434L557.969 693.676L557.597 693.883L495.457 729.787L432.944 693.676L432.944 621.434L433.317 621.226L495.457 585.323ZM556.499 622.304L495.457 587.043L434.414 622.304L434.414 692.826L495.457 728.087L556.499 692.826L556.499 622.304Z" fill="white"/>
<path d="M433.689 692.412L496.202 728.523L496.202 800.766L495.829 800.973L433.689 836.877L371.176 800.766L371.176 728.523L371.549 728.316L433.689 692.412ZM494.732 729.394L433.689 694.133L372.647 729.394L372.647 799.916L433.689 835.177L494.732 799.916L494.732 729.394Z" fill="white"/>
<path d="M371.922 513.952L434.435 550.063L434.435 622.305L434.062 622.512L371.922 658.416L309.409 622.305L309.409 550.063L309.782 549.855L371.922 513.952ZM432.964 550.933L371.922 515.672L310.88 550.933L310.88 621.455L371.922 656.716L432.964 621.455L432.964 550.933Z" fill="white"/>
<path d="M371.922 299.794L372.295 300.002L434.435 335.905L434.435 408.148L434.062 408.355L371.922 444.259L309.409 408.148L309.409 335.905L309.782 335.698L371.922 299.794ZM432.964 336.776L371.922 301.515L310.88 336.776L310.88 407.298L371.922 442.559L432.964 407.298L432.964 336.776Z" fill="white"/>
<path d="M371.922 157.009L372.295 157.217L434.435 193.12L434.435 265.363L434.062 265.57L371.922 301.474L371.549 301.266L309.409 265.363L309.409 193.12L309.782 192.913L371.922 157.009ZM432.964 193.991L371.922 158.73L310.88 193.991L310.88 264.513L371.922 299.774L432.964 264.513L432.964 193.991Z" fill="white"/>
<path d="M310.134 621.02L372.647 657.131L372.647 729.373L372.274 729.581L310.134 765.484L247.621 729.373L247.621 657.131L247.994 656.923L310.134 621.02ZM371.176 658.001L310.134 622.74L249.092 658.001L249.092 728.523L310.134 763.784L371.176 728.523L371.176 658.001Z" fill="white"/>
<path d="M186.6 692.412L249.113 728.523L249.113 800.766L248.74 800.973L186.6 836.877L124.087 800.766L124.087 728.523L124.46 728.316L186.6 692.412ZM247.642 729.394L186.6 694.133L125.557 729.394L125.557 799.916L186.6 835.177L247.642 799.916L247.642 729.394Z" fill="white"/>
<path d="M124.812 728.108L187.325 764.219L187.325 836.461L186.952 836.669L124.812 872.572L62.2992 836.461L62.2992 764.219L62.672 764.012L124.812 728.108ZM185.854 765.089L124.812 729.828L63.7699 765.089L63.7698 835.611L124.812 870.872L185.854 835.611L185.854 765.089Z" fill="white"/>
<path opacity="0.5" d="M491.024 16.6911L491.024 11.5709L495.457 9.00044L499.91 11.5709L499.91 16.6911L495.457 19.2615L491.024 16.6911Z" fill="#D0D9DD"/>
<path opacity="0.5" d="M429.257 838.597L429.257 833.477L433.689 830.927L438.122 833.477L438.122 838.597L433.689 841.168L429.257 838.597Z" fill="#D0D9DD"/>
<path opacity="0.5" d="M431.867 765.775L431.867 763.681L433.689 762.624L435.512 763.681L435.512 765.775L433.689 766.832L431.867 765.775Z" fill="#D0D9DD"/>
<path opacity="0.5" d="M429.07 624.752L429.07 619.403L433.689 616.75L438.308 619.403L438.308 624.752L433.689 627.426L429.07 624.752Z" fill="#D0D9DD"/>
<path opacity="0.5" d="M428.925 553.504L428.925 548.01L433.689 545.274L438.453 548.01L438.453 553.504L433.689 556.261L428.925 553.504Z" fill="#D0D9DD"/>
<path opacity="0.5" d="M488.725 447.306L488.725 439.511L495.457 435.614L502.209 439.511L502.209 447.306L495.457 451.203L488.725 447.306Z" fill="#D0D9DD"/>
<path opacity="0.5" d="M550.492 412.024L550.492 404.23L557.244 400.333L563.976 404.23L563.976 412.024L557.244 415.922L550.492 412.024Z" fill="#D0D9DD"/>
<path opacity="0.5" d="M489.905 732.152L489.905 725.726L495.457 722.492L501.028 725.726L501.028 732.152L495.457 735.365L489.905 732.152Z" fill="#D0D9DD"/>
<path opacity="0.5" d="M368.774 873.548L368.774 869.92L371.922 868.117L375.05 869.92L375.05 873.548L371.922 875.351L368.774 873.548Z" fill="#D0D9DD"/>
<path opacity="0.5" d="M306.323 838.245L306.323 833.829L310.134 831.632L313.966 833.829L313.966 838.245L310.134 840.463L306.323 838.245Z" fill="#D0D9DD"/>
<path opacity="0.5" d="M306.427 481.593L306.427 477.302L310.134 475.146L313.863 477.302L313.863 481.593L310.134 483.749L306.427 481.593Z" fill="#D0D9DD"/>
<path opacity="0.5" d="M306.82 410.034L306.82 406.199L310.134 404.292L313.469 406.199L313.469 410.034L310.134 411.962L306.82 410.034Z" fill="#D0D9DD"/>
<path opacity="0.5" d="M303.837 269.115L303.837 261.839L310.134 258.211L316.452 261.839L316.452 269.115L310.134 272.763L303.837 269.115Z" fill="#D0D9DD"/>
<path opacity="0.5" d="M370.182 801.472L370.182 799.461L371.922 798.445L373.662 799.461L373.662 801.472L371.922 802.467L370.182 801.472Z" fill="#D0D9DD"/>
<path opacity="0.5" d="M368.65 517.248L368.65 513.475L371.922 511.589L375.195 513.475L375.195 517.248L371.922 519.155L368.65 517.248Z" fill="#D0D9DD"/>
<path opacity="0.5" d="M370.369 373.716L370.369 371.912L371.922 371.021L373.476 371.912L373.476 373.716L371.922 374.628L370.369 373.716Z" fill="#D0D9DD"/>
<path opacity="0.5" d="M367.427 232.859L367.427 227.676L371.922 225.085L376.396 227.676L376.396 232.859L371.922 235.45L367.427 232.859Z" fill="#D0D9DD"/>
<path opacity="0.5" d="M184.031 766.208L184.031 763.244L186.6 761.752L189.168 763.244L189.168 766.208L186.6 767.701L184.031 766.208Z" fill="#D0D9DD"/>
<path opacity="0.5" d="M182.374 695.853L182.374 690.96L186.6 688.514L190.825 690.96L190.825 695.853L186.6 698.299L182.374 695.853Z" fill="#D0D9DD"/>
<path opacity="0.5" d="M182.001 624.73L182.001 619.424L186.6 616.791L191.177 619.424L191.177 624.73L186.6 627.384L182.001 624.73Z" fill="#D0D9DD"/>
<path opacity="0.5" d="M243.002 803.563L243.002 797.365L248.367 794.256L253.732 797.365L253.732 803.563L248.367 806.652L243.002 803.563Z" fill="#D0D9DD"/>
<path opacity="0.5" d="M243.976 731.736L243.976 726.637L248.367 724.108L252.758 726.637L252.758 731.736L248.367 734.265L243.976 731.736Z" fill="#D0D9DD"/>
<path opacity="0.5" d="M245.115 445.979L245.115 442.206L248.367 440.34L251.619 442.206L251.619 445.979L248.367 447.845L245.115 445.979Z" fill="#D0D9DD"/>
<path opacity="0.5" d="M121.684 873.548L121.684 869.92L124.812 868.117L127.94 869.92L127.94 873.548L124.812 875.351L121.684 873.548Z" fill="#D0D9DD"/>
<path opacity="0.5" d="M57.4106 696.663L57.4106 690.154L63.0447 686.879L68.6787 690.154L68.6787 696.663L63.0447 699.918L57.4106 696.663Z" fill="#D0D9DD"/>
<path opacity="0.5" d="M118.515 732.834L118.515 725.537L124.812 721.889L131.129 725.537L131.129 732.834L124.812 736.482L118.515 732.834Z" fill="#D0D9DD"/>
<path opacity="0.5" d="M551.155 125.687L551.155 118.66L557.245 115.156L563.334 118.66L563.334 125.687L557.245 129.211L551.155 125.687Z" fill="#D0D9DD"/>
<path d="M431.473 266.772L431.473 264.202L433.689 262.896L435.926 264.202L435.926 266.772L433.689 268.058L431.473 266.772Z" fill="white"/>
<path d="M429.257 482.007L429.257 476.887L433.689 474.317L438.122 476.887L438.122 482.007L433.689 484.578L429.257 482.007Z" fill="white"/>
<path d="M367.49 446.311L367.49 441.191L371.922 438.62L376.355 441.191L376.355 446.311L371.922 448.881L367.49 446.311Z" fill="white"/>
<path d="M552.812 553.38L552.812 548.259L557.244 545.689L561.677 548.259L561.677 553.38L557.244 555.95L552.812 553.38Z" fill="white"/>
<path d="M426.957 340.693L426.957 332.899L433.689 329.002L440.442 332.899L440.442 340.693L433.689 344.591L426.957 340.693Z" fill="white"/>
<path d="M430.127 196.23L430.127 192.104L433.689 190.031L437.252 192.104L437.252 196.23L433.689 198.282L430.127 196.23Z" fill="white"/>
<path d="M307.545 552.26L307.545 549.254L310.134 547.762L312.744 549.254L312.744 552.26L310.134 553.773L307.545 552.26Z" fill="white"/>
<path d="M490.962 874.335L490.962 869.132L495.457 866.52L499.972 869.132L499.972 874.335L495.457 876.947L490.962 874.335Z" fill="white"/>
<path d="M552.729 838.638L552.729 833.435L557.244 830.844L561.739 833.435L561.739 838.638L557.244 841.25L552.729 838.638Z" fill="white"/>
<path d="M492.267 303.401L492.267 299.69L495.457 297.845L498.667 299.69L498.667 303.401L495.457 305.246L492.267 303.401Z" fill="white"/>
<path d="M307.545 766.232L307.545 763.226L310.134 761.734L312.744 763.226L312.744 766.232L310.134 767.724L307.545 766.232Z" fill="white"/>
<path d="M306.737 695.375L306.737 691.437L310.134 689.468L313.552 691.437L313.552 695.375L310.134 697.324L306.737 695.375Z" fill="white"/>
<path d="M305.639 339.409L305.639 334.206L310.134 331.594L314.65 334.206L314.65 339.409L310.134 342L305.639 339.409Z" fill="white"/>
<path d="M365.667 732.794L365.667 725.58L371.922 721.952L378.178 725.58L378.178 732.794L371.922 736.422L365.667 732.794Z" fill="white"/>
<path d="M367.262 660.592L367.262 655.223L371.922 652.528L376.562 655.223L376.562 660.592L371.922 663.287L367.262 660.592Z" fill="white"/>
<path d="M552.584 696.08L552.584 690.711L557.244 688.017L561.884 690.711L561.884 696.08L557.244 698.775L552.584 696.08Z" fill="white"/>
<path d="M366.868 589.552L366.868 583.727L371.922 580.804L376.956 583.727L376.956 589.552L371.922 592.475L366.868 589.552Z" fill="white"/>
<path d="M368.857 303.319L368.857 299.774L371.922 298.012L374.967 299.774L374.967 303.319L371.922 305.081L368.857 303.319Z" fill="white"/>
<path d="M368.442 161.01L368.442 156.988L371.922 154.998L375.381 156.988L375.381 161.01L371.922 163L368.442 161.01Z" fill="white"/>
<path d="M182.167 838.597L182.167 833.477L186.6 830.927L191.032 833.477L191.032 838.597L186.6 841.168L182.167 838.597Z" fill="white"/>
<path d="M184.383 552.032L184.383 549.482L186.6 548.218L188.795 549.482L188.795 552.032L186.6 553.297L184.383 552.032Z" fill="white"/>
<path d="M243.209 660.903L243.209 654.933L248.367 651.948L253.525 654.933L253.525 660.903L248.367 663.867L243.209 660.903Z" fill="white"/>
<path d="M245.964 588.039L245.964 585.24L248.367 583.851L250.77 585.24L250.77 588.039L248.367 589.428L245.964 588.039Z" fill="white"/>
<path d="M59.7306 766.645L59.7306 762.81L63.0447 760.903L66.3589 762.81L66.3589 766.645L63.0447 768.553L59.7306 766.645Z" fill="white"/>
</g>
<defs>
<clipPath id="clip0_596_779">
<rect width="618.728" height="908" fill="white" transform="translate(619.509 908) rotate(-180)"/>
</clipPath>
</defs>
</svg>
