<svg width="1054" height="884" viewBox="0 0 1054 884" fill="none" xmlns="http://www.w3.org/2000/svg">
<g style="mix-blend-mode:overlay" clip-path="url(#clip0_596_485)">
<path opacity="0.5" d="M850.297 589.248L850.159 589.484L816.071 648.569L747.638 648.569L747.5 648.332L713.411 589.248L713.549 589.011L747.638 529.926L816.071 529.926L816.209 530.163L850.297 589.248ZM815.539 647.642L849.213 589.248L815.539 530.854L748.19 530.854L714.515 589.248L748.19 647.642L815.539 647.642Z" fill="#D0D9DD"/>
<path opacity="0.5" d="M1020.05 59.5582L1019.91 59.795L985.823 118.88L917.39 118.88L917.252 118.643L883.164 59.5582L883.302 59.3214L917.39 0.236784L985.823 0.236781L985.961 0.473583L1020.05 59.5582ZM985.291 117.952L1018.97 59.5582L985.291 1.16429L917.942 1.1643L884.268 59.5582L917.942 117.952L985.291 117.952Z" fill="#D0D9DD"/>
<path opacity="0.5" d="M952.149 59.5582L952.011 59.795L917.922 118.88L849.489 118.88L849.351 118.643L815.263 59.5582L815.401 59.3214L849.489 0.236784L917.922 0.236781L918.06 0.473583L952.149 59.5582ZM917.39 117.952L951.064 59.5582L917.39 1.16429L850.041 1.1643L816.367 59.5582L850.041 117.952L917.39 117.952Z" fill="#D0D9DD"/>
<path opacity="0.5" d="M884.248 59.5582L884.11 59.795L850.022 118.88L781.588 118.88L781.45 118.643L747.362 59.5582L747.5 59.3214L781.588 0.236784L850.022 0.236781L850.16 0.473583L884.248 59.5582ZM849.489 117.952L883.164 59.5582L849.489 1.16429L782.14 1.1643L748.466 59.5582L782.14 117.952L849.489 117.952Z" fill="#D0D9DD"/>
<path opacity="0.5" d="M680.565 59.5582L680.427 59.795L646.339 118.88L577.906 118.88L577.768 118.643L543.679 59.5582L543.817 59.3214L577.906 0.236784L646.339 0.236781L646.477 0.473583L680.565 59.5582ZM645.806 117.952L679.481 59.5582L645.806 1.16429L578.458 1.1643L544.783 59.5582L578.458 117.952L645.806 117.952Z" fill="#D0D9DD"/>
<path opacity="0.5" d="M544.783 59.5582L544.645 59.795L510.557 118.88L442.124 118.88L441.986 118.643L407.897 59.5582L442.124 0.236784L510.557 0.236781L510.695 0.473583L544.783 59.5582ZM510.024 117.952L543.699 59.5582L510.024 1.16429L442.676 1.1643L409.001 59.5582L442.676 117.952L510.024 117.952Z" fill="#D0D9DD"/>
<path opacity="0.5" d="M341.081 59.5582L306.854 118.88L238.421 118.88L238.283 118.643L204.195 59.5582L238.421 0.236784L306.854 0.236781L306.992 0.473583L341.081 59.5582ZM306.322 117.952L339.996 59.5582L306.322 1.16429L238.973 1.1643L205.299 59.5582L238.973 117.952L306.322 117.952Z" fill="#D0D9DD"/>
<path opacity="0.5" d="M273.2 59.5582L238.973 118.88L170.54 118.88L170.402 118.643L136.314 59.5582L170.54 0.236784L238.973 0.236781L239.111 0.473583L273.2 59.5582ZM238.441 117.952L272.115 59.5582L238.441 1.16429L171.092 1.1643L137.418 59.5582L171.092 117.952L238.441 117.952Z" fill="#D0D9DD"/>
<path opacity="0.5" d="M137.398 59.5582L103.172 118.88L34.7387 118.88L34.6007 118.643L0.53198 59.5582L34.7584 0.236784L103.192 0.236781L103.33 0.473583L137.418 59.5582L137.398 59.5582ZM102.639 117.952L136.314 59.5582L102.639 1.16429L35.2907 1.1643L1.61634 59.5582L35.2907 117.952L102.639 117.952Z" fill="#D0D9DD"/>
<path opacity="0.5" d="M1054 118.426L1053.86 118.662L1019.77 177.747L951.34 177.747L951.202 177.51L917.114 118.426L917.252 118.189L951.34 59.1042L1019.77 59.1042L1019.91 59.341L1054 118.426ZM1019.24 176.82L1052.92 118.426L1019.24 60.0317L951.892 60.0317L918.218 118.426L951.892 176.82L1019.24 176.82Z" fill="#D0D9DD"/>
<path opacity="0.5" d="M986.099 118.426L985.961 118.662L951.873 177.747L883.44 177.747L883.301 177.51L849.213 118.426L849.351 118.189L883.44 59.1042L951.873 59.1042L952.011 59.341L986.099 118.426ZM951.34 176.82L985.015 118.426L951.34 60.0317L883.992 60.0317L850.317 118.426L883.992 176.82L951.34 176.82Z" fill="#D0D9DD"/>
<path opacity="0.5" d="M782.416 118.425L782.278 118.662L748.19 177.747L679.757 177.747L679.619 177.51L645.53 118.425L645.668 118.189L679.757 59.104L748.19 59.104L748.328 59.3408L782.416 118.425ZM747.657 176.819L781.332 118.425L747.657 60.0315L680.309 60.0315L646.634 118.425L680.309 176.819L747.657 176.819Z" fill="#D0D9DD"/>
<path opacity="0.5" d="M714.516 118.425L714.378 118.662L680.289 177.747L611.856 177.747L611.718 177.51L577.63 118.425L577.768 118.189L611.856 59.104L680.289 59.104L680.427 59.3408L714.516 118.425ZM679.757 176.819L713.431 118.425L679.757 60.0315L612.408 60.0315L578.734 118.425L612.408 176.819L679.757 176.819Z" fill="#D0D9DD"/>
<path opacity="0.5" d="M442.932 118.425L408.706 177.747L340.273 177.747L340.135 177.51L306.046 118.425L340.273 59.104L408.706 59.104L408.844 59.3408L442.932 118.425ZM408.173 176.819L441.848 118.425L408.173 60.0315L340.825 60.0315L307.15 118.425L340.825 176.819L408.173 176.819Z" fill="#D0D9DD"/>
<path opacity="0.5" d="M375.031 118.425L340.805 177.747L272.372 177.747L272.234 177.51L238.145 118.425L272.372 59.104L340.805 59.104L340.943 59.3408L375.031 118.425ZM340.272 176.819L373.947 118.425L340.272 60.0315L272.924 60.0315L239.249 118.425L272.924 176.819L340.272 176.819Z" fill="#D0D9DD"/>
<path opacity="0.5" d="M1020.05 177.274L1019.91 177.511L985.823 236.596L917.39 236.596L917.252 236.359L883.164 177.274L883.302 177.037L917.39 117.953L985.823 117.953L985.961 118.19L1020.05 177.274ZM985.291 235.668L1018.97 177.274L985.291 118.88L917.942 118.88L884.268 177.274L917.942 235.668L985.291 235.668Z" fill="#D0D9DD"/>
<path opacity="0.5" d="M816.347 177.274L816.209 177.511L782.121 236.596L713.688 236.596L713.55 236.359L679.461 177.274L679.599 177.037L713.688 117.953L782.121 117.953L782.259 118.19L816.347 177.274ZM781.588 235.668L815.263 177.274L781.588 118.88L714.24 118.88L680.565 177.274L714.24 235.668L781.588 235.668Z" fill="#D0D9DD"/>
<path opacity="0.5" d="M680.565 177.274L680.427 177.511L646.339 236.596L577.906 236.596L577.768 236.359L543.679 177.274L543.817 177.037L577.906 117.953L646.339 117.953L646.477 118.19L680.565 177.274ZM645.806 235.668L679.481 177.274L645.806 118.88L578.458 118.88L544.783 177.274L578.458 235.668L645.806 235.668Z" fill="#D0D9DD"/>
<g opacity="0.5">
<path d="M205.299 177.274L171.073 236.596L102.64 236.596L102.501 236.359L68.4131 177.274L102.639 117.953L171.073 117.953L171.211 118.19L205.299 177.274ZM170.54 235.668L204.215 177.274L170.54 118.88L103.192 118.88L69.5172 177.274L103.192 235.668L170.54 235.668Z" fill="#D0D9DD"/>
</g>
<path opacity="0.5" d="M986.099 236.122L985.961 236.359L951.873 295.443L883.44 295.443L883.301 295.206L849.213 236.122L849.351 235.885L883.44 176.8L951.873 176.8L952.011 177.037L986.099 236.122ZM951.34 294.516L985.015 236.122L951.34 177.728L883.992 177.728L850.317 236.122L883.992 294.516L951.34 294.516Z" fill="#D0D9DD"/>
<path opacity="0.5" d="M918.198 236.122L918.06 236.359L883.972 295.443L815.539 295.443L815.401 295.206L781.312 236.122L781.45 235.885L815.539 176.8L883.972 176.8L884.11 177.037L918.198 236.122ZM883.439 294.516L917.114 236.122L883.439 177.728L816.091 177.728L782.416 236.122L816.091 294.516L883.439 294.516Z" fill="#D0D9DD"/>
<path opacity="0.5" d="M714.516 236.122L714.378 236.359L680.289 295.443L611.856 295.443L611.718 295.206L577.63 236.122L577.768 235.885L611.856 176.8L680.289 176.8L680.427 177.037L714.516 236.122ZM679.757 294.516L713.431 236.122L679.757 177.728L612.408 177.728L578.734 236.122L612.408 294.516L679.757 294.516Z" fill="#D0D9DD"/>
<path opacity="0.5" d="M646.615 236.122L646.477 236.359L612.388 295.443L543.955 295.443L543.817 295.206L509.729 236.122L543.955 176.8L612.388 176.8L612.526 177.037L646.615 236.122ZM611.856 294.516L645.53 236.122L611.856 177.728L544.507 177.728L510.833 236.122L544.507 294.516L611.856 294.516Z" fill="#D0D9DD"/>
<path opacity="0.5" d="M442.932 236.122L408.706 295.443L340.273 295.443L340.135 295.206L306.046 236.122L340.273 176.8L408.706 176.8L408.844 177.037L442.932 236.122ZM408.173 294.516L441.848 236.122L408.173 177.728L340.825 177.728L307.15 236.122L340.825 294.516L408.173 294.516Z" fill="#D0D9DD"/>
<path opacity="0.5" d="M1020.05 412.684L1019.91 412.921L985.823 472.006L917.39 472.006L917.252 471.769L883.164 412.684L883.302 412.448L917.39 353.363L985.823 353.363L985.961 353.6L1020.05 412.684ZM985.291 471.078L1018.97 412.684L985.291 354.29L917.942 354.29L884.268 412.684L917.942 471.078L985.291 471.078Z" fill="#D0D9DD"/>
<path opacity="0.5" d="M816.347 412.684L816.209 412.921L782.121 472.006L713.688 472.006L713.55 471.769L679.461 412.684L679.599 412.448L713.688 353.363L782.121 353.363L782.259 353.6L816.347 412.684ZM781.588 471.078L815.263 412.684L781.588 354.29L714.24 354.29L680.565 412.684L714.24 471.078L781.588 471.078Z" fill="#D0D9DD"/>
<path opacity="0.5" d="M544.783 412.684L544.645 412.921L510.557 472.006L442.124 472.006L441.986 471.769L407.897 412.684L442.124 353.363L510.557 353.363L510.695 353.6L544.783 412.684ZM510.024 471.078L543.699 412.684L510.024 354.29L442.676 354.29L409.001 412.684L442.676 471.078L510.024 471.078Z" fill="#D0D9DD"/>
<path opacity="0.5" d="M1054 471.552L1053.86 471.789L1019.77 530.874L951.34 530.874L951.202 530.637L917.114 471.552L917.252 471.316L951.34 412.231L1019.77 412.231L1019.91 412.468L1054 471.552ZM1019.24 529.946L1052.92 471.552L1019.24 413.159L951.892 413.159L918.218 471.552L951.892 529.946L1019.24 529.946Z" fill="#D0D9DD"/>
<path opacity="0.5" d="M918.198 471.552L918.06 471.789L883.972 530.874L815.539 530.874L815.401 530.637L781.312 471.552L781.45 471.316L815.539 412.231L883.972 412.231L884.11 412.468L918.198 471.552ZM883.439 529.946L917.114 471.552L883.439 413.159L816.091 413.159L782.416 471.552L816.091 529.946L883.439 529.946Z" fill="#D0D9DD"/>
<path opacity="0.5" d="M782.416 471.552L782.278 471.789L748.19 530.874L679.757 530.874L679.619 530.637L645.53 471.552L645.668 471.316L679.757 412.231L748.19 412.231L748.328 412.468L782.416 471.552ZM747.657 529.946L781.332 471.552L747.657 413.159L680.309 413.159L646.634 471.552L680.309 529.946L747.657 529.946Z" fill="#D0D9DD"/>
<path opacity="0.5" d="M714.516 471.552L714.378 471.789L680.289 530.874L611.856 530.874L611.718 530.637L577.63 471.552L577.768 471.316L611.856 412.231L680.289 412.231L680.427 412.468L714.516 471.552ZM679.757 529.946L713.431 471.552L679.757 413.159L612.408 413.159L578.734 471.552L612.408 529.946L679.757 529.946Z" fill="#D0D9DD"/>
<path opacity="0.5" d="M510.833 471.552L476.606 530.874L408.173 530.874L408.035 530.637L373.947 471.552L408.173 412.231L476.606 412.231L476.744 412.468L510.833 471.552ZM476.074 529.946L509.748 471.552L476.074 413.159L408.725 413.159L375.051 471.552L408.725 529.946L476.074 529.946Z" fill="#D0D9DD"/>
<path opacity="0.5" d="M1020.05 530.4L1019.91 530.637L985.823 589.721L917.39 589.721L917.252 589.484L883.164 530.4L883.302 530.163L917.39 471.078L985.823 471.078L985.961 471.315L1020.05 530.4ZM985.291 588.794L1018.97 530.4L985.291 472.006L917.942 472.006L884.268 530.4L917.942 588.794L985.291 588.794Z" fill="#D0D9DD"/>
<path opacity="0.5" d="M680.565 530.4L680.427 530.637L646.339 589.721L577.906 589.721L577.768 589.484L543.679 530.4L543.817 530.163L577.906 471.078L646.339 471.078L646.477 471.315L680.565 530.4ZM645.806 588.794L679.481 530.4L645.806 472.006L578.458 472.006L544.783 530.4L578.458 588.794L645.806 588.794Z" fill="#D0D9DD"/>
<path opacity="0.5" d="M986.099 589.248L985.961 589.484L951.873 648.569L883.44 648.569L883.301 648.332L849.213 589.248L849.351 589.011L883.44 529.926L951.873 529.926L952.011 530.163L986.099 589.248ZM951.34 647.642L985.015 589.248L951.34 530.854L883.992 530.854L850.317 589.248L883.992 647.642L951.34 647.642Z" fill="#D0D9DD"/>
<path opacity="0.5" d="M884.248 648.115L884.11 648.352L850.022 707.436L781.588 707.436L781.45 707.2L747.362 648.115L747.5 647.878L781.588 588.794L850.022 588.794L850.16 589.03L884.248 648.115ZM849.489 706.509L883.164 648.115L849.489 589.721L782.14 589.721L748.466 648.115L782.14 706.509L849.489 706.509Z" fill="#D0D9DD"/>
<path opacity="0.5" d="M986.099 824.678L985.961 824.915L951.873 884L883.44 884L883.301 883.763L849.213 824.678L849.351 824.442L883.44 765.357L951.873 765.357L952.011 765.594L986.099 824.678ZM951.34 883.053L985.015 824.659L951.34 766.265L883.992 766.265L850.317 824.659L883.992 883.053L951.34 883.053Z" fill="#D0D9DD"/>
<path opacity="0.5" d="M1020.05 294.989L1019.91 295.226L985.823 354.31L917.39 354.31L917.252 354.074L883.164 294.989L883.302 294.752L917.39 235.668L985.823 235.668L985.961 235.904L1020.05 294.989ZM985.291 353.383L1018.97 294.989L985.291 236.595L917.942 236.595L884.268 294.989L917.942 353.383L985.291 353.383Z" fill="#D0D9DD"/>
<path opacity="0.5" d="M952.149 294.989L952.011 295.226L917.922 354.31L849.489 354.31L849.351 354.074L815.263 294.989L815.401 294.752L849.489 235.668L917.922 235.668L918.06 235.904L952.149 294.989ZM917.39 353.383L951.064 294.989L917.39 236.595L850.041 236.595L816.367 294.989L850.041 353.383L917.39 353.383Z" fill="#D0D9DD"/>
<path opacity="0.5" d="M884.248 294.989L884.11 295.226L850.022 354.31L781.588 354.31L781.45 354.074L747.362 294.989L747.5 294.752L781.588 235.668L850.022 235.668L850.16 235.904L884.248 294.989ZM849.489 353.383L883.164 294.989L849.489 236.595L782.14 236.595L748.466 294.989L782.14 353.383L849.489 353.383Z" fill="#D0D9DD"/>
<path opacity="0.5" d="M680.565 294.989L680.427 295.226L646.339 354.31L577.906 354.31L577.768 354.074L543.679 294.989L543.817 294.752L577.906 235.668L646.339 235.668L646.477 235.904L680.565 294.989ZM645.806 353.383L679.481 294.989L645.806 236.595L578.458 236.595L544.783 294.989L578.458 353.383L645.806 353.383Z" fill="#D0D9DD"/>
<path opacity="0.5" d="M341.081 294.989L306.854 354.31L238.421 354.31L238.283 354.074L204.195 294.989L238.421 235.668L306.854 235.668L306.992 235.904L341.081 294.989ZM306.322 353.383L339.996 294.989L306.322 236.595L238.973 236.595L205.299 294.989L238.973 353.383L306.322 353.383Z" fill="#D0D9DD"/>
<path opacity="0.5" d="M476.883 294.989L442.656 354.31L374.223 354.31L374.085 354.074L339.997 294.989L374.223 235.668L442.656 235.668L442.794 235.904L476.883 294.989ZM442.124 353.383L475.798 294.989L442.124 236.595L374.775 236.595L341.101 294.989L374.775 353.383L442.124 353.383Z" fill="#D0D9DD"/>
<path opacity="0.5" d="M646.615 471.552L646.477 471.789L612.388 530.874L543.955 530.874L543.817 530.637L509.729 471.552L543.955 412.231L612.388 412.231L612.526 412.468L646.615 471.552ZM611.856 529.946L645.53 471.552L611.856 413.159L544.507 413.159L510.833 471.552L544.507 529.946L611.856 529.946Z" fill="#D0D9DD"/>
<path d="M749.274 648.115L749.077 648.47L714.93 707.673L646.22 707.673L646.023 707.318L611.876 648.115L612.073 647.76L646.22 588.557L714.93 588.557L715.127 588.912L749.274 648.115ZM714.102 706.272L747.638 648.115L714.102 589.958L647.029 589.958L613.492 648.115L647.029 706.272L714.102 706.272Z" fill="white"/>
<path d="M782.672 236.121L782.475 236.477L748.328 295.68L679.619 295.68L679.421 295.324L645.274 236.121L645.471 235.766L679.619 176.563L748.328 176.563L748.525 176.918L782.672 236.121ZM747.5 294.279L781.036 236.121L747.5 177.964L680.427 177.964L646.891 236.121L680.427 294.279L747.5 294.279Z" fill="white"/>
<path d="M748.722 59.5577L748.525 59.9129L714.378 119.116L645.668 119.116L645.471 118.761L611.324 59.5577L611.521 59.2025L645.668 -0.000558447L714.378 -0.00056145L714.575 0.354709L748.722 59.5577ZM713.55 117.715L747.086 59.5577L713.55 1.40062L646.477 1.40063L612.94 59.5577L646.477 117.715L713.55 117.715Z" fill="white"/>
<path d="M409.258 59.5577L374.913 119.116L306.204 119.116L306.007 118.761L271.859 59.5577L306.204 -0.000558447L374.913 -0.00056145L375.11 0.354709L409.258 59.5577ZM374.085 117.715L407.621 59.5577L374.085 1.40062L307.012 1.40063L273.476 59.5577L307.012 117.715L374.085 117.715Z" fill="white"/>
<path d="M545.04 294.99L544.843 295.345L510.695 354.548L441.986 354.548L441.789 354.193L407.641 294.99L441.986 235.431L510.695 235.431L510.892 235.786L545.04 294.99ZM509.867 353.147L543.403 294.99L509.867 236.832L442.794 236.832L409.258 294.99L442.794 353.147L509.867 353.147Z" fill="white"/>
<path d="M748.722 294.99L748.525 295.345L714.378 354.548L645.668 354.548L645.471 354.193L611.324 294.99L611.521 294.634L645.668 235.431L714.378 235.431L714.575 235.786L748.722 294.99ZM713.55 353.147L747.086 294.99L713.55 236.832L646.477 236.832L612.94 294.99L646.477 353.147L713.55 353.147Z" fill="white"/>
<path d="M680.841 412.685L680.644 413.04L646.496 472.243L577.787 472.243L577.59 471.888L543.443 412.685L543.64 412.329L577.787 353.126L646.496 353.126L646.694 353.482L680.841 412.685ZM645.668 470.842L679.205 412.685L645.668 354.527L578.596 354.527L545.059 412.685L578.596 470.842L645.668 470.842Z" fill="white"/>
<path d="M578.99 118.426L578.793 118.781L544.645 177.984L475.936 177.984L475.739 177.629L441.591 118.426L475.936 58.8677L544.645 58.8677L544.842 59.2229L578.99 118.426ZM543.817 176.583L577.353 118.426L543.817 60.2688L476.744 60.2688L443.208 118.426L476.744 176.583L543.817 176.583Z" fill="white"/>
<path d="M511.109 118.426L476.764 177.984L408.055 177.984L407.858 177.629L373.71 118.426L408.055 58.8677L476.764 58.8677L476.961 59.2229L511.109 118.426ZM475.936 176.583L509.472 118.426L475.936 60.2688L408.863 60.2688L375.327 118.426L408.863 176.583L475.936 176.583Z" fill="white"/>
<path d="M952.425 177.274L952.228 177.629L918.08 236.832L849.371 236.832L849.174 236.477L815.026 177.274L815.223 176.918L849.371 117.715L918.08 117.715L918.277 118.071L952.425 177.274ZM917.252 235.431L950.788 177.274L917.252 119.117L850.179 119.117L816.643 177.274L850.179 235.431L917.252 235.431Z" fill="white"/>
<path d="M612.94 177.274L612.743 177.629L578.596 236.832L509.886 236.832L509.689 236.477L475.542 177.274L509.886 117.715L578.596 117.715L578.793 118.071L612.94 177.274ZM577.768 235.431L611.304 177.274L577.768 119.117L510.695 119.117L477.158 177.274L510.695 235.431L577.768 235.431Z" fill="white"/>
<path d="M273.456 177.274L239.111 236.832L170.402 236.832L170.205 236.477L136.058 177.274L170.402 117.715L239.111 117.715L239.309 118.071L273.456 177.274ZM238.283 235.431L271.82 177.274L238.283 119.117L171.211 119.117L137.674 177.274L171.211 235.431L238.283 235.431Z" fill="white"/>
<path d="M578.99 236.121L578.793 236.477L544.645 295.68L475.936 295.68L475.739 295.324L441.591 236.121L475.936 176.563L544.645 176.563L544.842 176.918L578.99 236.121ZM543.817 294.279L577.353 236.121L543.817 177.964L476.744 177.964L443.208 236.121L476.744 294.279L543.817 294.279Z" fill="white"/>
<path d="M375.307 236.121L340.963 295.68L272.253 295.68L272.056 295.324L237.909 236.121L272.253 176.563L340.963 176.563L341.16 176.918L375.307 236.121ZM340.135 294.279L373.671 236.121L340.135 177.964L273.062 177.964L239.525 236.121L273.062 294.279L340.135 294.279Z" fill="white"/>
<path d="M884.524 412.685L884.327 413.04L850.179 472.243L781.47 472.243L781.273 471.888L747.125 412.685L747.322 412.329L781.47 353.126L850.179 353.126L850.376 353.482L884.524 412.685ZM849.351 470.842L882.887 412.685L849.351 354.527L782.278 354.527L748.742 412.685L782.278 470.842L849.351 470.842Z" fill="white"/>
<path d="M986.375 471.552L986.178 471.907L952.03 531.11L883.321 531.11L883.124 530.755L848.977 471.552L849.174 471.197L883.321 411.994L952.03 411.994L952.228 412.349L986.375 471.552ZM951.202 529.709L984.739 471.552L951.202 413.395L884.13 413.395L850.593 471.552L884.13 529.709L951.202 529.709Z" fill="white"/>
<path d="M816.623 530.4L816.426 530.755L782.278 589.958L713.569 589.958L713.372 589.603L679.225 530.4L679.422 530.044L713.569 470.841L782.278 470.841L782.476 471.197L816.623 530.4ZM781.45 588.557L814.987 530.4L781.45 472.243L714.378 472.243L680.841 530.4L714.378 588.557L781.45 588.557Z" fill="white"/>
<path d="M612.94 530.4L612.743 530.755L578.596 589.958L509.886 589.958L509.689 589.603L475.542 530.4L509.886 470.841L578.596 470.841L578.793 471.197L612.94 530.4ZM577.768 588.557L611.304 530.4L577.768 472.243L510.695 472.243L477.158 530.4L510.695 588.557L577.768 588.557Z" fill="white"/>
<path d="M477.159 530.4L442.814 589.958L374.105 589.958L373.908 589.603L339.76 530.4L374.105 470.841L442.814 470.841L443.011 471.197L477.159 530.4ZM441.986 588.557L475.522 530.4L441.986 472.243L374.913 472.243L341.377 530.4L374.913 588.557L441.986 588.557Z" fill="white"/>
<path d="M918.474 589.247L918.277 589.603L884.13 648.806L815.42 648.806L815.223 648.45L781.076 589.247L781.273 588.892L815.42 529.689L884.13 529.689L884.327 530.044L918.474 589.247ZM883.301 647.404L916.838 589.247L883.301 531.09L816.229 531.09L782.692 589.247L816.229 647.404L883.301 647.404Z" fill="white"/>
<path d="M986.375 706.963L986.178 707.318L952.03 766.521L883.321 766.521L883.124 766.166L848.977 706.963L849.174 706.608L883.321 647.405L952.03 647.405L952.228 647.76L986.375 706.963ZM951.202 765.12L984.739 706.963L951.202 648.806L884.13 648.806L850.593 706.963L884.13 765.12L951.202 765.12Z" fill="white"/>
<path d="M1020.31 765.811L1020.11 766.166L985.961 825.369L917.252 825.369L917.055 825.014L882.907 765.811L883.104 765.456L917.252 706.253L985.961 706.253L986.158 706.608L1020.31 765.811ZM985.133 823.968L1018.67 765.811L985.133 707.654L918.06 707.654L884.524 765.811L918.06 823.968L985.133 823.968Z" fill="white"/>
<path opacity="0.5" d="M919.362 121.268L916.089 121.268L914.433 118.426L916.089 115.564L919.362 115.564L920.998 118.426L919.362 121.268Z" fill="#D0D9DD"/>
<path opacity="0.5" d="M851.48 121.188L848.306 121.188L846.709 118.425L848.306 115.663L851.48 115.663L853.077 118.425L851.48 121.188Z" fill="#D0D9DD"/>
<path opacity="0.5" d="M783.402 120.754L780.721 120.754L779.361 118.425L780.721 116.077L783.402 116.077L784.743 118.425L783.402 120.754Z" fill="#D0D9DD"/>
<path opacity="0.5" d="M715.245 120.201L713.195 120.201L712.169 118.425L713.195 116.629L715.245 116.629L716.29 118.425L715.245 120.201Z" fill="#D0D9DD"/>
<path opacity="0.5" d="M376.944 121.681L373.178 121.681L371.305 118.425L373.178 115.149L376.944 115.149L378.837 118.425L376.944 121.681Z" fill="#D0D9DD"/>
<path opacity="0.5" d="M106.169 122.648L101.299 122.648L98.854 118.425L101.299 114.182L106.169 114.182L108.613 118.425L106.169 122.648Z" fill="#D0D9DD"/>
<path opacity="0.5" d="M39.6283 124.879L32.1757 124.879L28.4495 118.426L32.1757 111.953L39.6283 111.953L43.3742 118.426L39.6283 124.879Z" fill="#D0D9DD"/>
<path opacity="0.5" d="M953.627 62.8936L949.783 62.8936L947.87 59.5584L949.783 56.2233L953.627 56.2233L955.56 59.5584L953.627 62.8936Z" fill="#D0D9DD"/>
<path opacity="0.5" d="M885.963 63.1101L881.882 63.1101L879.832 59.558L881.882 56.0057L885.963 56.0057L888.014 59.5579L885.963 63.1101Z" fill="#D0D9DD"/>
<path opacity="0.5" d="M818.851 64.2744L813.41 64.2744L810.708 59.5579L813.41 54.8612L818.851 54.8612L821.572 59.5579L818.851 64.2744Z" fill="#D0D9DD"/>
<path opacity="0.5" d="M412.294 64.5703L406.517 64.5703L403.639 59.5578L406.517 54.565L412.294 54.565L415.192 59.5578L412.294 64.5703Z" fill="#D0D9DD"/>
<path opacity="0.5" d="M343.289 62.4392L339.977 62.4392L338.301 59.558L339.977 56.6965L343.289 56.6965L344.945 59.558L343.289 62.4392Z" fill="#D0D9DD"/>
<path opacity="0.5" d="M274.974 61.5115L272.707 61.5115L271.583 59.5578L272.707 57.6041L274.974 57.6041L276.098 59.5578L274.974 61.5115Z" fill="#D0D9DD"/>
<path opacity="0.5" d="M208.532 63.8601L203.584 63.8601L201.1 59.558L203.584 55.2757L208.532 55.2757L210.997 59.558L208.532 63.8601Z" fill="#D0D9DD"/>
<path opacity="0.5" d="M138.009 61.5505L135.722 61.5505L134.579 59.5574L135.722 57.584L138.009 57.584L139.153 59.5574L138.009 61.5505Z" fill="#D0D9DD"/>
<path opacity="0.5" d="M71.41 63.8005L66.5205 63.8005L64.0955 59.5577L66.5205 55.3345L71.41 55.3345L73.8547 59.5577L71.41 63.8005Z" fill="#D0D9DD"/>
<path opacity="0.5" d="M4.04147 61.8865L1.34042 61.8865L-0.000244242 59.5578L1.34042 57.2291L4.04147 57.2291L5.38214 59.5578L4.04147 61.8865Z" fill="#D0D9DD"/>
<path opacity="0.5" d="M986.848 238.371L984.266 238.371L982.984 236.121L984.266 233.891L986.848 233.891L988.13 236.121L986.848 238.371Z" fill="#D0D9DD"/>
<path opacity="0.5" d="M920.86 241.548L914.59 241.548L911.455 236.121L914.59 230.694L920.86 230.694L923.975 236.121L920.86 241.548Z" fill="#D0D9DD"/>
<path opacity="0.5" d="M850.909 237.897L848.878 237.897L847.853 236.121L848.878 234.365L850.909 234.365L851.934 236.121L850.909 237.897Z" fill="#D0D9DD"/>
<path opacity="0.5" d="M785.394 241.903L778.73 241.903L775.398 236.121L778.73 230.359L785.394 230.359L788.706 236.121L785.394 241.903Z" fill="#D0D9DD"/>
<path opacity="0.5" d="M443.839 237.778L441.946 237.778L441 236.121L441.946 234.483L443.839 234.483L444.805 236.121L443.839 237.778Z" fill="#D0D9DD"/>
<path opacity="0.5" d="M375.86 237.482L374.282 237.482L373.494 236.121L374.282 234.759L375.86 234.759L376.648 236.121L375.86 237.482Z" fill="#D0D9DD"/>
<path opacity="0.5" d="M309.556 240.146L304.903 240.146L302.576 236.121L304.903 232.095L309.556 232.095L311.882 236.121L309.556 240.146Z" fill="#D0D9DD"/>
<path opacity="0.5" d="M241.773 240.225L237.041 240.225L234.676 236.121L237.041 232.036L241.773 232.036L244.139 236.121L241.773 240.225Z" fill="#D0D9DD"/>
<path opacity="0.5" d="M885.313 179.7L882.533 179.7L881.133 177.273L882.533 174.846L885.313 174.846L886.712 177.273L885.313 179.7Z" fill="#D0D9DD"/>
<path opacity="0.5" d="M749.57 179.404L747.125 179.404L745.903 177.273L747.125 175.142L749.57 175.142L750.812 177.273L749.57 179.404Z" fill="#D0D9DD"/>
<path opacity="0.5" d="M681.373 178.694L679.737 178.694L678.929 177.273L679.737 175.852L681.373 175.852L682.202 177.273L681.373 178.694Z" fill="#D0D9DD"/>
<path opacity="0.5" d="M546.775 180.372L543.206 180.372L541.412 177.274L543.206 174.175L546.775 174.175L548.569 177.274L546.775 180.372Z" fill="#D0D9DD"/>
<path opacity="0.5" d="M478.105 178.852L476.291 178.852L475.384 177.274L476.291 175.695L478.105 175.695L479.012 177.274L478.105 178.852Z" fill="#D0D9DD"/>
<path opacity="0.5" d="M343.388 180.312L339.878 180.312L338.124 177.273L339.878 174.234L343.388 174.234L345.123 177.273L343.388 180.312Z" fill="#D0D9DD"/>
<path opacity="0.5" d="M71.8437 182.266L66.0867 182.266L63.2083 177.274L66.0867 172.281L71.8437 172.281L74.7222 177.274L71.8437 182.266Z" fill="#D0D9DD"/>
<path opacity="0.5" d="M987.992 475.775L983.122 475.775L980.677 471.552L983.122 467.329L987.992 467.329L990.436 471.552L987.992 475.775Z" fill="#D0D9DD"/>
<path opacity="0.5" d="M918.731 473.288L916.72 473.288L915.714 471.551L916.72 469.815L918.731 469.815L919.716 471.551L918.731 473.288Z" fill="#D0D9DD"/>
<path opacity="0.5" d="M784.605 475.952L779.518 475.952L776.975 471.551L779.518 467.151L784.605 467.151L787.128 471.551L784.605 475.952Z" fill="#D0D9DD"/>
<path opacity="0.5" d="M716.842 476.071L711.617 476.071L708.995 471.552L711.617 467.013L716.842 467.013L719.444 471.552L716.842 476.071Z" fill="#D0D9DD"/>
<path opacity="0.5" d="M615.839 419.118L608.426 419.118L604.719 412.685L608.426 406.271L615.839 406.271L619.545 412.685L615.839 419.118Z" fill="#D0D9DD"/>
<path opacity="0.5" d="M582.263 360.269L574.85 360.269L571.143 353.836L574.85 347.422L582.263 347.422L585.969 353.836L582.263 360.269Z" fill="#D0D9DD"/>
<path opacity="0.5" d="M444.115 473.663L441.67 473.663L440.448 471.551L441.67 469.42L444.115 469.42L445.357 471.551L444.115 473.663Z" fill="#D0D9DD"/>
<path opacity="0.5" d="M886.988 300.277L880.857 300.277L877.801 294.989L880.857 289.68L886.988 289.68L890.044 294.989L886.988 300.277Z" fill="#D0D9DD"/>
<path opacity="0.5" d="M817.51 297.356L814.77 297.356L813.409 294.988L814.77 292.62L817.51 292.62L818.871 294.988L817.51 297.356Z" fill="#D0D9DD"/>
<path opacity="0.5" d="M749.747 297.416L746.948 297.416L745.528 294.989L746.948 292.542L749.747 292.542L751.167 294.989L749.747 297.416Z" fill="#D0D9DD"/>
<path opacity="0.5" d="M682.024 297.534L679.086 297.534L677.627 294.988L679.086 292.443L682.024 292.443L683.503 294.988L682.024 297.534Z" fill="#D0D9DD"/>
<path opacity="0.5" d="M614.242 297.515L611.324 297.515L609.865 294.989L611.324 292.443L614.242 292.443L615.701 294.989L614.242 297.515Z" fill="#D0D9DD"/>
<path opacity="0.5" d="M546.952 298.402L543.029 298.402L541.057 294.988L543.029 291.574L546.952 291.574L548.924 294.988L546.952 298.402Z" fill="#D0D9DD"/>
<path opacity="0.5" d="M1021.21 533.38L1017.78 533.38L1016.05 530.4L1017.78 527.42L1021.21 527.42L1022.95 530.4L1021.21 533.38Z" fill="#D0D9DD"/>
<path opacity="0.5" d="M987.657 592.898L983.457 592.898L981.348 589.247L983.457 585.616L987.657 585.616L989.747 589.247L987.657 592.898Z" fill="#D0D9DD"/>
<path opacity="0.5" d="M648.448 592.799L644.348 592.799L642.297 589.247L644.348 585.715L648.448 585.715L650.479 589.247L648.448 592.799Z" fill="#D0D9DD"/>
<path opacity="0.5" d="M580.39 592.425L576.742 592.425L574.909 589.247L576.742 586.09L580.39 586.09L582.204 589.247L580.39 592.425Z" fill="#D0D9DD"/>
<path opacity="0.5" d="M446.363 595.266L439.443 595.266L435.973 589.247L439.443 583.248L446.363 583.248L449.813 589.247L446.363 595.266Z" fill="#D0D9DD"/>
<path opacity="0.5" d="M952.661 532.057L950.749 532.057L949.802 530.4L950.749 528.742L952.661 528.742L953.627 530.4L952.661 532.057Z" fill="#D0D9DD"/>
<path opacity="0.5" d="M682.359 533.518L678.771 533.518L676.977 530.4L678.771 527.282L682.359 527.282L684.154 530.4L682.359 533.518Z" fill="#D0D9DD"/>
<path opacity="0.5" d="M545.848 531.88L544.133 531.88L543.285 530.4L544.133 528.919L545.848 528.919L546.696 530.4L545.848 531.88Z" fill="#D0D9DD"/>
<path opacity="0.5" d="M411.88 534.662L406.951 534.662L404.487 530.4L406.951 526.137L411.88 526.137L414.344 530.4L411.88 534.662Z" fill="#D0D9DD"/>
<path opacity="0.5" d="M919.145 709.41L916.306 709.41L914.886 706.963L916.306 704.516L919.145 704.516L920.545 706.963L919.145 709.41Z" fill="#D0D9DD"/>
<path opacity="0.5" d="M852.21 710.988L847.557 710.988L845.25 706.962L847.557 702.937L852.21 702.937L854.536 706.962L852.21 710.988Z" fill="#D0D9DD"/>
<path opacity="0.5" d="M784.585 711.344L779.538 711.344L777.014 706.963L779.538 702.601L784.585 702.601L787.109 706.963L784.585 711.344Z" fill="#D0D9DD"/>
<path opacity="0.5" d="M954.653 653.226L948.758 653.226L945.82 648.115L948.758 643.004L954.653 643.004L957.61 648.115L954.653 653.226Z" fill="#D0D9DD"/>
<path opacity="0.5" d="M886.338 652.298L881.507 652.298L879.082 648.115L881.507 643.911L886.338 643.911L888.763 648.115L886.338 652.298Z" fill="#D0D9DD"/>
<path opacity="0.5" d="M614.557 651.213L610.989 651.213L609.195 648.114L610.989 645.016L614.557 645.016L616.351 648.114L614.557 651.213Z" fill="#D0D9DD"/>
<path opacity="0.5" d="M1021.21 768.79L1017.78 768.79L1016.07 765.83L1017.78 762.85L1021.21 762.85L1022.93 765.83L1021.21 768.79Z" fill="#D0D9DD"/>
<path opacity="0.5" d="M852.999 830.046L846.788 830.046L843.693 824.678L846.788 819.31L852.999 819.31L856.094 824.678L852.999 830.046Z" fill="#D0D9DD"/>
<path opacity="0.5" d="M887.383 771.829L880.462 771.829L876.992 765.83L880.462 759.811L887.383 759.811L890.853 765.83L887.383 771.829Z" fill="#D0D9DD"/>
<path opacity="0.5" d="M309.95 359.638L303.266 359.638L299.915 353.836L303.266 348.035L309.95 348.035L313.282 353.836L309.95 359.638Z" fill="#D0D9DD"/>
<path d="M648.823 475.775L643.953 475.775L641.509 471.552L643.953 467.329L648.823 467.329L651.268 471.552L648.823 475.775Z" fill="white"/>
<path d="M716.724 358.059L711.854 358.059L709.409 353.836L711.854 349.613L716.724 349.613L719.168 353.836L716.724 358.059Z" fill="white"/>
<path d="M514.441 477.966L507.028 477.966L503.321 471.552L507.028 465.119L514.441 465.119L518.147 471.552L514.441 477.966Z" fill="white"/>
<path d="M377.023 474.946L373.099 474.946L371.147 471.552L373.099 468.157L377.023 468.157L378.994 471.552L377.023 474.946Z" fill="white"/>
<path d="M715.659 591.734L712.8 591.734L711.361 589.248L712.8 586.781L715.659 586.781L717.079 589.248L715.659 591.734Z" fill="white"/>
<path d="M1020.54 61.374L1018.45 61.374L1017.41 59.5585L1018.45 57.7429L1020.54 57.7429L1021.59 59.5585L1020.54 61.374Z" fill="white"/>
<path d="M650.381 125.333L642.415 125.333L638.433 118.426L642.415 111.519L650.381 111.519L654.363 118.426L650.381 125.333Z" fill="white"/>
<path d="M580.429 121.662L576.703 121.662L574.83 118.425L576.703 115.189L580.429 115.189L582.302 118.425L580.429 121.662Z" fill="white"/>
<path d="M511.917 120.477L509.532 120.477L508.349 118.425L509.532 116.353L511.917 116.353L513.12 118.425L511.917 120.477Z" fill="white"/>
<path d="M444.983 122.037L440.823 122.037L438.733 118.425L440.823 114.814L444.983 114.814L447.072 118.425L444.983 122.037Z" fill="white"/>
<path d="M308.412 120.438L306.066 120.438L304.883 118.425L306.066 116.393L308.412 116.393L309.575 118.425L308.412 120.438Z" fill="white"/>
<path d="M241.477 122.037L237.317 122.037L235.228 118.425L237.317 114.794L241.477 114.794L243.567 118.425L241.477 122.037Z" fill="white"/>
<path d="M173.458 121.701L169.673 121.701L167.78 118.425L169.673 115.129L173.458 115.129L175.371 118.425L173.458 121.701Z" fill="white"/>
<path d="M749.964 62.3799L746.731 62.3799L745.114 59.5579L746.731 56.7556L749.964 56.7556L751.581 59.5579L749.964 62.3799Z" fill="white"/>
<path d="M682.773 63.406L678.337 63.406L676.129 59.5578L678.337 55.7096L682.773 55.7096L685.001 59.5578L682.773 63.406Z" fill="white"/>
<path d="M614.597 62.7156L610.949 62.7156L609.135 59.5581L610.949 56.4006L614.597 56.4006L616.41 59.5581L614.597 62.7156Z" fill="white"/>
<path d="M546.341 61.906L543.64 61.906L542.28 59.5576L543.64 57.2092L546.341 57.2092L547.701 59.5576L546.341 61.906Z" fill="white"/>
<path d="M1022.1 181.793L1016.9 181.793L1014.29 177.274L1016.9 172.755L1022.1 172.755L1024.7 177.274L1022.1 181.793Z" fill="white"/>
<path d="M717.118 241.134L711.341 241.134L708.463 236.121L711.341 231.128L717.118 231.128L719.997 236.121L717.118 241.134Z" fill="white"/>
<path d="M647.423 237.917L645.373 237.917L644.347 236.121L645.373 234.345L647.423 234.345L648.448 236.121L647.423 237.917Z" fill="white"/>
<path d="M581.178 240.66L575.954 240.66L573.332 236.121L575.954 231.602L581.178 231.602L583.781 236.121L581.178 240.66Z" fill="white"/>
<path d="M172.946 238.509L170.205 238.509L168.825 236.121L170.205 233.753L172.946 233.753L174.306 236.121L172.946 238.509Z" fill="white"/>
<path d="M106.622 241.114L100.865 241.114L97.9866 236.121L100.865 231.148L106.622 231.148L109.481 236.121L106.622 241.114Z" fill="white"/>
<path d="M952.799 179.168L950.611 179.168L949.527 177.273L950.611 175.379L952.799 175.379L953.903 177.273L952.799 179.168Z" fill="white"/>
<path d="M818.141 180.747L814.139 180.747L812.128 177.274L814.139 173.801L818.141 173.801L820.152 177.274L818.141 180.747Z" fill="white"/>
<path d="M613.729 178.911L611.817 178.911L610.87 177.273L611.817 175.635L613.729 175.635L614.675 177.273L613.729 178.911Z" fill="white"/>
<path d="M411.9 181.594L406.931 181.594L404.427 177.273L406.931 172.951L411.9 172.951L414.404 177.273L411.9 181.594Z" fill="white"/>
<path d="M275.94 180.904L271.741 180.904L269.631 177.273L271.741 173.642L275.94 173.642L278.03 177.273L275.94 180.904Z" fill="white"/>
<path d="M207.133 179.148L204.964 179.148L203.88 177.273L204.964 175.399L207.133 175.399L208.217 177.273L207.133 179.148Z" fill="white"/>
<path d="M138.049 179.345L135.663 179.345L134.48 177.273L135.663 175.201L138.049 175.201L139.252 177.273L138.049 179.345Z" fill="white"/>
<path d="M1021.98 416.986L1017.03 416.986L1014.55 412.684L1017.03 408.402L1021.98 408.402L1024.45 412.684L1021.98 416.986Z" fill="white"/>
<path d="M988.031 358.119L983.083 358.119L980.598 353.837L983.083 349.554L988.031 349.554L990.496 353.837L988.031 358.119Z" fill="white"/>
<path d="M953.706 298.442L949.724 298.442L947.713 294.989L949.724 291.515L953.706 291.515L955.697 294.989L953.706 298.442Z" fill="white"/>
<path d="M478.972 298.048L475.443 298.048L473.669 294.989L475.443 291.93L478.972 291.93L480.727 294.989L478.972 298.048Z" fill="white"/>
<path d="M410.579 297.021L408.233 297.021L407.069 294.989L408.233 292.956L410.579 292.956L411.762 294.989L410.579 297.021Z" fill="white"/>
<path d="M342.934 297.258L340.312 297.258L338.991 294.988L340.312 292.699L342.934 292.699L344.255 294.988L342.934 297.258Z" fill="white"/>
<path d="M276.118 298.916L271.563 298.916L269.296 294.989L271.563 291.042L276.118 291.042L278.385 294.989L276.118 298.916Z" fill="white"/>
<path d="M208.02 298.423L204.077 298.423L202.085 294.989L204.077 291.555L208.02 291.555L210.011 294.989L208.02 298.423Z" fill="white"/>
<path d="M919.145 591.734L916.286 591.734L914.866 589.248L916.286 586.781L919.145 586.781L920.584 589.248L919.145 591.734Z" fill="white"/>
<path d="M851.756 592.504L848.03 592.504L846.157 589.248L848.03 586.011L851.756 586.011L853.629 589.248L851.756 592.504Z" fill="white"/>
<path d="M513.199 593.55L508.25 593.55L505.786 589.248L508.25 584.965L513.199 584.965L515.683 589.248L513.199 593.55Z" fill="white"/>
<path d="M887.363 536.359L880.482 536.359L877.052 530.4L880.482 524.44L887.363 524.44L890.794 530.4L887.363 536.359Z" fill="white"/>
<path d="M818.693 534.84L813.587 534.84L811.024 530.399L813.587 525.979L818.693 525.979L821.256 530.399L818.693 534.84Z" fill="white"/>
<path d="M751.128 535.215L745.568 535.215L742.808 530.399L745.568 525.604L751.128 525.604L753.888 530.399L751.128 535.215Z" fill="white"/>
<path d="M478.874 533.3L475.522 533.3L473.846 530.399L475.522 527.499L478.874 527.499L480.55 530.399L478.874 533.3Z" fill="white"/>
<path d="M343.526 533.695L339.721 533.695L337.808 530.4L339.721 527.104L343.526 527.104L345.438 530.4L343.526 533.695Z" fill="white"/>
<path d="M987.992 711.185L983.122 711.185L980.677 706.962L983.122 702.739L987.992 702.739L990.436 706.962L987.992 711.185Z" fill="white"/>
<path d="M648.724 711.009L644.072 711.009L641.725 706.963L644.072 702.918L648.724 702.918L651.051 706.963L648.724 711.009Z" fill="white"/>
<path d="M818.969 653.029L813.291 653.029L810.472 648.115L813.291 643.201L818.969 643.201L821.808 648.115L818.969 653.029Z" fill="white"/>
<path d="M749.669 650.404L747.027 650.404L745.706 648.115L747.027 645.806L749.669 645.806L750.99 648.115L749.669 650.404Z" fill="white"/>
<path d="M919.539 827.836L915.892 827.836L914.078 824.678L915.892 821.521L919.539 821.521L921.373 824.678L919.539 827.836Z" fill="white"/>
</g>
<defs>
<clipPath id="clip0_596_485">
<rect width="884" height="1054" fill="white" transform="translate(-0.000244141 884) rotate(-90)"/>
</clipPath>
</defs>
</svg>
