<svg width="728" height="1670" viewBox="0 0 728 1670" fill="none" xmlns="http://www.w3.org/2000/svg">
<g opacity="0.2" filter="url(#filter0_f_596_5361)">
<circle cx="835.196" cy="834.892" r="430.892" fill="#8FE600"/>
</g>
<g style="mix-blend-mode:overlay" clip-path="url(#clip0_596_5361)">
<path opacity="0.5" d="M543.01 942.754L600.795 976.144L600.795 1042.91L600.564 1043.04L543.01 1076.29L485.225 1042.91L485.225 976.144L485.456 976.01L543.01 942.754ZM599.891 976.664L543.01 943.812L486.129 976.664L486.129 1042.37L543.01 1075.22L599.891 1042.37L599.891 976.664Z" fill="#D0D9DD"/>
<path opacity="0.5" d="M715 1108.36L772.784 1141.75L772.784 1208.51L772.554 1208.64L714.999 1241.9L657.215 1208.51L657.215 1141.75L657.445 1141.61L715 1108.36ZM771.881 1142.27L715 1109.42L658.118 1142.27L658.118 1207.97L714.999 1240.82L771.881 1207.97L771.881 1142.27Z" fill="#D0D9DD"/>
<path opacity="0.5" d="M715 909.634L772.784 943.024L772.784 1009.78L772.554 1009.92L714.999 1043.17L657.215 1009.78L657.215 943.024L657.445 942.89L715 909.634ZM771.881 943.544L715 910.692L658.118 943.544L658.118 1009.25L714.999 1042.1L771.881 1009.25L771.881 943.544Z" fill="#D0D9DD"/>
<path opacity="0.5" d="M715 644.708L715.23 644.842L772.784 678.098L772.784 744.858L772.554 744.993L714.999 778.248L657.215 744.858L657.215 678.098L657.445 677.963L715 644.708ZM771.881 678.617L715 645.766L658.118 678.617L658.118 744.32L714.999 777.171L771.881 744.32L771.881 678.617Z" fill="#D0D9DD"/>
<path opacity="0.5" d="M657.676 1141.48L715.461 1174.87L715.461 1241.61L715.23 1241.74L657.676 1275L599.891 1241.61L599.891 1174.85L600.122 1174.71L657.676 1141.46L657.676 1141.48ZM714.557 1175.39L657.676 1142.54L600.795 1175.39L600.795 1241.09L657.676 1273.94L714.557 1241.09L714.557 1175.39Z" fill="#D0D9DD"/>
<path opacity="0.5" d="M657.676 1009L715.461 1042.39L715.461 1109.15L715.23 1109.28L657.676 1142.54L599.891 1109.15L599.891 1042.39L600.122 1042.25L657.676 1009ZM714.557 1042.91L657.676 1010.05L600.795 1042.91L600.795 1108.61L657.676 1141.46L714.557 1108.61L714.557 1042.91Z" fill="#D0D9DD"/>
<path opacity="0.5" d="M657.676 876.533L715.461 909.923L715.461 976.683L715.23 976.818L657.676 1010.07L599.891 976.683L599.891 909.923L600.122 909.788L657.676 876.533ZM714.557 910.442L657.676 877.591L600.795 910.442L600.795 976.145L657.676 1009L714.557 976.145L714.557 910.442Z" fill="#D0D9DD"/>
<path opacity="0.5" d="M657.676 810.292L715.461 843.682L715.461 910.442L715.23 910.577L657.676 943.832L599.891 910.442L599.891 843.682L600.122 843.547L657.676 810.292ZM714.557 844.201L657.676 811.35L600.795 844.201L600.795 909.904L657.676 942.755L714.557 909.904L714.557 844.201Z" fill="#D0D9DD"/>
<path opacity="0.5" d="M543.01 810.292L600.795 843.682L600.795 910.442L600.564 910.577L543.01 943.832L485.225 910.442L485.225 843.682L485.456 843.547L543.01 810.292ZM599.891 844.201L543.01 811.35L486.129 844.201L486.129 909.904L543.01 942.755L599.891 909.904L599.891 844.201Z" fill="#D0D9DD"/>
<path opacity="0.5" d="M657.676 611.587L657.907 611.722L715.461 644.977L715.461 711.738L715.23 711.873L657.676 745.128L599.891 711.738L599.891 644.977L600.122 644.843L657.676 611.587ZM714.557 645.497L657.676 612.645L600.795 645.497L600.795 711.199L657.676 744.051L714.557 711.199L714.557 645.497Z" fill="#D0D9DD"/>
<path opacity="0.5" d="M772.342 611.587L772.573 611.722L830.127 644.958L830.127 711.718L829.896 711.853L772.342 745.108L714.557 711.718L714.557 644.958L714.788 644.823L772.342 611.568L772.342 611.587ZM829.204 645.496L772.323 612.645L715.442 645.496L715.442 711.199L772.323 744.05L829.204 711.199L829.204 645.496Z" fill="#D0D9DD"/>
<path opacity="0.5" d="M600.353 1108.36L658.137 1141.75L658.137 1208.51L657.907 1208.64L600.353 1241.9L542.568 1208.51L542.568 1141.75L542.798 1141.61L600.353 1108.36ZM657.234 1142.27L600.353 1109.42L543.471 1142.27L543.471 1207.97L600.353 1240.82L657.234 1207.97L657.234 1142.27Z" fill="#D0D9DD"/>
<path opacity="0.5" d="M600.353 777.172L658.137 810.561L658.137 877.322L657.907 877.457L600.353 910.712L542.568 877.322L542.568 810.561L542.799 810.427L600.353 777.172ZM657.234 811.081L600.353 778.229L543.471 811.081L543.471 876.783L600.353 909.635L657.234 876.783L657.234 811.081Z" fill="#D0D9DD"/>
<path opacity="0.5" d="M543.01 1075.24L600.795 1108.63L600.795 1175.39L600.564 1175.52L543.01 1208.78L485.225 1175.39L485.225 1108.63L485.456 1108.49L543.01 1075.24ZM599.891 1109.15L543.01 1076.3L486.129 1109.15L486.129 1174.85L543.01 1207.7L599.891 1174.85L599.891 1109.15Z" fill="#D0D9DD"/>
<path opacity="0.5" d="M485.687 975.876L543.471 1009.27L543.471 1076.03L543.241 1076.16L485.687 1109.42L427.902 1076.03L427.902 1009.27L428.132 1009.13L485.687 975.876ZM542.568 1009.78L485.687 976.933L428.805 1009.78L428.805 1075.49L485.687 1108.34L542.568 1075.49L542.568 1009.78Z" fill="#D0D9DD"/>
<path opacity="0.5" d="M313.697 1075.24L371.482 1108.63L371.482 1175.39L371.251 1175.52L313.697 1208.78L255.912 1175.39L255.912 1108.63L256.143 1108.49L313.697 1075.24ZM370.578 1109.15L313.697 1076.3L256.816 1109.15L256.816 1174.85L313.697 1207.7L370.578 1174.85L370.578 1109.15Z" fill="#D0D9DD"/>
<path opacity="0.5" d="M715 445.984L715.23 446.118L772.784 479.374L772.784 546.134L772.554 546.269L714.999 579.524L714.769 579.39L657.215 546.134L657.215 479.374L657.445 479.239L715 445.984ZM771.881 479.893L715 447.042L658.118 479.893L658.118 545.596L714.999 578.447L771.881 545.596L771.881 479.893Z" fill="#D0D9DD"/>
<path opacity="0.5" d="M657.676 544.98L657.907 545.115L715.461 578.37L715.461 645.131L715.23 645.265L657.676 678.521L657.445 678.386L599.891 645.131L599.891 578.37L600.122 578.235L657.676 544.98ZM714.557 578.889L657.676 546.038L600.795 578.889L600.795 644.592L657.676 677.443L714.557 644.592L714.557 578.889Z" fill="#D0D9DD"/>
<path opacity="0.5" d="M657.676 744.05L715.461 777.44L715.461 844.201L715.23 844.336L657.676 877.591L599.891 844.201L599.891 777.44L600.122 777.306L657.676 744.05ZM714.557 777.96L657.676 745.108L600.795 777.96L600.795 843.662L657.676 876.514L714.557 843.662L714.557 777.96Z" fill="#D0D9DD"/>
<path d="M485.686 843.663L543.702 877.168L543.702 944.198L543.356 944.39L485.686 977.703L427.671 944.198L427.671 877.168L428.017 876.976L485.686 843.663ZM542.337 877.976L485.686 845.259L429.036 877.976L429.036 943.409L485.686 976.126L542.337 943.409L542.337 877.976Z" fill="white"/>
<path d="M715 776.902L773.015 810.407L773.015 877.437L772.669 877.629L715 910.942L656.984 877.437L656.984 810.407L657.33 810.215L715 776.902ZM771.65 811.215L715 778.498L658.349 811.215L658.349 876.648L715 909.365L771.65 876.648L771.65 811.215Z" fill="white"/>
<path d="M715 511.937L715.346 512.129L773.015 545.442L773.015 612.472L772.669 612.665L715 645.978L714.654 645.785L656.984 612.472L656.984 545.442L657.33 545.25L715 511.937ZM771.65 546.25L715 513.533L658.349 546.25L658.349 611.684L715 644.4L771.65 611.684L771.65 546.25Z" fill="white"/>
<path d="M714.999 975.606L773.015 1009.11L773.015 1076.14L772.669 1076.33L714.999 1109.65L656.984 1076.14L656.984 1009.11L657.33 1008.92L714.999 975.606ZM771.65 1009.92L714.999 977.202L658.349 1009.92L658.349 1075.35L714.999 1108.07L771.65 1075.35L771.65 1009.92Z" fill="white"/>
<path d="M657.676 1074.97L715.692 1108.47L715.692 1175.5L715.346 1175.7L657.676 1209.01L599.661 1175.5L599.661 1108.47L600.007 1108.28L657.676 1074.97ZM714.327 1109.28L657.676 1076.56L601.025 1109.28L601.025 1174.71L657.676 1207.43L714.327 1174.71L714.327 1109.28Z" fill="white"/>
<path d="M600.353 909.384L658.368 942.89L658.368 1009.92L658.022 1010.11L600.353 1043.42L542.337 1009.92L542.337 942.89L542.683 942.697L600.353 909.384ZM657.003 943.697L600.353 910.981L543.702 943.697L543.702 1009.13L600.353 1041.85L657.003 1009.13L657.003 943.697Z" fill="white"/>
<path d="M600.353 710.679L600.699 710.872L658.368 744.185L658.368 811.214L658.022 811.407L600.353 844.72L542.337 811.214L542.337 744.185L542.683 743.992L600.353 710.679ZM657.003 744.992L600.353 712.276L543.702 744.992L543.702 810.426L600.353 843.143L657.003 810.426L657.003 744.992Z" fill="white"/>
<path d="M600.353 578.197L600.699 578.389L658.368 611.702L658.368 678.732L658.022 678.924L600.353 712.237L600.007 712.045L542.337 678.732L542.337 611.702L542.683 611.51L600.353 578.197ZM657.003 612.51L600.353 579.793L543.702 612.51L543.702 677.943L600.353 710.66L657.003 677.943L657.003 612.51Z" fill="white"/>
<path d="M543.01 1008.73L601.025 1042.23L601.025 1109.26L600.679 1109.45L543.01 1142.77L484.994 1109.26L484.994 1042.23L485.34 1042.04L543.01 1008.73ZM599.661 1043.04L543.01 1010.32L486.359 1043.04L486.359 1108.47L543.01 1141.19L599.661 1108.47L599.661 1043.04Z" fill="white"/>
<path d="M428.363 1074.97L486.379 1108.47L486.379 1175.5L486.033 1175.7L428.363 1209.01L370.348 1175.5L370.348 1108.47L370.694 1108.28L428.363 1074.97ZM485.014 1109.28L428.363 1076.56L371.712 1109.28L371.712 1174.71L428.363 1207.43L485.014 1174.71L485.014 1109.28Z" fill="white"/>
<path d="M371.02 1108.09L429.036 1141.59L429.036 1208.62L428.69 1208.82L371.02 1242.13L313.005 1208.62L313.005 1141.59L313.351 1141.4L371.02 1108.09ZM427.671 1142.4L371.02 1109.68L314.37 1142.4L314.37 1207.83L371.02 1240.55L427.671 1207.84L427.671 1142.4Z" fill="white"/>
<path opacity="0.5" d="M710.886 448.004L710.886 443.253L715 440.868L719.133 443.253L719.133 448.004L715 450.389L710.886 448.004Z" fill="#D0D9DD"/>
<path opacity="0.5" d="M653.562 1210.61L653.562 1205.85L657.676 1203.49L661.79 1205.85L661.79 1210.61L657.676 1212.99L653.562 1210.61Z" fill="#D0D9DD"/>
<path opacity="0.5" d="M655.984 1143.04L655.984 1141.09L657.676 1140.11L659.368 1141.09L659.368 1143.04L657.676 1144.02L655.984 1143.04Z" fill="#D0D9DD"/>
<path opacity="0.5" d="M653.389 1012.19L653.389 1007.23L657.676 1004.76L661.963 1007.23L661.963 1012.19L657.676 1014.67L653.389 1012.19Z" fill="#D0D9DD"/>
<path opacity="0.5" d="M653.255 946.083L653.255 940.986L657.676 938.447L662.098 940.986L662.098 946.083L657.676 948.641L653.255 946.083Z" fill="#D0D9DD"/>
<path opacity="0.5" d="M708.752 847.548L708.752 840.316L715 836.7L721.266 840.316L721.266 847.548L715 851.164L708.752 847.548Z" fill="#D0D9DD"/>
<path opacity="0.5" d="M709.848 1111.84L709.848 1105.88L715 1102.88L720.171 1105.88L720.171 1111.84L715 1114.82L709.848 1111.84Z" fill="#D0D9DD"/>
<path opacity="0.5" d="M597.431 1243.03L597.431 1239.67L600.353 1237.99L603.255 1239.67L603.255 1243.03L600.353 1244.71L597.431 1243.03Z" fill="#D0D9DD"/>
<path opacity="0.5" d="M539.473 1210.28L539.473 1206.18L543.01 1204.14L546.566 1206.18L546.566 1210.28L543.01 1212.34L539.473 1210.28Z" fill="#D0D9DD"/>
<path opacity="0.5" d="M539.569 879.36L539.569 875.379L543.01 873.379L546.47 875.379L546.47 879.36L543.01 881.361L539.569 879.36Z" fill="#D0D9DD"/>
<path opacity="0.5" d="M539.934 812.965L539.934 809.407L543.01 807.638L546.105 809.407L546.105 812.965L543.01 814.754L539.934 812.965Z" fill="#D0D9DD"/>
<path opacity="0.5" d="M537.166 682.214L537.166 675.463L543.01 672.097L548.873 675.463L548.873 682.214L543.01 685.599L537.166 682.214Z" fill="#D0D9DD"/>
<path opacity="0.5" d="M598.738 1176.16L598.738 1174.29L600.353 1173.35L601.967 1174.29L601.967 1176.16L600.353 1177.08L598.738 1176.16Z" fill="#D0D9DD"/>
<path opacity="0.5" d="M597.315 912.443L597.315 908.942L600.353 907.192L603.39 908.942L603.39 912.443L600.353 914.212L597.315 912.443Z" fill="#D0D9DD"/>
<path opacity="0.5" d="M598.911 779.267L598.911 777.594L600.353 776.767L601.794 777.594L601.794 779.267L600.353 780.114L598.911 779.267Z" fill="#D0D9DD"/>
<path opacity="0.5" d="M596.181 648.574L596.181 643.765L600.353 641.361L604.505 643.765L604.505 648.574L600.353 650.978L596.181 648.574Z" fill="#D0D9DD"/>
<path opacity="0.5" d="M425.979 1143.44L425.979 1140.69L428.363 1139.31L430.747 1140.69L430.747 1143.44L428.363 1144.83L425.979 1143.44Z" fill="#D0D9DD"/>
<path opacity="0.5" d="M424.442 1078.16L424.442 1073.62L428.363 1071.35L432.285 1073.62L432.285 1078.16L428.363 1080.43L424.442 1078.16Z" fill="#D0D9DD"/>
<path opacity="0.5" d="M424.096 1012.17L424.096 1007.25L428.363 1004.8L432.611 1007.25L432.611 1012.17L428.363 1014.63L424.096 1012.17Z" fill="#D0D9DD"/>
<path opacity="0.5" d="M480.708 1178.1L480.708 1172.35L485.686 1169.46L490.665 1172.35L490.665 1178.1L485.686 1180.97L480.708 1178.1Z" fill="#D0D9DD"/>
<path opacity="0.5" d="M481.611 1111.45L481.611 1106.72L485.687 1104.38L489.762 1106.72L489.762 1111.45L485.687 1113.8L481.611 1111.45Z" fill="#D0D9DD"/>
<path opacity="0.5" d="M482.668 846.317L482.668 842.816L485.686 841.085L488.704 842.816L488.704 846.317L485.686 848.048L482.668 846.317Z" fill="#D0D9DD"/>
<path opacity="0.5" d="M368.118 1243.03L368.118 1239.67L371.02 1237.99L373.923 1239.67L373.923 1243.03L371.02 1244.71L368.118 1243.03Z" fill="#D0D9DD"/>
<path opacity="0.5" d="M308.468 1078.91L308.468 1072.87L313.697 1069.83L318.926 1072.87L318.926 1078.91L313.697 1081.93L308.468 1078.91Z" fill="#D0D9DD"/>
<path opacity="0.5" d="M365.177 1112.47L365.177 1105.7L371.02 1102.32L376.883 1105.7L376.883 1112.47L371.02 1115.86L365.177 1112.47Z" fill="#D0D9DD"/>
<path d="M655.619 680.04L655.619 677.655L657.676 676.444L659.752 677.655L659.752 680.04L657.676 681.233L655.619 680.04Z" fill="white"/>
<path d="M653.562 879.745L653.562 874.994L657.676 872.609L661.79 874.994L661.79 879.745L657.676 882.13L653.562 879.745Z" fill="white"/>
<path d="M596.239 846.624L596.239 841.873L600.353 839.488L604.466 841.873L604.466 846.624L600.353 849.009L596.239 846.624Z" fill="white"/>
<path d="M651.429 748.628L651.429 741.397L657.676 737.781L663.943 741.397L663.943 748.628L657.676 752.244L651.429 748.628Z" fill="white"/>
<path d="M654.37 614.587L654.37 610.76L657.676 608.836L660.983 610.76L660.983 614.587L657.676 616.491L654.37 614.587Z" fill="white"/>
<path d="M540.607 944.928L540.607 942.139L543.01 940.755L545.432 942.14L545.432 944.928L543.01 946.332L540.607 944.928Z" fill="white"/>
<path d="M710.828 1243.76L710.828 1238.94L715 1236.51L719.19 1238.94L719.19 1243.76L715 1246.19L710.828 1243.76Z" fill="white"/>
<path d="M712.039 714.027L712.039 710.584L715 708.872L717.979 710.584L717.979 714.027L715 715.739L712.039 714.027Z" fill="white"/>
<path d="M540.607 1143.46L540.607 1140.67L543.01 1139.29L545.432 1140.67L545.432 1143.46L543.01 1144.84L540.607 1143.46Z" fill="white"/>
<path d="M539.857 1077.72L539.857 1074.06L543.01 1072.24L546.182 1074.06L546.182 1077.72L543.01 1079.53L539.857 1077.72Z" fill="white"/>
<path d="M538.838 747.436L538.838 742.608L543.01 740.185L547.201 742.608L547.201 747.436L543.01 749.84L538.838 747.436Z" fill="white"/>
<path d="M594.547 1112.44L594.547 1105.74L600.353 1102.38L606.158 1105.74L606.158 1112.44L600.353 1115.8L594.547 1112.44Z" fill="white"/>
<path d="M596.027 1045.44L596.027 1040.46L600.353 1037.96L604.659 1040.46L604.659 1045.44L600.353 1047.94L596.027 1045.44Z" fill="white"/>
<path d="M595.662 979.53L595.662 974.126L600.353 971.414L605.024 974.126L605.024 979.53L600.353 982.242L595.662 979.53Z" fill="white"/>
<path d="M597.508 713.95L597.508 710.661L600.353 709.026L603.178 710.661L603.178 713.95L600.353 715.584L597.508 713.95Z" fill="white"/>
<path d="M597.123 581.91L597.123 578.178L600.353 576.332L603.563 578.178L603.563 581.91L600.353 583.756L597.123 581.91Z" fill="white"/>
<path d="M424.249 1210.61L424.249 1205.85L428.363 1203.49L432.477 1205.85L432.477 1210.61L428.363 1212.99L424.249 1210.61Z" fill="white"/>
<path d="M426.306 944.717L426.306 942.351L428.363 941.178L430.401 942.351L430.401 944.717L428.363 945.89L426.306 944.717Z" fill="white"/>
<path d="M480.9 1045.73L480.9 1040.19L485.686 1037.42L490.473 1040.19L490.473 1045.73L485.686 1048.48L480.9 1045.73Z" fill="white"/>
<path d="M483.457 978.126L483.457 975.529L485.687 974.24L487.916 975.529L487.916 978.126L485.687 979.414L483.457 978.126Z" fill="white"/>
<path d="M310.621 1143.84L310.621 1140.29L313.697 1138.52L316.773 1140.29L316.773 1143.84L313.697 1145.61L310.621 1143.84Z" fill="white"/>
</g>
<defs>
<filter id="filter0_f_596_5361" x="0.304443" y="0" width="1669.78" height="1669.78" filterUnits="userSpaceOnUse" color-interpolation-filters="sRGB">
<feFlood flood-opacity="0" result="BackgroundImageFix"/>
<feBlend mode="normal" in="SourceGraphic" in2="BackgroundImageFix" result="shape"/>
<feGaussianBlur stdDeviation="202" result="effect1_foregroundBlur_596_5361"/>
</filter>
<clipPath id="clip0_596_5361">
<rect width="574.215" height="834.132" fill="white" transform="translate(830.127 1275) rotate(-180)"/>
</clipPath>
</defs>
</svg>
