<svg width="90" height="680" viewBox="0 0 90 680" fill="none" xmlns="http://www.w3.org/2000/svg">
<path d="M6.52886 317.789L45 295.577L83.4711 317.789V362.211L45 384.423L6.52886 362.211V317.789Z" fill="url(#paint0_linear_596_5884)" stroke="url(#paint1_linear_596_5884)"/>
<path d="M45.015 348V343.5H35.745V340.17C36.525 338.93 37.255 337.62 37.935 336.24C38.615 334.86 39.245 333.4 39.825 331.86C40.425 330.32 40.925 328.72 41.325 327.06H45.615C45.395 328.02 45.085 329.03 44.685 330.09C44.305 331.15 43.865 332.2 43.365 333.24C42.865 334.28 42.355 335.26 41.835 336.18C41.335 337.08 40.855 337.88 40.395 338.58C39.935 339.28 39.545 339.81 39.225 340.17H45.015V335.19C45.215 334.81 45.415 334.4 45.615 333.96C45.835 333.5 46.045 333.04 46.245 332.58C46.445 332.1 46.625 331.63 46.785 331.17C46.965 330.71 47.105 330.28 47.205 329.88H49.125V340.17H51.765V343.5H49.125V348H45.015Z" fill="white"/>
<g filter="url(#filter0_b_596_5884)">
<path d="M45 165L79.641 185V225L45 245L10.359 225V185L45 165Z" fill="white" fill-opacity="0.05"/>
<path d="M10.859 185.289L45 165.577L79.141 185.289V224.711L45 244.423L10.859 224.711V185.289Z" stroke="url(#paint2_linear_596_5884)"/>
<path d="M10.859 185.289L45 165.577L79.141 185.289V224.711L45 244.423L10.859 224.711V185.289Z" stroke="url(#paint3_linear_596_5884)"/>
</g>
<path d="M45 215.36C43.32 215.36 41.91 215.1 40.77 214.58C39.63 214.06 38.77 213.34 38.19 212.42C37.61 211.5 37.32 210.44 37.32 209.24V208.73H41.37V209.3C41.37 210.18 41.66 210.87 42.24 211.37C42.84 211.87 43.7 212.12 44.82 212.12C45.9 212.12 46.74 211.87 47.34 211.37C47.94 210.87 48.24 210.1 48.24 209.06C48.24 208.28 48.08 207.68 47.76 207.26C47.44 206.84 47.02 206.54 46.5 206.36C46 206.18 45.45 206.09 44.85 206.09H43.02V202.94H44.82C45.38 202.94 45.88 202.84 46.32 202.64C46.78 202.42 47.14 202.1 47.4 201.68C47.68 201.26 47.82 200.72 47.82 200.06C47.82 199.44 47.69 198.93 47.43 198.53C47.19 198.11 46.84 197.8 46.38 197.6C45.94 197.4 45.43 197.3 44.85 197.3C44.27 197.3 43.74 197.4 43.26 197.6C42.8 197.8 42.44 198.1 42.18 198.5C41.92 198.9 41.79 199.4 41.79 200V200.45H37.8V199.7C37.8 198.58 38.09 197.6 38.67 196.76C39.27 195.9 40.11 195.24 41.19 194.78C42.27 194.3 43.52 194.06 44.94 194.06C46.36 194.06 47.6 194.28 48.66 194.72C49.74 195.16 50.57 195.81 51.15 196.67C51.75 197.51 52.05 198.51 52.05 199.67C52.05 200.45 51.9 201.14 51.6 201.74C51.32 202.34 50.94 202.85 50.46 203.27C49.98 203.67 49.43 204.01 48.81 204.29V204.41C49.89 204.73 50.77 205.32 51.45 206.18C52.15 207.02 52.5 208.11 52.5 209.45C52.48 210.65 52.16 211.69 51.54 212.57C50.94 213.45 50.08 214.14 48.96 214.64C47.84 215.12 46.52 215.36 45 215.36Z" fill="#7E7E7E"/>
<g filter="url(#filter1_b_596_5884)">
<path d="M45 435L79.641 455V495L45 515L10.359 495V455L45 435Z" fill="white" fill-opacity="0.05"/>
<path d="M10.859 455.289L45 435.577L79.141 455.289V494.711L45 514.423L10.859 494.711V455.289Z" stroke="url(#paint4_linear_596_5884)"/>
<path d="M10.859 455.289L45 435.577L79.141 455.289V494.711L45 514.423L10.859 494.711V455.289Z" stroke="url(#paint5_linear_596_5884)"/>
</g>
<path d="M44.97 485.36C43.41 485.36 42.05 485.09 40.89 484.55C39.75 483.99 38.87 483.2 38.25 482.18C37.63 481.16 37.32 479.95 37.32 478.55H41.43C41.43 479.25 41.56 479.88 41.82 480.44C42.1 480.98 42.5 481.4 43.02 481.7C43.54 481.98 44.15 482.12 44.85 482.12C45.53 482.12 46.11 481.97 46.59 481.67C47.09 481.37 47.48 480.94 47.76 480.38C48.04 479.8 48.18 479.09 48.18 478.25C48.18 477.47 48.04 476.82 47.76 476.3C47.5 475.76 47.12 475.36 46.62 475.1C46.14 474.82 45.57 474.68 44.91 474.68C44.39 474.68 43.93 474.77 43.53 474.95C43.15 475.11 42.82 475.31 42.54 475.55C42.26 475.79 42.02 476.05 41.82 476.33L38.07 475.85L38.91 464.42H51.27V468.11H42.39L42.06 472.76C42.28 472.6 42.57 472.43 42.93 472.25C43.29 472.07 43.73 471.91 44.25 471.77C44.79 471.61 45.41 471.53 46.11 471.53C47.31 471.53 48.38 471.78 49.32 472.28C50.28 472.78 51.04 473.53 51.6 474.53C52.16 475.51 52.44 476.76 52.44 478.28C52.44 479.74 52.13 481 51.51 482.06C50.91 483.12 50.05 483.94 48.93 484.52C47.83 485.08 46.51 485.36 44.97 485.36Z" fill="#7E7E7E"/>
<rect x="42" y="530" width="6.81818" height="150" fill="url(#paint6_linear_596_5884)"/>
<rect width="6.81818" height="150" transform="matrix(1 0 0 -1 42 150)" fill="url(#paint7_linear_596_5884)"/>
<defs>
<filter id="filter0_b_596_5884" x="-4.64099" y="150" width="99.282" height="110" filterUnits="userSpaceOnUse" color-interpolation-filters="sRGB">
<feFlood flood-opacity="0" result="BackgroundImageFix"/>
<feGaussianBlur in="BackgroundImageFix" stdDeviation="7.5"/>
<feComposite in2="SourceAlpha" operator="in" result="effect1_backgroundBlur_596_5884"/>
<feBlend mode="normal" in="SourceGraphic" in2="effect1_backgroundBlur_596_5884" result="shape"/>
</filter>
<filter id="filter1_b_596_5884" x="-4.64099" y="420" width="99.282" height="110" filterUnits="userSpaceOnUse" color-interpolation-filters="sRGB">
<feFlood flood-opacity="0" result="BackgroundImageFix"/>
<feGaussianBlur in="BackgroundImageFix" stdDeviation="7.5"/>
<feComposite in2="SourceAlpha" operator="in" result="effect1_backgroundBlur_596_5884"/>
<feBlend mode="normal" in="SourceGraphic" in2="effect1_backgroundBlur_596_5884" result="shape"/>
</filter>
<linearGradient id="paint0_linear_596_5884" x1="-101.613" y1="110.435" x2="111.763" y2="136.642" gradientUnits="userSpaceOnUse">
<stop stop-color="white"/>
<stop offset="1" stop-color="#6F26FF"/>
</linearGradient>
<linearGradient id="paint1_linear_596_5884" x1="-58.8888" y1="267.608" x2="93.6766" y2="289.872" gradientUnits="userSpaceOnUse">
<stop stop-color="white"/>
<stop offset="1" stop-color="white" stop-opacity="0"/>
</linearGradient>
<linearGradient id="paint2_linear_596_5884" x1="3.61819" y1="159.219" x2="45.9746" y2="184.044" gradientUnits="userSpaceOnUse">
<stop stop-color="white"/>
<stop offset="1" stop-color="white" stop-opacity="0"/>
</linearGradient>
<linearGradient id="paint3_linear_596_5884" x1="75.4143" y1="224.238" x2="53.1187" y2="214.38" gradientUnits="userSpaceOnUse">
<stop stop-color="white"/>
<stop offset="1" stop-color="white" stop-opacity="0"/>
</linearGradient>
<linearGradient id="paint4_linear_596_5884" x1="3.61819" y1="429.219" x2="45.9746" y2="454.044" gradientUnits="userSpaceOnUse">
<stop stop-color="white"/>
<stop offset="1" stop-color="white" stop-opacity="0"/>
</linearGradient>
<linearGradient id="paint5_linear_596_5884" x1="75.4143" y1="494.238" x2="53.1187" y2="484.38" gradientUnits="userSpaceOnUse">
<stop stop-color="white"/>
<stop offset="1" stop-color="white" stop-opacity="0"/>
</linearGradient>
<linearGradient id="paint6_linear_596_5884" x1="45.4091" y1="530" x2="45.4091" y2="680" gradientUnits="userSpaceOnUse">
<stop stop-color="#633988"/>
<stop offset="0.880839" stop-color="#11111B"/>
</linearGradient>
<linearGradient id="paint7_linear_596_5884" x1="3.40909" y1="0" x2="3.40909" y2="150" gradientUnits="userSpaceOnUse">
<stop stop-color="#643A88"/>
<stop offset="0.814081" stop-color="#11111B"/>
</linearGradient>
</defs>
</svg>
