<svg width="992" height="529" viewBox="0 0 992 529" fill="none" xmlns="http://www.w3.org/2000/svg">
<path d="M494.767 55.8107C494.767 55.8107 106.046 55.5865 104.677 55.1383C103.581 54.4659 75.0914 71.7244 73.4477 74.6382C71.5301 77.7761 73.4477 263.586 73.4477 263.586H92.3495L92.8974 185.81C92.8974 185.81 83.8574 158.69 82.4877 149.724C81.3919 140.759 80.5701 79.5692 81.3919 77.552C82.4876 75.3106 104.129 62.3107 107.69 61.6382C111.251 60.7417 205.761 61.4141 207.678 62.0865C209.596 62.7589 220.006 69.7072 222.745 70.8279C225.484 71.7244 407.654 72.621 412.585 71.7244C417.79 71.052 424.913 63.4313 426.83 62.3107C429.022 61.4141 494.767 62.3107 494.767 62.3107V55.8107Z" fill="url(#paint0_linear_126_4839)"/>
<path d="M494.767 55.8107C494.767 55.8107 883.488 55.5865 884.857 55.1383C885.953 54.4659 914.443 71.7244 916.087 74.6382C917.73 77.7761 916.087 263.586 916.087 263.586H896.911L896.637 185.81C896.637 185.81 905.677 158.69 907.047 149.724C908.142 140.759 908.964 79.5692 907.868 77.552C907.047 75.3106 885.405 62.3107 881.844 61.6382C878.283 60.7417 783.774 61.4141 781.856 62.0865C779.938 62.7589 769.529 69.7072 766.789 70.8279C764.05 71.7244 581.88 72.621 576.675 71.7244C571.744 71.052 564.622 63.4313 562.43 62.3107C560.513 61.4141 494.767 62.3107 494.767 62.3107V55.8107Z" fill="url(#paint1_linear_126_4839)"/>
<path d="M494.767 471.359C494.767 471.359 106.046 471.583 104.677 472.255C103.581 472.928 75.0914 455.669 73.4477 452.531C71.5301 449.618 73.4477 263.584 73.4477 263.584H92.3495L92.8974 341.584C92.8974 341.584 83.8574 368.704 82.4877 377.67C81.3919 386.635 80.5701 447.825 81.3919 449.842C82.4876 451.859 104.129 465.083 107.69 465.755C111.251 466.428 205.761 465.98 207.678 465.307C209.596 464.635 220.006 457.462 222.745 456.566C225.484 455.669 407.654 454.773 412.585 455.445C417.79 456.342 424.913 463.962 426.83 464.859C429.022 465.98 494.767 464.859 494.767 464.859V471.359Z" fill="url(#paint2_linear_126_4839)"/>
<path d="M494.767 471.359C494.767 471.359 883.488 471.583 884.857 472.255C885.953 472.928 914.443 455.669 916.087 452.531C917.73 449.618 916.087 263.584 916.087 263.584H896.911L896.637 341.584C896.637 341.584 905.677 368.704 907.047 377.67C908.142 386.635 908.964 447.825 907.868 449.842C907.047 451.859 885.405 465.083 881.844 465.755C878.283 466.428 783.774 465.98 781.856 465.307C779.938 464.635 769.529 457.462 766.789 456.566C764.05 455.669 581.88 454.773 576.675 455.445C571.744 456.342 564.622 463.962 562.43 464.859C560.513 465.98 494.767 464.859 494.767 464.859V471.359Z" fill="url(#paint3_linear_126_4839)"/>
<path d="M108.512 470.463C108.512 470.463 83.0354 454.102 79.2003 451.636C75.3651 449.395 48.2451 447.602 48.2451 447.602C48.2451 447.602 133.714 525.601 137.549 527.843C141.659 530.308 494.767 528.067 494.767 528.067V491.981C494.767 491.981 435.048 492.877 417.79 491.308C400.532 489.963 378.343 471.584 378.343 471.584L108.512 470.463Z" fill="url(#paint4_linear_126_4839)"/>
<path d="M881.022 470.463C881.022 470.463 906.499 454.102 910.334 451.636C914.169 449.395 941.289 447.602 941.289 447.602C941.289 447.602 855.82 525.601 851.711 527.843C847.876 530.308 494.767 528.067 494.767 528.067V491.981C494.767 491.981 554.486 492.877 571.744 491.308C589.002 489.963 611.465 471.136 611.465 471.136L881.022 470.463Z" fill="url(#paint5_linear_126_4839)"/>
<path d="M578.045 515.962C578.045 515.962 623.245 485.704 628.724 482.79C634.203 480.1 874.722 482.79 874.722 482.79C874.722 482.79 845.411 515.066 840.754 517.083C836.097 519.1 578.045 515.962 578.045 515.962Z" fill="#150E20"/>
<path d="M412.037 515.962C412.037 515.962 366.837 485.704 361.632 482.79C356.153 480.1 115.36 482.79 115.36 482.79C115.36 482.79 144.672 515.066 149.329 517.083C153.986 519.1 412.037 515.962 412.037 515.962Z" fill="#150E20"/>
<path d="M378.343 471.585L611.466 471.137C611.466 471.137 586.263 490.637 579.689 493.102C573.114 495.568 418.886 493.102 413.681 493.102C408.476 493.102 378.343 471.585 378.343 471.585Z" fill="#F64AD1"/>
<path d="M72.9003 449.394C72.9003 449.394 52.6287 436.842 48.2457 427.204C43.8626 417.566 43.8625 293.843 43.8625 293.843C43.8625 293.843 70.1609 324.998 76.1876 326.791L72.9003 449.394Z" fill="url(#paint6_linear_126_4839)"/>
<path d="M68.7909 430.119C68.7909 430.119 57.2853 427.429 54.8199 417.791C52.3544 407.929 53.7242 320.516 53.7242 320.516C53.7242 320.516 66.8733 333.291 69.3388 341.136C71.8043 348.757 68.7909 430.119 68.7909 430.119Z" fill="#F64AD1"/>
<path d="M43.8625 293.843L72.9003 305.498V317.825L82.762 328.36C82.762 328.36 77.8311 328.136 73.9959 326.343C69.8868 324.325 48.5195 301.688 43.8625 293.843Z" fill="#343B54"/>
<path d="M48.2451 447.603L64.6815 443.568C64.6815 443.568 71.53 448.499 72.8997 449.396C74.5433 450.292 86.3227 456.344 86.3227 456.344C86.3227 456.344 61.1203 457.017 48.2451 447.603Z" fill="#343B54"/>
<path d="M41.123 203.067C41.123 203.067 65.2298 185.36 72.6261 183.119C79.7486 180.878 89.3366 184.24 89.3366 184.24C89.3366 184.24 78.6528 176.619 72.6261 176.619C66.5995 176.843 50.1631 188.274 41.123 203.067Z" fill="#150E20"/>
<path d="M137.002 55.8096L118.1 41.9131C118.1 41.9131 199.46 41.2407 201.652 41.9131C203.569 42.8097 226.854 55.5855 226.854 55.5855L137.002 55.8096Z" fill="url(#paint7_linear_126_4839)"/>
<path d="M43.862 135.827C44.4098 125.74 15.3723 86.5164 15.3723 76.6544C15.3723 66.7923 15.3723 6.72363 15.3723 6.72363C15.3723 6.72363 52.3542 49.9821 58.6548 52.4476C64.6815 54.9131 104.677 55.1372 104.677 55.1372C104.677 55.1372 69.3385 73.0682 53.7239 94.137C43.3142 108.258 43.862 135.827 43.862 135.827Z" fill="url(#paint8_linear_126_4839)"/>
<path d="M73.4481 74.6367C73.4481 74.6367 48.5195 95.0332 45.5062 108.257C43.0407 119.688 41.123 203.067 41.123 203.067C41.123 203.067 59.751 178.636 72.6261 176.619L73.4481 74.6367Z" fill="url(#paint9_linear_126_4839)"/>
<path d="M48.5193 180.207C48.5193 180.207 50.437 120.362 52.9024 112.518C55.6418 104.897 66.3254 91.2246 66.3254 91.2246L64.9557 164.069C64.9557 164.069 53.4502 172.138 48.5193 180.207Z" fill="#150E20"/>
<path d="M43.8625 132.464C43.8625 132.464 45.2323 108.033 50.9851 99.2918C56.7378 90.7746 73.4482 74.6367 73.4482 74.6367C73.4482 74.6367 50.1633 92.5677 47.4239 98.3952C44.9584 104.223 43.8625 132.464 43.8625 132.464Z" fill="#434A61"/>
<path d="M41.1232 102.879C41.1232 102.879 26.0565 83.3787 23.865 76.6546C21.6735 69.9305 24.139 31.3789 24.139 31.3789C24.139 31.3789 41.1232 53.1202 43.8626 56.9305C46.602 60.7409 41.1232 102.879 41.1232 102.879Z" fill="#F64AD1"/>
<path d="M15.3723 6.72363C15.3723 6.72363 72.8997 48.4131 77.5567 50.4303C82.2137 52.4476 118.1 55.3613 118.1 55.3613C118.1 55.3613 66.599 55.5855 58.6548 52.4476C50.7105 49.3097 15.3723 6.72363 15.3723 6.72363Z" fill="#434A61"/>
<path d="M201.651 41.9141L257.535 55.5864L213.157 55.8106C213.157 55.8106 203.569 49.7589 201.651 41.9141Z" fill="#434A61"/>
<path d="M576.675 455.445C576.675 455.445 573.936 454.997 561.061 465.083H582.154C582.154 465.083 582.976 457.463 576.675 455.445Z" fill="#150E20"/>
<path d="M412.586 455.445C412.586 455.445 415.325 454.997 428.2 465.083H407.107C407.107 465.083 406.285 457.463 412.586 455.445Z" fill="#150E20"/>
<path d="M69.339 341.138C69.339 341.138 63.3123 328.362 57.0117 325.896C57.0117 325.896 55.9158 400.086 57.5594 410.844C59.2031 421.827 68.7911 425.862 68.7911 425.862L69.339 341.138Z" fill="url(#paint10_linear_126_4839)"/>
<path d="M218.088 470.913C218.088 470.913 232.059 459.706 234.524 459.258C237.264 458.81 258.083 459.258 258.083 459.258L241.647 470.913H218.088Z" fill="#F64AD1"/>
<path d="M249.043 470.913C249.043 470.913 263.014 459.706 265.753 459.258C268.219 458.81 289.038 459.258 289.038 459.258L272.602 470.913H249.043Z" fill="#F64AD1"/>
<path d="M220.827 470.911C220.827 470.911 232.88 461.049 236.168 460.376C239.181 459.704 256.713 460.152 256.713 460.152L241.647 470.911H220.827Z" fill="url(#paint11_linear_126_4839)"/>
<path d="M251.782 470.912C251.782 470.912 264.932 461.274 266.575 460.602C268.493 459.93 287.669 460.378 287.669 460.378L272.602 470.912H251.782Z" fill="url(#paint12_linear_126_4839)"/>
<path d="M382.452 474.946C382.452 474.946 522.161 470.688 606.534 474.946C606.534 474.946 582.428 492.653 579.688 493.102C576.949 493.55 419.16 495.119 413.681 493.102C408.476 491.084 382.452 474.946 382.452 474.946Z" fill="url(#paint13_linear_126_4839)"/>
<path d="M27.1519 35.1895C27.1519 35.1895 28.2476 71.7238 29.3433 74.6376C30.4391 77.7755 41.9447 95.9306 41.9447 95.9306C41.9447 95.9306 44.6841 64.3273 44.6841 57.6031C44.6841 52.8963 27.1519 35.1895 27.1519 35.1895Z" fill="url(#paint14_linear_126_4839)"/>
<path d="M223.019 55.3631C227.676 55.3631 204.665 11.8805 204.665 11.8805L317.254 13.8977C317.254 13.8977 302.188 0.00124669 306.023 1.12193C309.858 2.01848 494.767 2.01848 494.767 2.01848V55.8114L223.019 55.3631Z" fill="url(#paint15_linear_126_4839)"/>
<path d="M916.361 449.394C916.361 449.394 936.906 436.842 941.289 427.204C945.672 417.566 945.672 293.843 945.672 293.843C945.672 293.843 919.374 324.998 913.347 326.791L916.361 449.394Z" fill="url(#paint16_linear_126_4839)"/>
<path d="M920.744 430.119C920.744 430.119 932.249 427.429 934.715 417.791C937.18 407.929 935.81 320.516 935.81 320.516C935.81 320.516 922.661 333.291 920.196 341.136C917.73 348.757 920.744 430.119 920.744 430.119Z" fill="#F64AD1"/>
<path d="M945.672 293.843L916.361 305.498L916.635 317.825L906.773 328.36C906.773 328.36 911.704 328.136 915.539 326.343C919.374 324.325 941.015 301.688 945.672 293.843Z" fill="#343B54"/>
<path d="M941.289 447.603L924.853 443.568C924.853 443.568 917.73 448.499 916.361 449.396C914.991 450.292 903.212 456.344 903.212 456.344C903.212 456.344 928.414 457.017 941.289 447.603Z" fill="#343B54"/>
<path d="M948.412 203.067C948.412 203.067 924.031 185.36 916.909 183.119C909.786 180.878 900.198 184.24 900.198 184.24C900.198 184.24 910.882 176.619 916.909 176.619C922.935 176.843 939.372 188.274 948.412 203.067Z" fill="#150E20"/>
<path d="M852.259 55.8096L871.435 41.9131C871.435 41.9131 789.801 41.2407 787.883 41.9131C785.965 42.8097 762.68 55.5855 762.68 55.5855L852.259 55.8096Z" fill="url(#paint17_linear_126_4839)"/>
<path d="M945.673 135.827C944.851 125.74 974.162 86.5164 974.162 76.6544C974.162 66.7923 974.162 6.72363 974.162 6.72363C974.162 6.72363 937.181 49.9821 930.88 52.4476C924.579 54.9131 884.858 55.1372 884.858 55.1372C884.858 55.1372 920.196 73.0682 935.811 94.137C946.221 108.258 945.673 135.827 945.673 135.827Z" fill="url(#paint18_linear_126_4839)"/>
<path d="M916.087 74.6367C916.087 74.6367 941.015 95.0332 944.029 108.257C946.494 119.688 948.412 203.067 948.412 203.067C948.412 203.067 929.784 178.636 916.909 176.619L916.087 74.6367Z" fill="url(#paint19_linear_126_4839)"/>
<path d="M940.742 180.207C940.742 180.207 938.824 120.362 936.359 112.518C933.893 104.897 923.209 91.2246 923.209 91.2246L924.579 164.069C924.579 164.069 936.085 172.138 940.742 180.207Z" fill="#150E20"/>
<path d="M945.672 132.464C945.672 132.464 944.029 108.033 938.55 99.2918C932.797 90.7746 916.087 74.6367 916.087 74.6367C916.087 74.6367 939.372 92.5677 941.837 98.3952C944.577 104.223 945.672 132.464 945.672 132.464Z" fill="#434A61"/>
<path d="M948.412 102.879C948.412 102.879 963.478 83.3787 965.67 76.6546C967.587 69.9305 965.396 31.3789 965.396 31.3789C965.396 31.3789 948.412 53.1202 945.672 56.9305C942.933 60.7409 948.412 102.879 948.412 102.879Z" fill="#F64AD1"/>
<path d="M974.162 6.72363C974.162 6.72363 916.635 48.4131 911.978 50.4303C907.321 52.4476 871.435 55.3613 871.435 55.3613C871.435 55.3613 922.935 55.5855 930.88 52.4476C938.824 49.3097 974.162 6.72363 974.162 6.72363Z" fill="#434A61"/>
<path d="M787.883 41.9141L731.999 55.5864L776.378 55.8106C776.378 55.8106 785.965 49.7589 787.883 41.9141Z" fill="#434A61"/>
<path d="M920.196 341.138C920.196 341.138 926.222 328.362 932.523 325.896C932.523 325.896 933.619 400.086 931.701 410.844C930.058 421.827 920.744 425.862 920.744 425.862L920.196 341.138Z" fill="url(#paint20_linear_126_4839)"/>
<path d="M771.447 470.913C771.447 470.913 757.476 459.706 754.737 459.258C751.997 458.81 731.452 459.258 731.452 459.258L747.888 470.913H771.447Z" fill="#F64AD1"/>
<path d="M740.491 470.913C740.491 470.913 726.52 459.706 723.781 459.258C721.042 458.81 700.496 459.258 700.496 459.258L716.932 470.913H740.491Z" fill="#F64AD1"/>
<path d="M768.707 470.911C768.707 470.911 756.38 461.049 753.366 460.376C750.079 459.704 732.547 460.152 732.547 460.152L747.888 470.911H768.707Z" fill="url(#paint21_linear_126_4839)"/>
<path d="M737.752 470.912C737.752 470.912 724.603 461.274 722.685 460.602C721.042 459.93 701.866 460.378 701.866 460.378L716.933 470.912H737.752Z" fill="url(#paint22_linear_126_4839)"/>
<path d="M962.383 35.1895C962.383 35.1895 961.287 71.7238 960.191 74.6376C959.095 77.7755 947.59 95.9306 947.59 95.9306C947.59 95.9306 944.851 64.3273 944.851 57.6031C944.851 52.8963 962.383 35.1895 962.383 35.1895Z" fill="url(#paint23_linear_126_4839)"/>
<path d="M762.68 55.8114C757.749 55.8114 784.869 11.8805 784.869 11.8805L672.28 13.8977C672.28 13.8977 687.073 0.00124669 683.512 1.12193C679.676 2.01848 494.767 2.01848 494.767 2.01848V55.8114H762.68Z" fill="url(#paint24_linear_126_4839)"/>
<path d="M239.182 55.1374C239.182 55.1374 222.745 21.0686 223.567 18.8272C224.389 16.81 323.829 18.8272 323.829 18.8272L494.767 55.8098L239.182 55.1374Z" fill="#150E20"/>
<path d="M763.228 23.31C759.667 32.9478 748.983 55.1374 748.983 55.1374L526.818 55.8098H494.767H493.397L496.685 55.1374L664.062 18.8272C664.062 18.8272 763.502 16.81 764.598 18.8272C764.598 19.2755 764.05 20.8444 763.228 23.31Z" fill="#150E20"/>
<path d="M82.4875 377.672C82.4875 377.672 82.7614 340.689 82.7614 339.12C83.0354 337.775 87.4184 320.517 87.4184 320.517L92.8972 185.811V341.586L82.4875 377.672Z" fill="#150E20"/>
<path d="M92.8977 187.604C92.8977 187.604 73.722 173.707 73.4481 172.587C72.9002 171.69 82.214 146.587 82.214 146.587C82.214 146.587 92.8977 184.69 92.8977 187.604Z" fill="#343B54"/>
<path d="M81.1178 101.086L78.6523 81.1383L73.4475 82.0348C73.4475 82.0348 103.855 60.2935 105.498 59.1728C107.142 57.828 180.284 61.4142 180.284 61.4142C180.284 61.4142 110.155 61.6383 107.69 61.6383C105.225 61.6383 82.4874 76.4314 81.3917 77.5521C80.5698 78.4486 81.1178 101.086 81.1178 101.086Z" fill="#150E20"/>
<g style="mix-blend-mode:multiply" opacity="0.3">
<path d="M49.8889 95.2586C49.8889 95.2586 53.7241 62.5347 57.2853 60.2933C60.5726 57.8278 102.485 55.8105 102.485 55.8105C102.485 55.8105 68.5168 74.4139 49.8889 95.2586Z" fill="#742F6B"/>
</g>
<g style="mix-blend-mode:multiply" opacity="0.3">
<path d="M58.655 52.4473L78.1047 50.6542C78.1047 50.6542 54.5459 35.4129 49.8889 32.275C45.2319 29.1371 30.7131 24.2061 30.7131 24.2061C30.7131 24.2061 47.4235 45.9473 58.655 52.4473Z" fill="#742F6B"/>
</g>
<path d="M122.757 41.9141C122.757 41.9141 132.07 44.8279 149.055 45.5003C176.449 46.621 201.651 41.9141 201.651 41.9141H122.757Z" fill="#2B2F4C"/>
<path d="M67.6951 465.084C67.6951 465.084 130.701 515.066 147.412 521.791C164.122 528.739 489.289 528.066 489.289 528.066L137.55 527.842L67.6951 465.084Z" fill="#150E20"/>
<g style="mix-blend-mode:multiply" opacity="0.5">
<path d="M120.291 488.17C120.291 488.17 346.018 483.464 358.619 486.377C371.494 489.067 401.08 516.188 401.08 516.188L412.037 515.963C412.037 515.963 368.755 485.929 361.632 482.791C354.236 479.877 115.36 482.791 115.36 482.791L120.291 488.17Z" fill="#742F6B"/>
</g>
<g style="mix-blend-mode:multiply" opacity="0.5">
<path d="M869.791 488.17C869.791 488.17 644.065 483.464 631.463 486.377C618.588 489.067 589.277 516.188 589.277 516.188L578.045 515.963C578.045 515.963 621.328 485.929 628.724 482.791C636.12 479.877 874.722 482.791 874.722 482.791L869.791 488.17Z" fill="#742F6B"/>
</g>
<path d="M120.017 471.137C120.017 471.137 145.22 479.654 169.327 481.671C193.707 483.464 351.223 480.55 356.975 480.102C363.002 479.878 374.234 472.257 374.234 472.257L120.017 471.137Z" fill="#343B54"/>
<path d="M227.95 456.343C227.95 456.343 285.203 458.584 319.172 459.032C353.414 459.481 407.107 455.446 407.107 455.446L227.95 456.343Z" fill="#343B54"/>
<path d="M90.158 456.342C90.158 456.342 106.594 464.635 109.608 464.859C112.347 465.307 179.188 465.98 179.188 465.98C179.188 465.98 109.334 467.1 107.964 466.876C106.32 466.652 90.158 456.342 90.158 456.342Z" fill="#343B54"/>
<g style="mix-blend-mode:multiply" opacity="0.3">
<path d="M414.503 499.824C409.298 499.6 434.5 517.755 434.5 517.755H567.087C567.087 517.755 579.141 505.652 580.236 502.29C581.058 499.152 422.447 499.824 414.503 499.824Z" fill="#742F6B"/>
</g>
<path d="M413.681 493.102C413.681 493.102 426.009 496.688 494.768 496.688C563.527 496.688 579.689 493.102 579.689 493.102C579.689 493.102 492.302 494.895 413.681 493.102Z" fill="#343B54"/>
<path d="M147.96 516.187C147.96 516.187 132.893 523.359 258.084 521.566C383.274 519.773 413.681 516.187 413.681 516.187C413.681 516.187 167.135 521.566 147.96 516.187Z" fill="#343B54"/>
<path d="M48.7933 173.257C48.7933 173.257 60.5727 166.308 62.4903 164.964C64.4079 163.619 65.5036 140.309 65.5036 140.309V164.74C65.5036 164.74 50.4369 175.05 48.5193 181.774L48.7933 173.257Z" fill="#343B54"/>
<path d="M76.4609 175.498C76.4609 171.912 86.3227 176.171 87.6924 177.964C88.7882 179.757 89.61 185.36 89.61 185.36L76.4609 175.498Z" fill="#434A61"/>
<path d="M55.6414 308.411C55.6414 308.411 70.434 318.497 73.7213 321.411C77.0086 324.325 82.7613 328.359 82.7613 328.359C82.7613 328.359 75.3649 327.687 73.1734 326.566C70.708 325.67 55.6414 308.411 55.6414 308.411Z" fill="#434A61"/>
<path d="M53.1763 450.515C53.1763 450.515 64.6817 448.498 68.5168 449.395C72.0781 450.515 86.3229 456.343 86.3229 456.343C86.3229 456.343 63.312 455.671 53.1763 450.515Z" fill="#434A61"/>
<path d="M72.6262 183.12C72.6262 183.12 80.2967 192.086 83.0361 201.723C85.7755 211.361 80.2967 325.895 80.2967 325.895L72.9003 317.826L72.6262 183.12Z" fill="#150E20"/>
<path d="M79.7483 189.845C79.7483 189.845 83.3094 200.827 83.5834 206.207C83.8573 211.586 87.6925 292.051 87.6925 292.051C87.6925 292.051 90.158 215.844 90.9798 204.413C91.5277 193.207 84.9532 185.362 83.8574 184.689C82.7617 184.241 79.2004 184.689 79.7483 189.845Z" fill="#2B2F4C"/>
<path d="M906.772 377.672C906.772 377.672 906.772 340.689 906.498 339.12C906.498 337.775 901.841 320.517 901.841 320.517L896.637 185.811V341.586L906.772 377.672Z" fill="#150E20"/>
<path d="M896.637 187.604C896.637 187.604 915.539 173.707 916.087 172.587C916.361 171.69 907.047 146.587 907.047 146.587C907.047 146.587 896.363 184.69 896.637 187.604Z" fill="#343B54"/>
<path d="M912.799 175.498C912.799 171.912 902.938 176.171 901.568 177.964C900.472 179.757 899.65 185.36 899.65 185.36L912.799 175.498Z" fill="#434A61"/>
<path d="M916.635 183.12C916.635 183.12 908.965 192.086 906.225 201.723C903.486 211.361 908.965 325.895 908.965 325.895L916.361 317.826L916.635 183.12Z" fill="#150E20"/>
<path d="M909.512 189.845C909.512 189.845 905.951 200.827 905.677 206.207C905.403 211.586 901.568 292.051 901.568 292.051C901.568 292.051 899.103 215.844 898.555 204.413C897.733 193.207 904.307 185.362 905.403 184.689C906.499 184.241 910.06 184.689 909.512 189.845Z" fill="#2B2F4C"/>
<path d="M354.236 480.1C352.867 478.979 370.947 474.272 370.947 474.272C370.947 474.272 367.933 481.445 365.194 481.445C362.455 481.445 354.236 480.1 354.236 480.1Z" fill="#434A61"/>
<path d="M334.512 519.997C334.512 519.997 346.292 516.859 367.933 516.635C389.574 516.411 407.106 516.187 407.106 516.187C407.106 516.187 367.111 520.669 334.512 519.997Z" fill="#434A61"/>
<path d="M407.106 465.084C407.106 465.084 436.692 467.549 490.384 468.222C543.802 468.67 582.154 465.084 582.154 465.084C582.154 465.084 437.24 464.636 407.106 465.084Z" fill="#434A61"/>
<path d="M306.023 1.12019C306.023 1.12019 371.494 8.29258 494.767 8.29258C618.04 8.29258 683.512 1.12019 683.512 1.12019C683.512 1.12019 394.231 -1.34531 306.023 1.12019Z" fill="#343B54"/>
<path d="M204.665 11.8789L317.254 13.8961L341.361 17.9306C341.361 17.9306 255.07 17.9306 204.665 11.8789Z" fill="#343B54"/>
<path d="M784.87 11.8789L672.281 13.8961L646.53 19.0513C646.53 19.0513 755.01 15.6892 784.87 11.8789Z" fill="#343B54"/>
<path d="M578.045 515.964C578.045 515.964 806.785 518.878 840.754 517.085C840.754 517.085 796.649 519.55 709.536 519.55C622.149 519.55 578.045 515.964 578.045 515.964Z" fill="#343B54"/>
<path d="M648.721 516.859C648.721 516.859 666.801 519.773 708.44 519.549C750.079 519.325 759.941 517.532 759.941 517.532L648.721 516.859Z" fill="#434A61"/>
<path d="M611.466 471.137C611.466 471.137 633.655 481.223 640.23 481.447C647.078 481.895 862.395 482.119 869.243 481.447C875.818 480.999 891.98 471.137 891.98 471.137H611.466Z" fill="#343B54"/>
<path d="M618.862 474.273C621.054 472.48 656.666 479.877 656.666 479.877C656.666 479.877 629.82 482.342 627.08 481.446C624.341 480.549 618.862 474.273 618.862 474.273Z" fill="#434A61"/>
<path d="M576.676 455.447L766.79 456.567C766.79 456.567 646.804 452.533 576.676 455.447Z" fill="#434A61"/>
<path d="M906.773 328.36C906.773 328.36 911.978 320.291 916.909 316.705C921.566 312.894 939.098 301.688 939.098 301.688C939.098 301.688 919.922 323.653 918.005 325.894C916.087 328.136 906.773 328.36 906.773 328.36Z" fill="#434A61"/>
<path d="M913.347 455.447C913.347 455.447 919.1 450.516 926.496 450.067C934.167 449.395 937.454 450.067 937.454 450.067C937.454 450.067 918.552 457.016 913.347 455.447Z" fill="#434A61"/>
<path d="M731.452 528.963C731.452 528.963 842.397 522.912 852.807 518.205C863.217 513.498 941.29 447.602 941.29 447.602L851.711 527.843C851.711 527.843 767.338 528.067 731.452 528.963Z" fill="#150E20"/>
<g style="mix-blend-mode:multiply" opacity="0.3">
<path d="M911.978 50.4312C911.978 50.4312 927.866 52.4485 930.879 51.5519C933.893 50.4312 953.616 28.4658 953.616 28.4658C953.616 28.4658 939.098 29.3624 911.978 50.4312Z" fill="#742F6B"/>
</g>
<path d="M924.031 138.965C924.031 138.965 926.223 158.465 927.592 160.93C928.962 163.396 940.741 174.378 940.741 174.378V181.999C940.741 181.999 925.675 165.861 924.305 164.741C922.935 163.396 924.031 138.965 924.031 138.965Z" fill="#343B54"/>
<g style="mix-blend-mode:multiply" opacity="0.3">
<path d="M898.006 58.0502C898.006 58.0502 941.015 92.5673 941.837 92.7914C942.659 93.0156 941.015 57.1537 939.097 57.1537C937.18 56.9295 898.006 58.0502 898.006 58.0502Z" fill="#742F6B"/>
</g>
<path d="M787.883 41.9141C787.883 41.9141 810.346 43.483 830.891 44.1554C851.437 45.052 871.434 41.9141 871.434 41.9141H787.883Z" fill="#2B2F4C"/>
<g style="mix-blend-mode:multiply" opacity="0.5">
<path d="M763.228 23.31C755.558 19.0513 690.908 21.741 667.623 23.31C645.434 24.6548 534.214 53.7926 526.818 55.8098C526.635 55.8098 526.544 55.8098 526.544 55.8098H494.767C494.767 55.8098 495.406 55.5857 496.685 55.1374L664.062 18.8272C664.062 18.8272 763.502 16.81 764.598 18.8272C764.598 19.2755 764.05 20.8444 763.228 23.31Z" fill="#742F6B"/>
</g>
<g style="mix-blend-mode:multiply" opacity="0.5">
<path d="M224.663 23.31C232.333 19.0513 296.983 21.741 320.268 23.31C342.731 24.6548 453.951 53.7926 461.347 55.8098C461.53 55.8098 461.621 55.8098 461.621 55.8098H493.398C493.398 55.8098 492.759 55.5857 491.48 55.1374L323.829 18.8272C323.829 18.8272 224.389 16.81 223.567 18.8272C223.293 19.2755 223.841 20.8444 224.663 23.31Z" fill="#742F6B"/>
</g>
<path d="M239.181 55.1384L493.397 55.8108C493.397 55.8108 341.909 48.6384 239.181 55.1384Z" fill="#434A61"/>
<path d="M495.589 55.8098L748.983 55.1374C748.983 55.1374 632.559 49.9823 495.589 55.8098Z" fill="#434A61"/>
<g style="mix-blend-mode:soft-light" opacity="0.5">
<path d="M412.037 490.41C394.779 487.497 441.623 472.479 506.547 473.152C571.47 473.6 578.045 487.497 578.045 490.41C578.045 493.324 445.732 496.014 412.037 490.41Z" fill="#15FFFF"/>
</g>
<g style="mix-blend-mode:soft-light" opacity="0.5">
<path d="M58.655 414.653C56.1895 403.67 64.1337 368.929 67.1471 362.429C70.1604 356.153 68.7908 425.86 68.7908 425.86C68.7908 425.86 59.7508 419.584 58.655 414.653Z" fill="#15FFFF"/>
</g>
<g style="mix-blend-mode:soft-light" opacity="0.5">
<path d="M920.744 425.86C920.744 425.86 922.113 359.516 922.113 357.274C922.387 355.033 934.715 395.826 931.701 410.843C928.962 426.084 920.744 425.86 920.744 425.86Z" fill="#15FFFF"/>
</g>
<g style="mix-blend-mode:soft-light" opacity="0.5">
<path d="M947.316 93.9125C947.316 93.9125 945.672 64.3264 947.316 58.9471C949.234 53.3437 961.013 47.292 961.013 47.292C961.013 47.292 961.287 66.3436 960.465 73.7402C959.643 81.1367 947.316 93.9125 947.316 93.9125Z" fill="#15FFFF"/>
</g>
<g style="mix-blend-mode:soft-light" opacity="0.5">
<path d="M41.9445 95.9294C41.9445 95.9294 30.1651 77.7743 29.8911 71.2743C29.6172 64.7744 32.0826 51.7744 32.0826 51.7744C32.0826 51.7744 41.3966 61.1882 43.0402 71.2743C44.9578 81.3605 41.9445 95.9294 41.9445 95.9294Z" fill="#15FFFF"/>
</g>
<path d="M220.005 59.1729C220.005 59.1729 229.867 67.2418 230.689 67.2418C231.511 67.2418 404.641 67.9142 406.832 67.2418C409.024 66.5694 416.968 59.1729 416.968 59.1729H220.005Z" fill="#F64AD1"/>
<path d="M225.21 61.1885C225.21 61.1885 230.963 66.5678 232.059 67.016C233.155 67.2402 401.08 67.016 402.997 67.016C405.189 67.016 410.942 61.1885 410.942 61.1885H225.21Z" fill="url(#paint25_linear_126_4839)"/>
<path d="M230.689 67.2401C230.689 67.2401 236.442 61.8608 309.036 61.1884C381.904 60.516 404.367 67.4642 404.367 67.4642L230.689 67.2401Z" fill="url(#paint26_linear_126_4839)"/>
<path d="M573.388 59.1729C573.388 59.1729 583.249 67.2418 584.071 67.2418C584.893 67.2418 758.023 67.9142 760.215 67.2418C762.406 66.5694 770.35 59.1729 770.35 59.1729H573.388Z" fill="#F64AD1"/>
<path d="M578.593 61.1885C578.593 61.1885 584.346 66.5678 585.442 67.016C586.537 67.2402 754.462 67.016 756.38 67.016C758.572 67.016 764.324 61.1885 764.324 61.1885H578.593Z" fill="url(#paint27_linear_126_4839)"/>
<path d="M584.072 67.2401C584.072 67.2401 589.825 61.8608 662.419 61.1884C735.287 60.516 757.75 67.4642 757.75 67.4642L584.072 67.2401Z" fill="url(#paint28_linear_126_4839)"/>
<path d="M147.412 478.307C144.946 478.756 133.441 481.67 133.441 481.67L183.298 482.118C183.298 482.118 151.521 477.859 147.412 478.307Z" fill="#555B70"/>
<path d="M349.853 4.48415C349.853 4.48415 404.367 8.96689 421.626 8.29448C439.158 7.8462 481.344 7.62207 481.344 7.62207C481.344 7.62207 407.381 0.449684 349.853 4.48415Z" fill="#555B70"/>
<path d="M785.143 481.894C785.143 481.894 807.332 478.98 818.838 477.86C830.617 476.739 859.107 481.894 859.107 481.894H785.143Z" fill="#555B70"/>
<path d="M72.6259 129.102C69.8865 128.43 68.7907 136.947 72.6259 142.998C76.1871 148.826 79.2005 130.671 72.6259 129.102Z" fill="#150E20"/>
<g style="mix-blend-mode:multiply" opacity="0.5">
<path d="M70.4342 135.378C71.8039 140.085 75.6392 139.637 76.1871 136.947C77.0089 134.034 75.0913 128.654 72.3519 129.103C69.3385 129.551 70.4342 135.378 70.4342 135.378Z" fill="#BE2F55"/>
</g>
<path d="M70.9822 139.638C70.9822 136.725 74.2695 139.638 75.6392 139.414C77.0089 139.414 76.1871 144.345 74.2695 144.121C72.6259 143.673 70.9822 139.638 70.9822 139.638Z" fill="#434A61"/>
<path d="M622.697 1.79297C619.958 1.79297 617.766 6.49985 620.505 9.41363C623.245 12.1033 628.724 2.01711 622.697 1.79297Z" fill="#150E20"/>
<g style="mix-blend-mode:multiply" opacity="0.5">
<path d="M619.684 5.37835C620.232 7.84386 623.793 7.17144 624.889 5.60248C625.984 4.25766 625.163 1.34389 622.423 2.0163C619.41 2.46457 619.684 5.37835 619.684 5.37835Z" fill="#BE2F55"/>
</g>
<path d="M619.41 7.62098C619.958 6.05202 622.697 7.39684 624.067 7.1727C625.436 6.94856 623.793 9.86234 622.149 9.86234C620.505 9.63821 619.41 7.62098 619.41 7.62098Z" fill="#434A61"/>
<path d="M72.9001 366.016C70.1607 365.344 69.0649 373.637 72.9001 379.688C76.7352 385.74 79.4746 367.361 72.9001 366.016Z" fill="#150E20"/>
<g style="mix-blend-mode:multiply" opacity="0.5">
<path d="M70.7086 372.291C72.0783 376.998 75.9134 376.55 76.4613 373.636C77.2831 370.946 75.3655 365.343 72.6261 365.791C69.8867 366.463 70.7086 372.291 70.7086 372.291Z" fill="#BE2F55"/>
</g>
<path d="M71.2563 376.326C71.2563 373.412 74.5437 376.326 75.9134 376.326C77.2831 376.102 76.4612 381.257 74.5437 380.809C72.9 380.585 71.2563 376.326 71.2563 376.326Z" fill="#434A61"/>
<path d="M942.659 41.9139C940.468 40.5691 935.263 44.1553 935.537 48.4139C935.81 52.4484 947.59 45.0518 942.659 41.9139Z" fill="#150E20"/>
<g style="mix-blend-mode:multiply" opacity="0.5">
<path d="M937.454 44.1547C936.358 46.8443 939.92 47.965 941.837 46.8443C943.755 45.7237 945.124 42.5857 942.385 41.6892C939.646 41.0168 937.454 44.1547 937.454 44.1547Z" fill="#BE2F55"/>
</g>
<path d="M935.811 46.1725C937.181 44.8277 938.55 47.2932 939.92 47.7415C941.29 48.1897 938.002 50.4311 936.633 49.5345C935.263 48.8621 935.811 46.1725 935.811 46.1725Z" fill="#434A61"/>
<path d="M588.181 459.032C583.524 459.928 613.658 460.825 624.615 459.928C635.847 459.032 593.66 457.911 588.181 459.032Z" fill="#555B70"/>
<path d="M370.672 458.137C370.672 458.137 379.164 459.706 388.478 458.137C397.792 456.792 370.672 458.137 370.672 458.137Z" fill="#555B70"/>
<path d="M914.444 192.086C914.444 192.086 909.512 200.155 909.512 202.396C909.512 204.638 910.334 316.93 910.334 316.93C910.334 316.93 913.074 310.43 914.444 307.516C915.539 304.603 914.444 192.086 914.444 192.086Z" fill="#F64AD1"/>
<path d="M912.526 195.223C912.526 195.223 914.717 283.533 913.347 310.205L910.334 316.929C910.334 316.929 909.238 203.74 909.512 202.395C909.786 201.05 912.526 195.223 912.526 195.223Z" fill="url(#paint29_linear_126_4839)"/>
<path d="M75.9127 192.086C75.9127 192.086 80.5697 200.155 80.5697 202.396C80.5697 204.638 79.7479 316.93 79.7479 316.93C79.7479 316.93 77.0085 310.43 75.9127 307.516C74.543 304.603 75.9127 192.086 75.9127 192.086Z" fill="#F64AD1"/>
<path d="M77.5566 195.223C77.5566 195.223 75.3651 283.533 77.0087 310.205L79.7481 316.929C79.7481 316.929 80.8439 203.74 80.5699 202.395C80.296 201.05 77.5566 195.223 77.5566 195.223Z" fill="url(#paint30_linear_126_4839)"/>
<path d="M873.626 508.119C873.626 508.119 897.459 520.446 899.376 520.895C904.307 522.239 954.164 499.826 954.164 499.826L913.621 472.257L873.626 508.119Z" fill="url(#paint31_linear_126_4839)"/>
<g style="mix-blend-mode:multiply" opacity="0.5">
<path d="M920.196 476.74C920.196 476.74 884.31 502.964 883.488 504.757C882.392 506.326 900.198 514.17 903.211 514.395C906.225 514.395 954.164 499.826 954.164 499.826C954.164 499.826 903.212 521.119 900.198 520.895C897.459 520.895 873.626 508.119 873.626 508.119L913.621 472.257L920.196 476.74Z" fill="#742F6B"/>
</g>
<path d="M893.624 511.032C887.323 506.998 886.501 504.308 892.802 498.256C899.103 492.205 945.672 499.825 945.672 499.825C945.672 499.825 906.773 515.291 903.212 514.394C899.65 513.274 893.624 511.032 893.624 511.032Z" fill="#202347"/>
<path d="M890.885 509.014C890.885 509.014 893.624 509.238 896.637 510.134C899.377 510.807 899.925 513.272 899.925 513.272C899.925 513.272 892.254 510.583 890.885 509.014Z" fill="#555B70"/>
<path d="M116.456 508.119C116.456 508.119 92.6233 520.446 90.7057 520.895C85.7748 522.239 35.9177 499.826 35.9177 499.826L76.4608 472.257L116.456 508.119Z" fill="url(#paint32_linear_126_4839)"/>
<g style="mix-blend-mode:multiply" opacity="0.5">
<path d="M69.8862 476.74C69.8862 476.74 105.498 502.964 106.594 504.757C107.69 506.326 89.8838 514.17 86.8705 514.395C83.8571 514.395 35.9177 499.826 35.9177 499.826C35.9177 499.826 86.8705 521.119 89.6099 520.895C92.6232 520.895 116.456 508.119 116.456 508.119L76.4608 472.257L69.8862 476.74Z" fill="#742F6B"/>
</g>
<path d="M96.4587 511.032C102.759 506.998 103.581 504.308 97.2805 498.256C90.706 492.205 44.4102 499.825 44.4102 499.825C44.4102 499.825 83.3096 515.291 86.8708 514.394C90.4321 513.274 96.4587 511.032 96.4587 511.032Z" fill="#202347"/>
<path d="M99.1979 509.014C99.1979 509.014 96.4586 509.238 93.4453 510.134C90.7059 510.807 90.158 513.272 90.158 513.272C90.158 513.272 97.5543 510.583 99.1979 509.014Z" fill="#555B70"/>
<g style="mix-blend-mode:multiply" opacity="0.3">
<path d="M495.589 52.8975C484.632 54.0182 544.077 12.5528 564.074 9.86319C584.346 6.94941 618.314 5.82872 619.136 9.86319C620.232 13.8977 628.998 7.17354 628.998 7.17354L675.294 4.25977C675.294 4.25977 669.815 10.7597 668.445 12.777C667.075 15.0183 524.627 50.2078 495.589 52.8975Z" fill="#742F6B"/>
</g>
<g style="mix-blend-mode:multiply" opacity="0.5">
<path d="M49.8889 152.19C49.8889 152.19 53.1763 118.345 55.6418 114.311C58.1072 110.052 66.3253 103.552 66.3253 103.552V91.2246C66.3253 91.2246 55.3678 106.69 52.9024 113.414C50.163 120.138 49.8889 152.19 49.8889 152.19Z" fill="#742F6B"/>
</g>
<g style="mix-blend-mode:multiply" opacity="0.5">
<path d="M923.757 123.276C923.757 123.276 925.675 106.242 927.866 106.242C930.058 106.242 934.167 120.587 935.811 124.845C937.181 129.104 939.372 147.707 939.372 147.707C939.372 147.707 938.276 116.552 936.359 112.518C934.715 108.483 923.209 91.2246 923.209 91.2246L923.757 123.276Z" fill="#742F6B"/>
</g>
<g style="mix-blend-mode:soft-light">
<path d="M241.647 52.4487C238.086 49.7591 231.237 29.8109 235.073 26.2247C239.182 22.4144 308.762 35.8626 317.528 40.1212C326.295 44.604 303.558 49.7591 298.353 50.6556C293.148 51.5522 241.647 52.4487 241.647 52.4487Z" fill="#969AA7"/>
<path d="M280.272 23.9828C278.355 23.9828 301.914 35.1897 329.856 39C358.071 42.5862 361.085 34.7414 361.085 34.7414C361.085 34.7414 304.653 23.5346 280.272 23.9828Z" fill="#969AA7"/>
<path d="M354.51 9.41406C339.169 10.5347 364.098 25.5519 393.683 30.9312C422.995 36.5346 412.037 16.1382 407.928 13.4485C403.545 10.7589 354.51 9.41406 354.51 9.41406Z" fill="#969AA7"/>
<path d="M713.919 515.964C708.988 515.292 767.338 489.292 797.745 491.085C827.878 493.102 822.126 508.792 822.126 508.792C822.126 508.792 757.75 522.688 713.919 515.964Z" fill="#969AA7"/>
<path d="M737.752 489.739C726.521 496.015 750.079 495.791 757.202 491.084C764.324 486.377 745.97 485.033 737.752 489.739Z" fill="#969AA7"/>
<path d="M161.109 512.378C150.151 518.654 173.71 518.43 180.832 513.723C187.681 509.016 169.327 507.671 161.109 512.378Z" fill="#969AA7"/>
<path d="M296.435 475.395C285.477 481.895 309.036 481.671 316.158 476.964C323.007 472.257 304.927 470.688 296.435 475.395Z" fill="#969AA7"/>
<path d="M624.067 470.913C616.671 468.447 658.036 459.033 674.198 458.137C690.361 457.464 708.167 470.913 708.167 470.913H624.067Z" fill="#969AA7"/>
<path d="M341.361 466.653C335.334 471.36 352.045 468.671 364.098 466.653C375.877 464.412 343.005 465.308 341.361 466.653Z" fill="#969AA7"/>
<path d="M335.882 516.859C328.486 516.859 361.906 502.962 372.59 503.859C383.274 504.756 386.835 513.497 384.917 515.066C383 516.411 335.882 516.859 335.882 516.859Z" fill="#969AA7"/>
<path d="M70.9823 84.0518C68.2429 87.4139 70.9823 116.552 72.8999 121.707C75.0914 126.862 80.5702 134.034 80.5702 134.034C80.5702 134.034 77.8308 86.5173 76.4611 84.0518C75.0914 81.8105 70.9823 84.0518 70.9823 84.0518Z" fill="#969AA7"/>
<path d="M87.6922 67.0176C80.8437 71.9486 87.9662 72.1727 92.8971 65.6728C97.5541 58.9486 87.6922 67.0176 87.6922 67.0176Z" fill="#969AA7"/>
<path d="M726.52 31.8274C704.879 40.3446 733.643 45.4998 747.34 36.9826C761.037 28.4654 733.917 29.1378 726.52 31.8274Z" fill="#969AA7"/>
<path d="M738.847 46.1733C733.642 51.5526 742.408 49.7595 746.244 46.1733C749.805 42.8113 740.765 44.3802 738.847 46.1733Z" fill="#969AA7"/>
</g>
<g style="mix-blend-mode:multiply" opacity="0.5">
<path d="M517.504 518.206C511.477 514.395 530.105 505.878 544.898 504.533C559.691 503.188 562.156 513.499 557.773 517.533C553.39 521.568 520.791 520.447 517.504 518.206Z" fill="#742F6B"/>
</g>
<g style="mix-blend-mode:multiply" opacity="0.5">
<path d="M518.6 518.654C515.039 516.861 526.544 507.895 542.159 506.326C557.774 504.533 559.417 511.033 559.417 511.033C559.417 511.033 558.869 504.085 546.542 504.309C534.215 504.757 522.983 510.585 518.6 513.499C513.943 516.412 518.6 518.654 518.6 518.654Z" fill="#742F6B"/>
</g>
<path d="M520.792 519.325C520.792 519.325 535.036 520.222 545.172 519.325C555.582 518.205 558.595 516.636 558.595 516.636C558.595 516.636 557.226 518.877 550.925 520.222C544.624 521.791 523.805 520.222 520.792 519.325Z" fill="#343B54"/>
<g style="mix-blend-mode:multiply" opacity="0.5">
<path d="M449.019 517.309C445.732 513.723 446.554 505.654 449.293 504.309C452.307 503.188 457.512 512.826 458.333 516.636C458.881 520.447 450.663 519.55 449.019 517.309Z" fill="#742F6B"/>
</g>
<g style="mix-blend-mode:multiply" opacity="0.5">
<path d="M449.293 517.756C447.924 515.963 446.554 507.669 449.567 506.1C452.581 504.532 455.868 510.583 455.868 510.583C455.868 510.583 452.581 504.083 449.841 504.307C446.828 504.532 446.828 510.135 447.102 512.825C447.376 515.514 449.293 517.756 449.293 517.756Z" fill="#742F6B"/>
</g>
<path d="M450.115 518.205C450.115 518.205 453.95 519.102 456.141 518.205C458.059 517.309 458.059 515.964 458.059 515.964C458.059 515.964 458.607 517.981 457.785 519.326C456.963 520.671 451.211 519.102 450.115 518.205Z" fill="#343B54"/>
<g style="mix-blend-mode:multiply" opacity="0.5">
<path d="M597.221 24.4308C593.933 20.6205 594.755 12.7757 597.769 11.4309C600.508 10.3102 605.713 19.9481 606.535 23.7584C607.083 27.5687 599.138 26.4481 597.221 24.4308Z" fill="#742F6B"/>
</g>
<g style="mix-blend-mode:multiply" opacity="0.5">
<path d="M597.495 24.8798C596.125 23.0867 594.755 14.7937 597.769 13.2247C600.782 11.6558 604.069 17.7075 604.069 17.7075C604.069 17.7075 600.782 10.9833 598.043 11.4316C595.029 11.6558 595.029 17.035 595.303 19.9488C595.577 22.6385 597.495 24.8798 597.495 24.8798Z" fill="#742F6B"/>
</g>
<path d="M598.316 25.3273C598.316 25.3273 602.152 26.2239 604.343 25.3273C606.261 24.4308 606.261 23.0859 606.261 23.0859C606.261 23.0859 606.809 25.1032 605.987 26.448C605.165 27.7928 599.412 26.2239 598.316 25.3273Z" fill="#343B54"/>
<path d="M109.607 464.86C109.607 464.86 102.211 470.463 99.1975 470.912C96.1842 471.36 102.759 496.687 102.759 496.687L98.3758 491.98C98.3758 491.98 97.2801 475.17 96.7322 470.015C96.1843 465.084 96.7321 468.446 101.663 467.774C106.594 467.101 108.238 464.636 108.238 464.636L109.607 464.86Z" fill="#0E071A"/>
<path d="M100.02 484.136C100.02 484.136 99.1981 473.601 99.746 472.705C101.116 470.015 104.403 468.446 104.403 468.446C104.403 468.446 100.568 470.015 99.4721 470.688C98.1024 471.36 99.198 480.326 100.02 484.136Z" fill="#343B54"/>
<path d="M317.254 13.8965C317.254 13.8965 362.728 16.1379 373.412 15.0172C384.095 13.6724 409.024 10.7586 416.968 8.29307C424.912 6.0517 453.676 0 453.676 0H448.471C448.471 0 391.492 4.93102 415.598 7.62066C412.311 9.41376 383.821 11.8793 368.481 13.4482C352.866 15.2413 317.254 13.8965 317.254 13.8965Z" fill="#0E071A"/>
<path d="M376.425 14.5689C376.425 14.5689 401.354 12.9999 406.011 11.8792C410.942 10.9827 420.256 7.39648 420.256 7.39648C420.256 7.39648 415.873 8.51717 411.49 9.63785C406.833 10.5344 390.67 13.224 376.425 14.5689Z" fill="#343B54"/>
<path d="M324.103 14.1201C324.103 14.1201 334.786 17.4822 336.704 17.258C338.621 17.0339 354.784 15.2408 354.784 15.2408C354.784 15.2408 334.512 15.0167 324.103 14.1201Z" fill="#343B54"/>
<path d="M366.563 481.445L436.144 528.066L558.595 528.29L627.08 481.445C627.08 481.445 559.691 523.135 554.212 524.704C548.733 526.049 443.54 526.273 436.692 524.704C429.843 522.911 366.563 481.445 366.563 481.445Z" fill="#F64AD1"/>
<path d="M123.579 491.758H144.946L163.848 510.361H142.48L123.579 491.758Z" fill="#F64AD1"/>
<path d="M866.504 491.758H845.136L826.234 510.361H847.602L866.504 491.758Z" fill="#F64AD1"/>
<g style="mix-blend-mode:multiply" opacity="0.5">
<path d="M826.782 510.361C826.782 510.361 842.397 497.585 846.232 496.016C850.341 494.447 862.668 495.568 862.668 495.568L866.504 491.758H845.136L826.234 510.361H826.782Z" fill="#742F6B"/>
</g>
<g style="mix-blend-mode:multiply" opacity="0.5">
<path d="M163.3 510.361C163.3 510.361 147.685 497.585 143.85 496.016C139.741 494.447 127.414 495.568 127.414 495.568L123.579 491.758H144.946L163.848 510.361H163.3Z" fill="#742F6B"/>
</g>
<path d="M93.9929 519.326L135.906 526.274L116.456 508.119C116.456 508.119 100.02 511.705 93.9929 519.326Z" fill="url(#paint33_linear_126_4839)"/>
<path d="M895.541 519.326L853.903 526.274L873.078 508.119C873.078 508.119 889.515 511.705 895.541 519.326Z" fill="url(#paint34_linear_126_4839)"/>
<g style="mix-blend-mode:screen" opacity="0.33">
<path d="M103.581 374.983C104.677 404.345 86.0486 428.551 61.9419 429.224C37.8351 429.672 17.5636 406.362 16.7418 377.224C15.646 347.862 34.2739 323.655 58.1066 322.983C82.2133 322.535 102.485 345.845 103.581 374.983Z" fill="url(#paint35_radial_126_4839)"/>
</g>
<g style="mix-blend-mode:screen">
<path d="M970.053 375.204C970.875 404.342 952.247 428.549 928.414 429.221C904.307 429.67 884.036 406.584 883.214 377.222C882.118 347.86 900.746 323.653 924.579 323.205C948.686 322.532 968.957 345.842 970.053 375.204Z" fill="url(#paint36_radial_126_4839)"/>
</g>
<g style="mix-blend-mode:screen">
<path d="M654.2 489.29C654.474 495.566 582.428 502.514 493.671 504.532C404.641 506.549 332.595 503.187 332.321 496.911C332.047 490.635 404.093 483.911 492.85 481.67C581.606 479.652 653.926 483.015 654.2 489.29Z" fill="url(#paint37_radial_126_4839)"/>
</g>
<g style="mix-blend-mode:screen">
<path d="M71.53 67.9126C72.3518 92.1194 57.2851 112.068 37.2875 112.516C17.5638 112.964 0.853357 93.6883 0.0315369 69.7056C-0.790283 45.4989 14.5504 25.5507 34.274 25.1024C53.9977 24.6541 70.7081 43.9299 71.53 67.9126Z" fill="url(#paint38_radial_126_4839)"/>
</g>
<g style="mix-blend-mode:screen">
<path d="M991.968 67.9126C992.79 92.1194 977.723 112.068 957.725 112.516C938.002 112.964 921.291 93.6883 920.47 69.7056C919.648 45.4989 934.988 25.5507 954.712 25.1024C974.436 24.6541 991.146 43.9299 991.968 67.9126Z" fill="url(#paint39_radial_126_4839)"/>
</g>
<defs>
<linearGradient id="paint0_linear_126_4839" x1="34650.7" y1="-133467" x2="34650.7" y2="-165615" gradientUnits="userSpaceOnUse">
<stop stop-color="#211732"/>
<stop offset="1" stop-color="#2A2A45"/>
</linearGradient>
<linearGradient id="paint1_linear_126_4839" x1="35226.8" y1="-165615" x2="35226.8" y2="-197753" gradientUnits="userSpaceOnUse">
<stop stop-color="#211732"/>
<stop offset="1" stop-color="#2A2A45"/>
</linearGradient>
<linearGradient id="paint2_linear_126_4839" x1="-73501.1" y1="133995" x2="-73501.1" y2="166142" gradientUnits="userSpaceOnUse">
<stop stop-color="#211732"/>
<stop offset="1" stop-color="#2A2A45"/>
</linearGradient>
<linearGradient id="paint3_linear_126_4839" x1="-72925" y1="166142" x2="-72925" y2="198280" gradientUnits="userSpaceOnUse">
<stop stop-color="#211732"/>
<stop offset="1" stop-color="#2A2A45"/>
</linearGradient>
<linearGradient id="paint4_linear_126_4839" x1="114881" y1="-50934.8" x2="114881" y2="-64203.7" gradientUnits="userSpaceOnUse">
<stop stop-color="#211732"/>
<stop offset="1" stop-color="#2A2A45"/>
</linearGradient>
<linearGradient id="paint5_linear_126_4839" x1="115350" y1="-64203.7" x2="115350" y2="-77472.6" gradientUnits="userSpaceOnUse">
<stop stop-color="#211732"/>
<stop offset="1" stop-color="#2A2A45"/>
</linearGradient>
<linearGradient id="paint6_linear_126_4839" x1="5588.87" y1="-97670.7" x2="5588.87" y2="-99506.8" gradientUnits="userSpaceOnUse">
<stop stop-color="#211732"/>
<stop offset="1" stop-color="#2A2A45"/>
</linearGradient>
<linearGradient id="paint7_linear_126_4839" x1="8389.56" y1="-9238.75" x2="8389.56" y2="-9799.79" gradientUnits="userSpaceOnUse">
<stop stop-color="#211732"/>
<stop offset="1" stop-color="#2A2A45"/>
</linearGradient>
<linearGradient id="paint8_linear_126_4839" x1="5277.34" y1="-79858.8" x2="5277.34" y2="-84063.6" gradientUnits="userSpaceOnUse">
<stop stop-color="#211732"/>
<stop offset="1" stop-color="#2A2A45"/>
</linearGradient>
<linearGradient id="paint9_linear_126_4839" x1="2584.88" y1="-80637" x2="2584.88" y2="-82152.1" gradientUnits="userSpaceOnUse">
<stop stop-color="#211732"/>
<stop offset="1" stop-color="#2A2A45"/>
</linearGradient>
<linearGradient id="paint10_linear_126_4839" x1="2026.37" y1="-63090.3" x2="2026.37" y2="-63553.3" gradientUnits="userSpaceOnUse">
<stop stop-color="#FF42E3"/>
<stop offset="1" stop-color="#FF29AD"/>
</linearGradient>
<linearGradient id="paint11_linear_126_4839" x1="9678.52" y1="-7158.03" x2="9678.52" y2="-7301.79" gradientUnits="userSpaceOnUse">
<stop stop-color="#FF42E3"/>
<stop offset="1" stop-color="#FF29AD"/>
</linearGradient>
<linearGradient id="paint12_linear_126_4839" x1="9654.11" y1="-7164.84" x2="9654.11" y2="-7306.43" gradientUnits="userSpaceOnUse">
<stop stop-color="#FF42E3"/>
<stop offset="1" stop-color="#FF29AD"/>
</linearGradient>
<linearGradient id="paint13_linear_126_4839" x1="60525.9" y1="-15416.3" x2="60525.9" y2="-17141.9" gradientUnits="userSpaceOnUse">
<stop stop-color="#FF42E3"/>
<stop offset="1" stop-color="#FF29AD"/>
</linearGradient>
<linearGradient id="paint14_linear_126_4839" x1="1155.61" y1="-37932" x2="1155.61" y2="-38321.7" gradientUnits="userSpaceOnUse">
<stop stop-color="#FF42E3"/>
<stop offset="1" stop-color="#FF29AD"/>
</linearGradient>
<linearGradient id="paint15_linear_126_4839" x1="17009" y1="-37800.6" x2="17009" y2="-43616.7" gradientUnits="userSpaceOnUse">
<stop stop-color="#211732"/>
<stop offset="1" stop-color="#2A2A45"/>
</linearGradient>
<linearGradient id="paint16_linear_126_4839" x1="7575.67" y1="-147058" x2="7575.67" y2="-148894" gradientUnits="userSpaceOnUse">
<stop stop-color="#211732"/>
<stop offset="1" stop-color="#2A2A45"/>
</linearGradient>
<linearGradient id="paint17_linear_126_4839" x1="9036.71" y1="-12564" x2="9036.71" y2="-13125" gradientUnits="userSpaceOnUse">
<stop stop-color="#211732"/>
<stop offset="1" stop-color="#2A2A45"/>
</linearGradient>
<linearGradient id="paint18_linear_126_4839" x1="6425.04" y1="-120798" x2="6425.04" y2="-125002" gradientUnits="userSpaceOnUse">
<stop stop-color="#211732"/>
<stop offset="1" stop-color="#2A2A45"/>
</linearGradient>
<linearGradient id="paint19_linear_126_4839" x1="4224.17" y1="-121648" x2="4224.17" y2="-123163" gradientUnits="userSpaceOnUse">
<stop stop-color="#211732"/>
<stop offset="1" stop-color="#2A2A45"/>
</linearGradient>
<linearGradient id="paint20_linear_126_4839" x1="4072.97" y1="-94608" x2="4072.97" y2="-95069.3" gradientUnits="userSpaceOnUse">
<stop stop-color="#FF42E3"/>
<stop offset="1" stop-color="#FF29AD"/>
</linearGradient>
<linearGradient id="paint21_linear_126_4839" x1="10195.3" y1="-9207.93" x2="10195.3" y2="-9352.79" gradientUnits="userSpaceOnUse">
<stop stop-color="#FF42E3"/>
<stop offset="1" stop-color="#FF29AD"/>
</linearGradient>
<linearGradient id="paint22_linear_126_4839" x1="10109.1" y1="-8940.58" x2="10109.1" y2="-9082.17" gradientUnits="userSpaceOnUse">
<stop stop-color="#FF42E3"/>
<stop offset="1" stop-color="#FF29AD"/>
</linearGradient>
<linearGradient id="paint23_linear_126_4839" x1="2388.62" y1="-58331.3" x2="2388.62" y2="-58721" gradientUnits="userSpaceOnUse">
<stop stop-color="#FF42E3"/>
<stop offset="1" stop-color="#FF29AD"/>
</linearGradient>
<linearGradient id="paint24_linear_126_4839" x1="17314.5" y1="-43616.7" x2="17314.5" y2="-49432.8" gradientUnits="userSpaceOnUse">
<stop stop-color="#211732"/>
<stop offset="1" stop-color="#2A2A45"/>
</linearGradient>
<linearGradient id="paint25_linear_126_4839" x1="228.498" y1="63.8786" x2="412.032" y2="62.2045" gradientUnits="userSpaceOnUse">
<stop stop-color="#FF42E3"/>
<stop offset="1" stop-color="#FF29AD"/>
</linearGradient>
<linearGradient id="paint26_linear_126_4839" x1="121603" y1="595.921" x2="132614" y2="595.921" gradientUnits="userSpaceOnUse">
<stop stop-color="#FF42E3"/>
<stop offset="1" stop-color="#FF29AD"/>
</linearGradient>
<linearGradient id="paint27_linear_126_4839" x1="581.88" y1="63.8786" x2="765.415" y2="62.2045" gradientUnits="userSpaceOnUse">
<stop stop-color="#FF42E3"/>
<stop offset="1" stop-color="#FF29AD"/>
</linearGradient>
<linearGradient id="paint28_linear_126_4839" x1="121956" y1="595.921" x2="132968" y2="595.921" gradientUnits="userSpaceOnUse">
<stop stop-color="#FF42E3"/>
<stop offset="1" stop-color="#FF29AD"/>
</linearGradient>
<linearGradient id="paint29_linear_126_4839" x1="-1075.5" y1="-114924" x2="-1075.5" y2="-115117" gradientUnits="userSpaceOnUse">
<stop stop-color="#FF42E3"/>
<stop offset="1" stop-color="#FF29AD"/>
</linearGradient>
<linearGradient id="paint30_linear_126_4839" x1="3292.56" y1="-77901.1" x2="3292.56" y2="-78088.5" gradientUnits="userSpaceOnUse">
<stop stop-color="#FF42E3"/>
<stop offset="1" stop-color="#FF29AD"/>
</linearGradient>
<linearGradient id="paint31_linear_126_4839" x1="22468.1" y1="-44968.1" x2="22468.1" y2="-46400.7" gradientUnits="userSpaceOnUse">
<stop stop-color="#211732"/>
<stop offset="1" stop-color="#2A2A45"/>
</linearGradient>
<linearGradient id="paint32_linear_126_4839" x1="21674.5" y1="-30066.5" x2="21674.5" y2="-31499.2" gradientUnits="userSpaceOnUse">
<stop stop-color="#211732"/>
<stop offset="1" stop-color="#2A2A45"/>
</linearGradient>
<linearGradient id="paint33_linear_126_4839" x1="11956.9" y1="-11285.1" x2="11956.9" y2="-11563.6" gradientUnits="userSpaceOnUse">
<stop stop-color="#FF42E3"/>
<stop offset="1" stop-color="#FF29AD"/>
</linearGradient>
<linearGradient id="paint34_linear_126_4839" x1="12728.6" y1="-16334.4" x2="12728.6" y2="-16611.1" gradientUnits="userSpaceOnUse">
<stop stop-color="#FF42E3"/>
<stop offset="1" stop-color="#FF29AD"/>
</linearGradient>
<radialGradient id="paint35_radial_126_4839" cx="0" cy="0" r="1" gradientUnits="userSpaceOnUse" gradientTransform="translate(60.1613 376.103) rotate(90) scale(53.1268 43.4655)">
<stop stop-color="#FF61C8"/>
<stop offset="1" stop-opacity="0"/>
</radialGradient>
<radialGradient id="paint36_radial_126_4839" cx="0" cy="0" r="1" gradientUnits="userSpaceOnUse" gradientTransform="translate(926.624 376.209) rotate(90) scale(53.0187 43.4556)">
<stop stop-color="#FF61C8"/>
<stop offset="1" stop-opacity="0"/>
</radialGradient>
<radialGradient id="paint37_radial_126_4839" cx="0" cy="0" r="1" gradientUnits="userSpaceOnUse" gradientTransform="translate(493.261 493.101) rotate(90) scale(12.0157 160.94)">
<stop stop-color="#FF61C8"/>
<stop offset="1" stop-opacity="0"/>
</radialGradient>
<radialGradient id="paint38_radial_126_4839" cx="0" cy="0" r="1" gradientUnits="userSpaceOnUse" gradientTransform="translate(35.781 68.8091) rotate(90) scale(43.7144 35.781)">
<stop stop-color="#FF61C8"/>
<stop offset="1" stop-opacity="0"/>
</radialGradient>
<radialGradient id="paint39_radial_126_4839" cx="0" cy="0" r="1" gradientUnits="userSpaceOnUse" gradientTransform="translate(956.219 68.8091) rotate(90) scale(43.7144 35.781)">
<stop stop-color="#FF61C8"/>
<stop offset="1" stop-opacity="0"/>
</radialGradient>
</defs>
</svg>
