<svg width="1053" height="884" viewBox="0 0 1053 884" fill="none" xmlns="http://www.w3.org/2000/svg">
<g style="mix-blend-mode:overlay" clip-path="url(#clip0_596_5171)">
<path opacity="0.5" d="M849.298 589.248L849.16 589.484L815.071 648.569L746.638 648.569L746.5 648.332L712.412 589.248L712.55 589.011L746.638 529.926L815.071 529.926L815.209 530.163L849.298 589.248ZM814.539 647.642L848.213 589.248L814.539 530.854L747.19 530.854L713.516 589.248L747.19 647.642L814.539 647.642Z" fill="#D0D9DD"/>
<path opacity="0.5" d="M1019.05 59.5582L1018.91 59.795L984.823 118.88L916.39 118.88L916.252 118.643L882.164 59.5582L882.302 59.3214L916.39 0.236784L984.823 0.236781L984.961 0.473583L1019.05 59.5582ZM984.291 117.952L1017.97 59.5582L984.291 1.16429L916.942 1.1643L883.268 59.5582L916.942 117.952L984.291 117.952Z" fill="#D0D9DD"/>
<path opacity="0.5" d="M951.149 59.5582L951.011 59.795L916.923 118.88L848.49 118.88L848.352 118.643L814.263 59.5582L814.401 59.3214L848.49 0.236784L916.923 0.236781L917.061 0.473583L951.149 59.5582ZM916.39 117.952L950.065 59.5582L916.39 1.16429L849.042 1.1643L815.367 59.5582L849.042 117.952L916.39 117.952Z" fill="#D0D9DD"/>
<path opacity="0.5" d="M883.248 59.5582L883.11 59.795L849.022 118.88L780.589 118.88L780.451 118.643L746.362 59.5582L746.5 59.3214L780.589 0.236784L849.022 0.236781L849.16 0.473583L883.248 59.5582ZM848.489 117.952L882.164 59.5582L848.489 1.16429L781.141 1.1643L747.466 59.5582L781.141 117.952L848.489 117.952Z" fill="#D0D9DD"/>
<path opacity="0.5" d="M679.566 59.5582L679.428 59.795L645.339 118.88L576.906 118.88L576.768 118.643L542.68 59.5582L542.818 59.3214L576.906 0.236784L645.339 0.236781L645.477 0.473583L679.566 59.5582ZM644.807 117.952L678.481 59.5582L644.807 1.16429L577.458 1.1643L543.784 59.5582L577.458 117.952L644.807 117.952Z" fill="#D0D9DD"/>
<path opacity="0.5" d="M543.784 59.5582L543.646 59.795L509.557 118.88L441.124 118.88L440.986 118.643L406.898 59.5582L441.124 0.236784L509.557 0.236781L509.695 0.473583L543.784 59.5582ZM509.025 117.952L542.699 59.5582L509.025 1.16429L441.676 1.1643L408.002 59.5582L441.676 117.952L509.025 117.952Z" fill="#D0D9DD"/>
<path opacity="0.5" d="M340.081 59.5582L305.855 118.88L237.422 118.88L237.284 118.643L203.195 59.5582L237.422 0.236784L305.855 0.236781L305.993 0.473583L340.081 59.5582ZM305.323 117.952L338.997 59.5582L305.323 1.16429L237.974 1.1643L204.299 59.5582L237.974 117.952L305.323 117.952Z" fill="#D0D9DD"/>
<path opacity="0.5" d="M272.2 59.5582L237.974 118.88L169.541 118.88L169.403 118.643L135.314 59.5582L169.541 0.236784L237.974 0.236781L238.112 0.473583L272.2 59.5582ZM237.441 117.952L271.116 59.5582L237.441 1.16429L170.093 1.1643L136.418 59.5582L170.093 117.952L237.441 117.952Z" fill="#D0D9DD"/>
<path opacity="0.5" d="M136.399 59.5582L102.172 118.88L33.7391 118.88L33.601 118.643L-0.467654 59.5582L33.7588 0.236784L102.192 0.236781L102.33 0.473583L136.418 59.5582L136.399 59.5582ZM101.64 117.952L135.314 59.5582L101.64 1.16429L34.2911 1.1643L0.616708 59.5582L34.2911 117.952L101.64 117.952Z" fill="#D0D9DD"/>
<path opacity="0.5" d="M1053 118.425L1052.86 118.662L1018.77 177.747L950.341 177.747L950.203 177.51L916.114 118.425L916.252 118.189L950.341 59.104L1018.77 59.104L1018.91 59.3408L1053 118.425ZM1018.24 176.819L1051.92 118.425L1018.24 60.0315L950.893 60.0315L917.218 118.425L950.893 176.819L1018.24 176.819Z" fill="#D0D9DD"/>
<path opacity="0.5" d="M985.099 118.425L984.961 118.662L950.873 177.747L882.44 177.747L882.302 177.51L848.213 118.425L848.351 118.189L882.44 59.104L950.873 59.104L951.011 59.3408L985.099 118.425ZM950.341 176.819L984.015 118.425L950.341 60.0315L882.992 60.0315L849.317 118.425L882.992 176.819L950.341 176.819Z" fill="#D0D9DD"/>
<path opacity="0.5" d="M781.417 118.425L781.279 118.662L747.19 177.747L678.757 177.747L678.619 177.51L644.531 118.425L644.669 118.189L678.757 59.104L747.19 59.104L747.328 59.3408L781.417 118.425ZM746.658 176.819L780.332 118.425L746.658 60.0315L679.309 60.0315L645.635 118.425L679.309 176.819L746.658 176.819Z" fill="#D0D9DD"/>
<path opacity="0.5" d="M713.516 118.425L713.378 118.662L679.29 177.747L610.857 177.747L610.718 177.51L576.63 118.425L576.768 118.189L610.857 59.104L679.29 59.104L679.428 59.3408L713.516 118.425ZM678.757 176.819L712.432 118.425L678.757 60.0315L611.409 60.0315L577.734 118.425L611.409 176.819L678.757 176.819Z" fill="#D0D9DD"/>
<path opacity="0.5" d="M441.932 118.425L407.706 177.747L339.273 177.747L339.135 177.51L305.046 118.425L339.273 59.104L407.706 59.104L407.844 59.3408L441.932 118.425ZM407.174 176.819L440.848 118.425L407.174 60.0315L339.825 60.0315L306.15 118.425L339.825 176.819L407.174 176.819Z" fill="#D0D9DD"/>
<path opacity="0.5" d="M374.032 118.425L339.805 177.747L271.372 177.747L271.234 177.51L237.146 118.425L271.372 59.104L339.805 59.104L339.943 59.3408L374.032 118.425ZM339.273 176.819L372.947 118.425L339.273 60.0315L271.924 60.0315L238.25 118.425L271.924 176.819L339.273 176.819Z" fill="#D0D9DD"/>
<path opacity="0.5" d="M1019.05 177.274L1018.91 177.511L984.823 236.595L916.39 236.595L916.252 236.359L882.164 177.274L882.302 177.037L916.39 117.953L984.823 117.953L984.961 118.189L1019.05 177.274ZM984.291 235.668L1017.97 177.274L984.291 118.88L916.942 118.88L883.268 177.274L916.942 235.668L984.291 235.668Z" fill="#D0D9DD"/>
<path opacity="0.5" d="M815.347 177.274L815.209 177.511L781.121 236.595L712.688 236.595L712.55 236.359L678.461 177.274L678.599 177.037L712.688 117.953L781.121 117.953L781.259 118.189L815.347 177.274ZM780.589 235.668L814.263 177.274L780.589 118.88L713.24 118.88L679.565 177.274L713.24 235.668L780.589 235.668Z" fill="#D0D9DD"/>
<path opacity="0.5" d="M679.566 177.274L679.428 177.511L645.339 236.595L576.906 236.595L576.768 236.359L542.68 177.274L542.818 177.037L576.906 117.953L645.339 117.953L645.477 118.189L679.566 177.274ZM644.807 235.668L678.481 177.274L644.807 118.88L577.458 118.88L543.784 177.274L577.458 235.668L644.807 235.668Z" fill="#D0D9DD"/>
<g opacity="0.5">
<path d="M204.299 177.274L170.073 236.595L101.64 236.595L101.502 236.359L67.4133 177.274L101.64 117.953L170.073 117.953L170.211 118.189L204.299 177.274ZM169.541 235.668L203.215 177.274L169.541 118.88L102.192 118.88L68.5174 177.274L102.192 235.668L169.541 235.668Z" fill="#D0D9DD"/>
</g>
<path opacity="0.5" d="M985.099 236.122L984.961 236.358L950.873 295.443L882.44 295.443L882.302 295.206L848.213 236.122L848.351 235.885L882.44 176.8L950.873 176.8L951.011 177.037L985.099 236.122ZM950.341 294.516L984.015 236.122L950.341 177.728L882.992 177.728L849.317 236.122L882.992 294.516L950.341 294.516Z" fill="#D0D9DD"/>
<path opacity="0.5" d="M917.199 236.122L917.061 236.358L882.972 295.443L814.539 295.443L814.401 295.206L780.313 236.122L780.451 235.885L814.539 176.8L882.972 176.8L883.11 177.037L917.199 236.122ZM882.44 294.516L916.114 236.122L882.44 177.728L815.091 177.728L781.417 236.122L815.091 294.516L882.44 294.516Z" fill="#D0D9DD"/>
<path opacity="0.5" d="M713.516 236.122L713.378 236.358L679.29 295.443L610.857 295.443L610.718 295.206L576.63 236.122L576.768 235.885L610.857 176.8L679.29 176.8L679.428 177.037L713.516 236.122ZM678.757 294.516L712.432 236.122L678.757 177.728L611.409 177.728L577.734 236.122L611.409 294.516L678.757 294.516Z" fill="#D0D9DD"/>
<path opacity="0.5" d="M645.615 236.122L645.477 236.358L611.389 295.443L542.956 295.443L542.818 295.206L508.729 236.122L542.956 176.8L611.389 176.8L611.527 177.037L645.615 236.122ZM610.856 294.516L644.531 236.122L610.856 177.728L543.508 177.728L509.833 236.122L543.508 294.516L610.856 294.516Z" fill="#D0D9DD"/>
<path opacity="0.5" d="M441.932 236.122L407.706 295.443L339.273 295.443L339.135 295.206L305.046 236.122L339.273 176.8L407.706 176.8L407.844 177.037L441.932 236.122ZM407.174 294.516L440.848 236.122L407.174 177.728L339.825 177.728L306.15 236.122L339.825 294.516L407.174 294.516Z" fill="#D0D9DD"/>
<path opacity="0.5" d="M1019.05 412.684L1018.91 412.921L984.823 472.006L916.39 472.006L916.252 471.769L882.164 412.684L882.302 412.447L916.39 353.363L984.823 353.363L984.961 353.6L1019.05 412.684ZM984.291 471.078L1017.97 412.684L984.291 354.29L916.942 354.29L883.268 412.684L916.942 471.078L984.291 471.078Z" fill="#D0D9DD"/>
<path opacity="0.5" d="M815.347 412.684L815.209 412.921L781.121 472.006L712.688 472.006L712.55 471.769L678.461 412.684L678.599 412.447L712.688 353.363L781.121 353.363L781.259 353.6L815.347 412.684ZM780.589 471.078L814.263 412.684L780.589 354.29L713.24 354.29L679.565 412.684L713.24 471.078L780.589 471.078Z" fill="#D0D9DD"/>
<path opacity="0.5" d="M543.784 412.684L543.646 412.921L509.557 472.006L441.124 472.006L440.986 471.769L406.898 412.684L441.124 353.363L509.557 353.363L509.695 353.6L543.784 412.684ZM509.025 471.078L542.699 412.684L509.025 354.29L441.676 354.29L408.002 412.684L441.676 471.078L509.025 471.078Z" fill="#D0D9DD"/>
<path opacity="0.5" d="M1053 471.552L1052.86 471.789L1018.77 530.874L950.341 530.874L950.203 530.637L916.114 471.552L916.252 471.316L950.341 412.231L1018.77 412.231L1018.91 412.468L1053 471.552ZM1018.24 529.946L1051.92 471.552L1018.24 413.158L950.893 413.158L917.218 471.552L950.893 529.946L1018.24 529.946Z" fill="#D0D9DD"/>
<path opacity="0.5" d="M917.199 471.552L917.061 471.789L882.972 530.874L814.539 530.874L814.401 530.637L780.313 471.552L780.451 471.316L814.539 412.231L882.972 412.231L883.11 412.468L917.199 471.552ZM882.44 529.946L916.114 471.552L882.44 413.158L815.091 413.158L781.417 471.552L815.091 529.946L882.44 529.946Z" fill="#D0D9DD"/>
<path opacity="0.5" d="M781.417 471.552L781.279 471.789L747.19 530.874L678.757 530.874L678.619 530.637L644.531 471.552L644.669 471.316L678.757 412.231L747.19 412.231L747.328 412.468L781.417 471.552ZM746.658 529.946L780.332 471.552L746.658 413.158L679.309 413.158L645.635 471.552L679.309 529.946L746.658 529.946Z" fill="#D0D9DD"/>
<path opacity="0.5" d="M713.516 471.552L713.378 471.789L679.29 530.874L610.857 530.874L610.718 530.637L576.63 471.552L576.768 471.316L610.857 412.231L679.29 412.231L679.428 412.468L713.516 471.552ZM678.757 529.946L712.432 471.552L678.757 413.158L611.409 413.158L577.734 471.552L611.409 529.946L678.757 529.946Z" fill="#D0D9DD"/>
<path opacity="0.5" d="M509.833 471.552L475.607 530.874L407.174 530.874L407.036 530.637L372.947 471.552L407.174 412.231L475.607 412.231L475.745 412.468L509.833 471.552ZM475.074 529.946L508.749 471.552L475.074 413.158L407.726 413.158L374.051 471.552L407.726 529.946L475.074 529.946Z" fill="#D0D9DD"/>
<path opacity="0.5" d="M1019.05 530.4L1018.91 530.637L984.823 589.721L916.39 589.721L916.252 589.484L882.164 530.4L882.302 530.163L916.39 471.078L984.823 471.078L984.961 471.315L1019.05 530.4ZM984.291 588.794L1017.97 530.4L984.291 472.006L916.942 472.006L883.268 530.4L916.942 588.794L984.291 588.794Z" fill="#D0D9DD"/>
<path opacity="0.5" d="M679.566 530.4L679.428 530.637L645.339 589.721L576.906 589.721L576.768 589.484L542.68 530.4L542.818 530.163L576.906 471.078L645.339 471.078L645.477 471.315L679.566 530.4ZM644.807 588.794L678.481 530.4L644.807 472.006L577.458 472.006L543.784 530.4L577.458 588.794L644.807 588.794Z" fill="#D0D9DD"/>
<path opacity="0.5" d="M985.099 589.248L984.961 589.484L950.873 648.569L882.44 648.569L882.302 648.332L848.213 589.248L848.351 589.011L882.44 529.926L950.873 529.926L951.011 530.163L985.099 589.248ZM950.341 647.642L984.015 589.248L950.341 530.854L882.992 530.854L849.317 589.248L882.992 647.642L950.341 647.642Z" fill="#D0D9DD"/>
<path opacity="0.5" d="M883.248 648.115L883.11 648.352L849.022 707.436L780.589 707.436L780.451 707.199L746.362 648.115L746.5 647.878L780.589 588.793L849.022 588.793L849.16 589.03L883.248 648.115ZM848.489 706.509L882.164 648.115L848.489 589.721L781.141 589.721L747.466 648.115L781.141 706.509L848.489 706.509Z" fill="#D0D9DD"/>
<path opacity="0.5" d="M985.099 824.678L984.961 824.915L950.873 884L882.44 884L882.302 883.763L848.213 824.678L848.351 824.442L882.44 765.357L950.873 765.357L951.011 765.594L985.099 824.678ZM950.341 883.053L984.015 824.659L950.341 766.265L882.992 766.265L849.317 824.659L882.992 883.053L950.341 883.053Z" fill="#D0D9DD"/>
<path opacity="0.5" d="M1019.05 294.989L1018.91 295.226L984.823 354.31L916.39 354.31L916.252 354.073L882.164 294.989L882.302 294.752L916.39 235.667L984.823 235.667L984.961 235.904L1019.05 294.989ZM984.291 353.383L1017.97 294.989L984.291 236.595L916.942 236.595L883.268 294.989L916.942 353.383L984.291 353.383Z" fill="#D0D9DD"/>
<path opacity="0.5" d="M951.149 294.989L951.011 295.226L916.923 354.31L848.49 354.31L848.352 354.073L814.263 294.989L814.401 294.752L848.49 235.667L916.923 235.667L917.061 235.904L951.149 294.989ZM916.39 353.383L950.065 294.989L916.39 236.595L849.042 236.595L815.367 294.989L849.042 353.383L916.39 353.383Z" fill="#D0D9DD"/>
<path opacity="0.5" d="M883.248 294.989L883.11 295.226L849.022 354.31L780.589 354.31L780.451 354.073L746.362 294.989L746.5 294.752L780.589 235.667L849.022 235.667L849.16 235.904L883.248 294.989ZM848.489 353.383L882.164 294.989L848.489 236.595L781.141 236.595L747.466 294.989L781.141 353.383L848.489 353.383Z" fill="#D0D9DD"/>
<path opacity="0.5" d="M679.566 294.989L679.428 295.226L645.339 354.31L576.906 354.31L576.768 354.073L542.68 294.989L542.818 294.752L576.906 235.667L645.339 235.667L645.477 235.904L679.566 294.989ZM644.807 353.383L678.481 294.989L644.807 236.595L577.458 236.595L543.784 294.989L577.458 353.383L644.807 353.383Z" fill="#D0D9DD"/>
<path opacity="0.5" d="M340.081 294.989L305.855 354.31L237.422 354.31L237.284 354.073L203.195 294.989L237.422 235.667L305.855 235.667L305.993 235.904L340.081 294.989ZM305.323 353.383L338.997 294.989L305.323 236.595L237.974 236.595L204.299 294.989L237.974 353.383L305.323 353.383Z" fill="#D0D9DD"/>
<path opacity="0.5" d="M475.883 294.989L441.656 354.31L373.223 354.31L373.085 354.073L338.997 294.989L373.223 235.667L441.656 235.667L441.794 235.904L475.883 294.989ZM441.124 353.383L474.798 294.989L441.124 236.595L373.775 236.595L340.101 294.989L373.775 353.383L441.124 353.383Z" fill="#D0D9DD"/>
<path opacity="0.5" d="M645.615 471.552L645.477 471.789L611.389 530.874L542.956 530.874L542.818 530.637L508.729 471.552L542.956 412.231L611.389 412.231L611.527 412.468L645.615 471.552ZM610.856 529.946L644.531 471.552L610.856 413.158L543.508 413.158L509.833 471.552L543.508 529.946L610.856 529.946Z" fill="#D0D9DD"/>
<path d="M748.275 648.115L748.078 648.47L713.93 707.673L645.221 707.673L645.024 707.318L610.876 648.115L611.073 647.76L645.221 588.557L713.93 588.557L714.127 588.912L748.275 648.115ZM713.102 706.272L746.638 648.115L713.102 589.958L646.029 589.958L612.493 648.115L646.029 706.272L713.102 706.272Z" fill="white"/>
<path d="M781.673 236.121L781.476 236.477L747.328 295.68L678.619 295.68L678.422 295.324L644.274 236.121L644.472 235.766L678.619 176.563L747.328 176.563L747.525 176.918L781.673 236.121ZM746.5 294.279L780.037 236.121L746.5 177.964L679.427 177.964L645.891 236.121L679.427 294.279L746.5 294.279Z" fill="white"/>
<path d="M747.723 59.5577L747.525 59.9129L713.378 119.116L644.669 119.116L644.472 118.761L610.324 59.5577L610.521 59.2025L644.669 -0.000558447L713.378 -0.00056145L713.575 0.354709L747.723 59.5577ZM712.55 117.715L746.086 59.5577L712.55 1.40062L645.477 1.40063L611.941 59.5577L645.477 117.715L712.55 117.715Z" fill="white"/>
<path d="M408.258 59.5577L373.913 119.116L305.204 119.116L305.007 118.761L270.859 59.5577L305.204 -0.000558447L373.913 -0.00056145L374.11 0.354709L408.258 59.5577ZM373.085 117.715L406.622 59.5577L373.085 1.40062L306.012 1.40063L272.476 59.5577L306.012 117.715L373.085 117.715Z" fill="white"/>
<path d="M544.04 294.989L543.843 295.345L509.695 354.548L440.986 354.548L440.789 354.192L406.641 294.989L440.986 235.431L509.695 235.431L509.892 235.786L544.04 294.989ZM508.867 353.146L542.404 294.989L508.867 236.832L441.794 236.832L408.258 294.989L441.794 353.146L508.867 353.146Z" fill="white"/>
<path d="M747.723 294.989L747.525 295.345L713.378 354.548L644.669 354.548L644.472 354.192L610.324 294.989L610.521 294.634L644.669 235.431L713.378 235.431L713.575 235.786L747.723 294.989ZM712.55 353.146L746.086 294.989L712.55 236.832L645.477 236.832L611.941 294.989L645.477 353.146L712.55 353.146Z" fill="white"/>
<path d="M679.842 412.684L679.645 413.04L645.497 472.243L576.788 472.243L576.591 471.887L542.443 412.684L542.64 412.329L576.788 353.126L645.497 353.126L645.694 353.481L679.842 412.684ZM644.669 470.842L678.205 412.684L644.669 354.527L577.596 354.527L544.06 412.684L577.596 470.842L644.669 470.842Z" fill="white"/>
<path d="M577.99 118.426L577.793 118.781L543.646 177.984L474.937 177.984L474.739 177.629L440.592 118.426L474.936 58.8674L543.646 58.8674L543.843 59.2226L577.99 118.426ZM542.818 176.583L576.354 118.426L542.818 60.2686L475.745 60.2686L442.208 118.426L475.745 176.583L542.818 176.583Z" fill="white"/>
<path d="M510.109 118.426L475.765 177.984L407.055 177.984L406.858 177.629L372.711 118.426L407.055 58.8674L475.765 58.8674L475.962 59.2226L510.109 118.426ZM474.936 176.583L508.473 118.426L474.936 60.2686L407.864 60.2686L374.327 118.426L407.864 176.583L474.936 176.583Z" fill="white"/>
<path d="M951.425 177.274L951.228 177.629L917.08 236.832L848.371 236.832L848.174 236.477L814.026 177.274L814.223 176.918L848.371 117.715L917.08 117.715L917.277 118.071L951.425 177.274ZM916.252 235.431L949.789 177.274L916.252 119.116L849.179 119.116L815.643 177.274L849.179 235.431L916.252 235.431Z" fill="white"/>
<path d="M611.941 177.274L611.744 177.629L577.596 236.832L508.887 236.832L508.69 236.477L474.542 177.274L508.887 117.715L577.596 117.715L577.793 118.071L611.941 177.274ZM576.768 235.431L610.304 177.274L576.768 119.116L509.695 119.116L476.159 177.274L509.695 235.431L576.768 235.431Z" fill="white"/>
<path d="M272.456 177.274L238.112 236.832L169.403 236.832L169.205 236.477L135.058 177.274L169.403 117.715L238.112 117.715L238.309 118.071L272.456 177.274ZM237.284 235.431L270.82 177.274L237.284 119.116L170.211 119.116L136.675 177.274L170.211 235.431L237.284 235.431Z" fill="white"/>
<path d="M577.99 236.121L577.793 236.477L543.646 295.68L474.937 295.68L474.739 295.324L440.592 236.121L474.936 176.563L543.646 176.563L543.843 176.918L577.99 236.121ZM542.818 294.279L576.354 236.121L542.818 177.964L475.745 177.964L442.208 236.121L475.745 294.279L542.818 294.279Z" fill="white"/>
<path d="M374.308 236.121L339.963 295.68L271.254 295.68L271.057 295.324L236.909 236.121L271.254 176.563L339.963 176.563L340.16 176.918L374.308 236.121ZM339.135 294.279L372.671 236.121L339.135 177.964L272.062 177.964L238.526 236.121L272.062 294.279L339.135 294.279Z" fill="white"/>
<path d="M883.524 412.684L883.327 413.04L849.18 472.243L780.47 472.243L780.273 471.887L746.126 412.684L746.323 412.329L780.47 353.126L849.18 353.126L849.377 353.481L883.524 412.684ZM848.351 470.842L881.888 412.684L848.351 354.527L781.279 354.527L747.742 412.684L781.279 470.842L848.351 470.842Z" fill="white"/>
<path d="M985.375 471.552L985.178 471.907L951.031 531.11L882.322 531.11L882.124 530.755L847.977 471.552L848.174 471.197L882.322 411.994L951.031 411.994L951.228 412.349L985.375 471.552ZM950.203 529.709L983.739 471.552L950.203 413.395L883.13 413.395L849.594 471.552L883.13 529.709L950.203 529.709Z" fill="white"/>
<path d="M815.623 530.4L815.426 530.755L781.279 589.958L712.57 589.958L712.372 589.603L678.225 530.4L678.422 530.044L712.57 470.841L781.279 470.841L781.476 471.197L815.623 530.4ZM780.451 588.557L813.987 530.4L780.451 472.242L713.378 472.242L679.841 530.4L713.378 588.557L780.451 588.557Z" fill="white"/>
<path d="M611.941 530.4L611.744 530.755L577.596 589.958L508.887 589.958L508.69 589.603L474.542 530.4L508.887 470.841L577.596 470.841L577.793 471.197L611.941 530.4ZM576.768 588.557L610.304 530.4L576.768 472.242L509.695 472.242L476.159 530.4L509.695 588.557L576.768 588.557Z" fill="white"/>
<path d="M476.159 530.4L441.814 589.958L373.105 589.958L372.908 589.603L338.76 530.4L373.105 470.841L441.814 470.841L442.011 471.197L476.159 530.4ZM440.986 588.557L474.522 530.4L440.986 472.242L373.913 472.242L340.377 530.4L373.913 588.557L440.986 588.557Z" fill="white"/>
<path d="M917.475 589.247L917.278 589.602L883.13 648.805L814.421 648.805L814.224 648.45L780.076 589.247L780.273 588.892L814.421 529.689L883.13 529.689L883.327 530.044L917.475 589.247ZM882.302 647.404L915.838 589.247L882.302 531.09L815.229 531.09L781.693 589.247L815.229 647.404L882.302 647.404Z" fill="white"/>
<path d="M985.375 706.963L985.178 707.318L951.031 766.521L882.322 766.521L882.124 766.166L847.977 706.963L848.174 706.608L882.322 647.405L951.031 647.405L951.228 647.76L985.375 706.963ZM950.203 765.12L983.739 706.963L950.203 648.806L883.13 648.806L849.594 706.963L883.13 765.12L950.203 765.12Z" fill="white"/>
<path d="M1019.31 765.811L1019.11 766.166L984.961 825.369L916.252 825.369L916.055 825.014L881.907 765.811L882.105 765.455L916.252 706.252L984.961 706.252L985.158 706.608L1019.31 765.811ZM984.133 823.968L1017.67 765.811L984.133 707.654L917.06 707.654L883.524 765.811L917.061 823.968L984.133 823.968Z" fill="white"/>
<path opacity="0.5" d="M918.362 121.267L915.089 121.267L913.433 118.426L915.089 115.564L918.362 115.564L919.998 118.426L918.362 121.267Z" fill="#D0D9DD"/>
<path opacity="0.5" d="M850.481 121.188L847.306 121.188L845.709 118.425L847.306 115.662L850.481 115.662L852.078 118.425L850.481 121.188Z" fill="#D0D9DD"/>
<path opacity="0.5" d="M782.403 120.754L779.721 120.754L778.361 118.425L779.721 116.077L782.403 116.077L783.743 118.425L782.403 120.754Z" fill="#D0D9DD"/>
<path opacity="0.5" d="M714.245 120.201L712.195 120.201L711.17 118.425L712.195 116.629L714.245 116.629L715.29 118.425L714.245 120.201Z" fill="#D0D9DD"/>
<path opacity="0.5" d="M375.944 121.681L372.178 121.681L370.305 118.425L372.178 115.149L375.944 115.149L377.837 118.425L375.944 121.681Z" fill="#D0D9DD"/>
<path opacity="0.5" d="M105.169 122.648L100.299 122.648L97.8542 118.425L100.299 114.182L105.169 114.182L107.614 118.425L105.169 122.648Z" fill="#D0D9DD"/>
<path opacity="0.5" d="M38.6285 124.879L31.176 124.879L27.4497 118.426L31.176 111.953L38.6285 111.953L42.3745 118.426L38.6285 124.879Z" fill="#D0D9DD"/>
<path opacity="0.5" d="M952.628 62.8933L948.783 62.8933L946.871 59.5582L948.783 56.2231L952.628 56.2231L954.56 59.5582L952.628 62.8933Z" fill="#D0D9DD"/>
<path opacity="0.5" d="M884.963 63.1099L880.882 63.1099L878.832 59.5577L880.882 56.0055L884.963 56.0055L887.014 59.5577L884.963 63.1099Z" fill="#D0D9DD"/>
<path opacity="0.5" d="M817.851 64.2742L812.41 64.2742L809.709 59.5577L812.41 54.8609L817.851 54.8609L820.572 59.5577L817.851 64.2742Z" fill="#D0D9DD"/>
<path opacity="0.5" d="M411.294 64.5703L405.518 64.5703L402.639 59.5578L405.518 54.565L411.294 54.565L414.193 59.5578L411.294 64.5703Z" fill="#D0D9DD"/>
<path opacity="0.5" d="M342.289 62.439L338.977 62.439L337.301 59.5578L338.977 56.6963L342.289 56.6963L343.945 59.5578L342.289 62.439Z" fill="#D0D9DD"/>
<path opacity="0.5" d="M273.975 61.5115L271.707 61.5115L270.583 59.5578L271.707 57.6041L273.975 57.6041L275.098 59.5578L273.975 61.5115Z" fill="#D0D9DD"/>
<path opacity="0.5" d="M207.533 63.8599L202.584 63.8599L200.1 59.5578L202.584 55.2754L207.533 55.2754L209.997 59.5578L207.533 63.8599Z" fill="#D0D9DD"/>
<path opacity="0.5" d="M137.01 61.5505L134.723 61.5505L133.579 59.5574L134.723 57.584L137.01 57.584L138.153 59.5574L137.01 61.5505Z" fill="#D0D9DD"/>
<path opacity="0.5" d="M70.4102 63.8005L65.5207 63.8005L63.0957 59.5577L65.5207 55.3345L70.4102 55.3345L72.855 59.5577L70.4102 63.8005Z" fill="#D0D9DD"/>
<path opacity="0.5" d="M3.04171 61.8865L0.340666 61.8865L-1 59.5578L0.340666 57.2291L3.04171 57.2291L4.38238 59.5578L3.04171 61.8865Z" fill="#D0D9DD"/>
<path opacity="0.5" d="M985.849 238.371L983.266 238.371L981.984 236.121L983.266 233.891L985.849 233.891L987.13 236.121L985.849 238.371Z" fill="#D0D9DD"/>
<path opacity="0.5" d="M919.86 241.548L913.59 241.548L910.456 236.121L913.59 230.694L919.86 230.694L922.975 236.121L919.86 241.548Z" fill="#D0D9DD"/>
<path opacity="0.5" d="M849.909 237.897L847.878 237.897L846.853 236.121L847.878 234.365L849.909 234.365L850.934 236.121L849.909 237.897Z" fill="#D0D9DD"/>
<path opacity="0.5" d="M784.394 241.903L777.73 241.903L774.398 236.121L777.73 230.358L784.394 230.358L787.706 236.121L784.394 241.903Z" fill="#D0D9DD"/>
<path opacity="0.5" d="M442.839 237.778L440.947 237.778L440 236.12L440.947 234.482L442.839 234.482L443.805 236.12L442.839 237.778Z" fill="#D0D9DD"/>
<path opacity="0.5" d="M374.86 237.482L373.283 237.482L372.494 236.121L373.283 234.759L374.86 234.759L375.648 236.121L374.86 237.482Z" fill="#D0D9DD"/>
<path opacity="0.5" d="M308.556 240.146L303.903 240.146L301.576 236.12L303.903 232.095L308.556 232.095L310.882 236.12L308.556 240.146Z" fill="#D0D9DD"/>
<path opacity="0.5" d="M240.773 240.225L236.042 240.225L233.676 236.121L236.042 232.036L240.773 232.036L243.139 236.121L240.773 240.225Z" fill="#D0D9DD"/>
<path opacity="0.5" d="M884.313 179.7L881.533 179.7L880.133 177.273L881.533 174.845L884.313 174.845L885.713 177.273L884.313 179.7Z" fill="#D0D9DD"/>
<path opacity="0.5" d="M748.57 179.404L746.126 179.404L744.903 177.273L746.126 175.141L748.57 175.141L749.813 177.273L748.57 179.404Z" fill="#D0D9DD"/>
<path opacity="0.5" d="M680.374 178.694L678.737 178.694L677.929 177.273L678.737 175.852L680.374 175.852L681.202 177.273L680.374 178.694Z" fill="#D0D9DD"/>
<path opacity="0.5" d="M545.775 180.372L542.206 180.372L540.412 177.274L542.206 174.175L545.775 174.175L547.569 177.274L545.775 180.372Z" fill="#D0D9DD"/>
<path opacity="0.5" d="M477.105 178.852L475.291 178.852L474.384 177.274L475.291 175.695L477.105 175.695L478.012 177.274L477.105 178.852Z" fill="#D0D9DD"/>
<path opacity="0.5" d="M342.388 180.312L338.878 180.312L337.124 177.273L338.878 174.234L342.388 174.234L344.123 177.273L342.388 180.312Z" fill="#D0D9DD"/>
<path opacity="0.5" d="M70.844 182.266L65.087 182.266L62.2085 177.274L65.087 172.281L70.844 172.281L73.7225 177.274L70.844 182.266Z" fill="#D0D9DD"/>
<path opacity="0.5" d="M986.992 475.775L982.122 475.775L979.677 471.552L982.122 467.329L986.992 467.329L989.437 471.552L986.992 475.775Z" fill="#D0D9DD"/>
<path opacity="0.5" d="M917.731 473.288L915.72 473.288L914.714 471.551L915.72 469.815L917.731 469.815L918.717 471.551L917.731 473.288Z" fill="#D0D9DD"/>
<path opacity="0.5" d="M783.605 475.952L778.518 475.952L775.975 471.551L778.518 467.15L783.605 467.15L786.129 471.551L783.605 475.952Z" fill="#D0D9DD"/>
<path opacity="0.5" d="M715.842 476.071L710.618 476.071L707.995 471.552L710.618 467.013L715.842 467.013L718.445 471.552L715.842 476.071Z" fill="#D0D9DD"/>
<path opacity="0.5" d="M614.839 419.118L607.426 419.118L603.719 412.685L607.426 406.271L614.839 406.271L618.545 412.685L614.839 419.118Z" fill="#D0D9DD"/>
<path opacity="0.5" d="M581.263 360.269L573.85 360.269L570.143 353.836L573.85 347.422L581.263 347.422L584.969 353.836L581.263 360.269Z" fill="#D0D9DD"/>
<path opacity="0.5" d="M443.115 473.663L440.671 473.663L439.448 471.551L440.671 469.42L443.115 469.42L444.357 471.551L443.115 473.663Z" fill="#D0D9DD"/>
<path opacity="0.5" d="M885.989 300.277L879.857 300.277L876.801 294.988L879.857 289.68L885.989 289.68L889.044 294.988L885.989 300.277Z" fill="#D0D9DD"/>
<path opacity="0.5" d="M816.511 297.356L813.77 297.356L812.41 294.988L813.77 292.62L816.511 292.62L817.871 294.988L816.511 297.356Z" fill="#D0D9DD"/>
<path opacity="0.5" d="M748.748 297.416L745.948 297.416L744.529 294.988L745.948 292.541L748.748 292.541L750.167 294.988L748.748 297.416Z" fill="#D0D9DD"/>
<path opacity="0.5" d="M681.024 297.534L678.087 297.534L676.628 294.988L678.087 292.442L681.024 292.442L682.503 294.988L681.024 297.534Z" fill="#D0D9DD"/>
<path opacity="0.5" d="M613.242 297.514L610.324 297.514L608.865 294.988L610.324 292.443L613.242 292.443L614.701 294.988L613.242 297.514Z" fill="#D0D9DD"/>
<path opacity="0.5" d="M545.952 298.402L542.029 298.402L540.057 294.988L542.029 291.574L545.952 291.574L547.924 294.988L545.952 298.402Z" fill="#D0D9DD"/>
<path opacity="0.5" d="M1020.21 533.38L1016.78 533.38L1015.05 530.4L1016.78 527.42L1020.21 527.42L1021.95 530.4L1020.21 533.38Z" fill="#D0D9DD"/>
<path opacity="0.5" d="M986.657 592.898L982.457 592.898L980.348 589.247L982.457 585.616L986.657 585.616L988.747 589.247L986.657 592.898Z" fill="#D0D9DD"/>
<path opacity="0.5" d="M647.449 592.799L643.348 592.799L641.297 589.247L643.348 585.715L647.449 585.715L649.479 589.247L647.449 592.799Z" fill="#D0D9DD"/>
<path opacity="0.5" d="M579.39 592.424L575.743 592.424L573.909 589.247L575.743 586.09L579.39 586.09L581.204 589.247L579.39 592.424Z" fill="#D0D9DD"/>
<path opacity="0.5" d="M445.363 595.266L438.443 595.266L434.973 589.247L438.443 583.248L445.363 583.248L448.813 589.247L445.363 595.266Z" fill="#D0D9DD"/>
<path opacity="0.5" d="M951.662 532.057L949.749 532.057L948.803 530.4L949.749 528.742L951.662 528.742L952.628 530.4L951.662 532.057Z" fill="#D0D9DD"/>
<path opacity="0.5" d="M681.36 533.517L677.771 533.517L675.977 530.399L677.771 527.281L681.36 527.281L683.154 530.399L681.36 533.517Z" fill="#D0D9DD"/>
<path opacity="0.5" d="M544.848 531.879L543.133 531.879L542.285 530.399L543.133 528.919L544.848 528.919L545.696 530.399L544.848 531.879Z" fill="#D0D9DD"/>
<path opacity="0.5" d="M410.88 534.662L405.951 534.662L403.487 530.399L405.951 526.137L410.88 526.137L413.345 530.399L410.88 534.662Z" fill="#D0D9DD"/>
<path opacity="0.5" d="M918.145 709.41L915.306 709.41L913.886 706.963L915.306 704.516L918.145 704.516L919.545 706.963L918.145 709.41Z" fill="#D0D9DD"/>
<path opacity="0.5" d="M851.21 710.988L846.557 710.988L844.25 706.962L846.557 702.936L851.21 702.936L853.537 706.962L851.21 710.988Z" fill="#D0D9DD"/>
<path opacity="0.5" d="M783.586 711.344L778.538 711.344L776.015 706.962L778.538 702.601L783.586 702.601L786.109 706.962L783.586 711.344Z" fill="#D0D9DD"/>
<path opacity="0.5" d="M953.653 653.226L947.758 653.226L944.82 648.115L947.758 643.004L953.653 643.004L956.61 648.115L953.653 653.226Z" fill="#D0D9DD"/>
<path opacity="0.5" d="M885.338 652.298L880.508 652.298L878.083 648.115L880.508 643.911L885.338 643.911L887.763 648.115L885.338 652.298Z" fill="#D0D9DD"/>
<path opacity="0.5" d="M613.557 651.213L609.989 651.213L608.195 648.114L609.989 645.016L613.557 645.016L615.352 648.114L613.557 651.213Z" fill="#D0D9DD"/>
<path opacity="0.5" d="M1020.21 768.79L1016.78 768.79L1015.07 765.83L1016.78 762.85L1020.21 762.85L1021.93 765.83L1020.21 768.79Z" fill="#D0D9DD"/>
<path opacity="0.5" d="M851.999 830.046L845.788 830.046L842.693 824.678L845.788 819.31L851.999 819.31L855.094 824.678L851.999 830.046Z" fill="#D0D9DD"/>
<path opacity="0.5" d="M886.383 771.829L879.463 771.829L875.993 765.83L879.463 759.811L886.383 759.811L889.853 765.83L886.383 771.829Z" fill="#D0D9DD"/>
<path opacity="0.5" d="M308.95 359.638L302.266 359.638L298.915 353.836L302.266 348.034L308.95 348.034L312.282 353.836L308.95 359.638Z" fill="#D0D9DD"/>
<path d="M647.823 475.775L642.954 475.775L640.509 471.552L642.954 467.329L647.823 467.329L650.268 471.552L647.823 475.775Z" fill="white"/>
<path d="M715.724 358.059L710.854 358.059L708.409 353.836L710.854 349.613L715.724 349.613L718.169 353.836L715.724 358.059Z" fill="white"/>
<path d="M513.441 477.966L506.028 477.966L502.322 471.552L506.028 465.119L513.441 465.119L517.148 471.552L513.441 477.966Z" fill="white"/>
<path d="M376.023 474.946L372.1 474.946L370.148 471.551L372.1 468.157L376.023 468.157L377.995 471.551L376.023 474.946Z" fill="white"/>
<path d="M714.659 591.734L711.801 591.734L710.361 589.248L711.801 586.781L714.659 586.781L716.079 589.248L714.659 591.734Z" fill="white"/>
<path d="M1019.54 61.3738L1017.45 61.3738L1016.41 59.5583L1017.45 57.7427L1019.54 57.7427L1020.59 59.5583L1019.54 61.3738Z" fill="white"/>
<path d="M649.381 125.333L641.416 125.333L637.433 118.426L641.416 111.519L649.381 111.519L653.363 118.426L649.381 125.333Z" fill="white"/>
<path d="M579.43 121.662L575.703 121.662L573.83 118.425L575.703 115.189L579.43 115.189L581.303 118.425L579.43 121.662Z" fill="white"/>
<path d="M510.918 120.477L508.532 120.477L507.349 118.425L508.532 116.353L510.918 116.353L512.12 118.425L510.918 120.477Z" fill="white"/>
<path d="M443.983 122.037L439.823 122.037L437.733 118.425L439.823 114.814L443.983 114.814L446.073 118.425L443.983 122.037Z" fill="white"/>
<path d="M307.412 120.438L305.066 120.438L303.883 118.425L305.066 116.393L307.412 116.393L308.576 118.425L307.412 120.438Z" fill="white"/>
<path d="M240.478 122.037L236.318 122.037L234.228 118.425L236.318 114.794L240.478 114.794L242.568 118.425L240.478 122.037Z" fill="white"/>
<path d="M172.458 121.701L168.673 121.701L166.78 118.425L168.673 115.129L172.458 115.129L174.371 118.425L172.458 121.701Z" fill="white"/>
<path d="M748.965 62.3796L745.731 62.3796L744.115 59.5576L745.731 56.7553L748.965 56.7553L750.581 59.5576L748.965 62.3796Z" fill="white"/>
<path d="M681.774 63.4058L677.338 63.4058L675.129 59.5576L677.338 55.7094L681.774 55.7094L684.001 59.5576L681.774 63.4058Z" fill="white"/>
<path d="M613.597 62.7156L609.949 62.7156L608.135 59.5581L609.949 56.4006L613.597 56.4006L615.411 59.5581L613.597 62.7156Z" fill="white"/>
<path d="M545.341 61.906L542.64 61.906L541.28 59.5576L542.64 57.2092L545.341 57.2092L546.702 59.5576L545.341 61.906Z" fill="white"/>
<path d="M1021.1 181.793L1015.9 181.793L1013.29 177.274L1015.9 172.754L1021.1 172.754L1023.7 177.274L1021.1 181.793Z" fill="white"/>
<path d="M716.118 241.134L710.342 241.134L707.463 236.121L710.342 231.128L716.118 231.128L718.997 236.121L716.118 241.134Z" fill="white"/>
<path d="M646.423 237.917L644.373 237.917L643.348 236.121L644.373 234.345L646.423 234.345L647.448 236.121L646.423 237.917Z" fill="white"/>
<path d="M580.179 240.66L574.954 240.66L572.332 236.121L574.954 231.602L580.179 231.602L582.781 236.121L580.179 240.66Z" fill="white"/>
<path d="M171.946 238.509L169.206 238.509L167.825 236.121L169.206 233.753L171.946 233.753L173.306 236.121L171.946 238.509Z" fill="white"/>
<path d="M105.622 241.114L99.8653 241.114L96.9868 236.121L99.8653 231.148L105.622 231.148L108.481 236.121L105.622 241.114Z" fill="white"/>
<path d="M951.8 179.168L949.611 179.168L948.527 177.273L949.611 175.379L951.8 175.379L952.904 177.273L951.8 179.168Z" fill="white"/>
<path d="M817.141 180.747L813.139 180.747L811.128 177.274L813.139 173.8L817.141 173.8L819.152 177.274L817.141 180.747Z" fill="white"/>
<path d="M612.729 178.911L610.817 178.911L609.871 177.273L610.817 175.635L612.729 175.635L613.676 177.273L612.729 178.911Z" fill="white"/>
<path d="M410.9 181.594L405.932 181.594L403.428 177.273L405.932 172.951L410.9 172.951L413.404 177.273L410.9 181.594Z" fill="white"/>
<path d="M274.941 180.904L270.741 180.904L268.632 177.273L270.741 173.642L274.941 173.642L277.03 177.273L274.941 180.904Z" fill="white"/>
<path d="M206.133 179.148L203.964 179.148L202.88 177.273L203.964 175.399L206.133 175.399L207.217 177.273L206.133 179.148Z" fill="white"/>
<path d="M137.049 179.345L134.664 179.345L133.481 177.273L134.664 175.201L137.049 175.201L138.252 177.273L137.049 179.345Z" fill="white"/>
<path d="M1020.98 416.986L1016.03 416.986L1013.55 412.684L1016.03 408.402L1020.98 408.402L1023.45 412.684L1020.98 416.986Z" fill="white"/>
<path d="M987.031 358.119L982.083 358.119L979.599 353.837L982.083 349.554L987.031 349.554L989.496 353.837L987.031 358.119Z" fill="white"/>
<path d="M952.706 298.442L948.724 298.442L946.713 294.989L948.724 291.515L952.706 291.515L954.698 294.989L952.706 298.442Z" fill="white"/>
<path d="M477.973 298.048L474.444 298.048L472.669 294.989L474.444 291.93L477.973 291.93L479.727 294.989L477.973 298.048Z" fill="white"/>
<path d="M409.579 297.021L407.233 297.021L406.07 294.988L407.233 292.956L409.579 292.956L410.762 294.988L409.579 297.021Z" fill="white"/>
<path d="M341.935 297.258L339.312 297.258L337.991 294.988L339.312 292.699L341.935 292.699L343.256 294.988L341.935 297.258Z" fill="white"/>
<path d="M275.118 298.916L270.564 298.916L268.296 294.989L270.564 291.042L275.118 291.042L277.385 294.989L275.118 298.916Z" fill="white"/>
<path d="M207.02 298.423L203.077 298.423L201.086 294.989L203.077 291.555L207.02 291.555L209.011 294.989L207.02 298.423Z" fill="white"/>
<path d="M918.145 591.734L915.286 591.734L913.867 589.248L915.286 586.781L918.145 586.781L919.584 589.248L918.145 591.734Z" fill="white"/>
<path d="M850.757 592.504L847.03 592.504L845.157 589.248L847.03 586.011L850.757 586.011L852.63 589.248L850.757 592.504Z" fill="white"/>
<path d="M512.199 593.55L507.25 593.55L504.786 589.247L507.25 584.965L512.199 584.965L514.683 589.247L512.199 593.55Z" fill="white"/>
<path d="M886.363 536.359L879.483 536.359L876.052 530.399L879.483 524.44L886.363 524.44L889.794 530.399L886.363 536.359Z" fill="white"/>
<path d="M817.694 534.84L812.587 534.84L810.024 530.399L812.587 525.979L817.694 525.979L820.257 530.399L817.694 534.84Z" fill="white"/>
<path d="M750.128 535.215L744.568 535.215L741.808 530.399L744.568 525.604L750.128 525.604L752.888 530.399L750.128 535.215Z" fill="white"/>
<path d="M477.874 533.3L474.523 533.3L472.847 530.399L474.523 527.498L477.874 527.498L479.55 530.399L477.874 533.3Z" fill="white"/>
<path d="M342.526 533.695L338.721 533.695L336.808 530.399L338.721 527.104L342.526 527.104L344.438 530.399L342.526 533.695Z" fill="white"/>
<path d="M986.992 711.185L982.122 711.185L979.677 706.962L982.122 702.739L986.992 702.739L989.437 706.962L986.992 711.185Z" fill="white"/>
<path d="M647.725 711.009L643.072 711.009L640.726 706.963L643.072 702.917L647.725 702.917L650.051 706.963L647.725 711.009Z" fill="white"/>
<path d="M817.969 653.029L812.291 653.029L809.472 648.115L812.291 643.201L817.969 643.201L820.808 648.115L817.969 653.029Z" fill="white"/>
<path d="M748.669 650.404L746.027 650.404L744.706 648.115L746.027 645.806L748.669 645.806L749.99 648.115L748.669 650.404Z" fill="white"/>
<path d="M918.539 827.836L914.892 827.836L913.078 824.678L914.892 821.521L918.539 821.521L920.373 824.678L918.539 827.836Z" fill="white"/>
</g>
<defs>
<clipPath id="clip0_596_5171">
<rect width="884" height="1054" fill="white" transform="translate(-1 884) rotate(-90)"/>
</clipPath>
</defs>
</svg>
