<svg width="21" height="22" viewBox="0 0 21 22" fill="none" xmlns="http://www.w3.org/2000/svg">
<g clip-path="url(#clip0_424_16263)">
<path d="M4.60673 9.04438C5.01613 7.80577 5.80624 6.72809 6.86434 5.96507C7.92243 5.20206 9.19447 4.7927 10.499 4.79537C11.9777 4.79537 13.3147 5.32037 14.3647 6.17963L17.4202 3.125C15.5582 1.50187 13.1721 0.5 10.499 0.5C6.36023 0.5 2.79723 2.86075 1.08398 6.31875L4.60673 9.04438Z" fill="#EA4335"/>
<path d="M14.0342 16.2613C13.0804 16.8764 11.8694 17.2045 10.4992 17.2045C9.19986 17.2072 7.93262 16.8011 6.87687 16.0437C5.82113 15.2863 5.03037 14.216 4.61654 12.9844L1.08154 15.668C1.94888 17.4235 3.29115 18.9006 4.95589 19.9315C6.62062 20.9624 8.5411 21.5057 10.4992 21.4999C13.0655 21.4999 15.5173 20.5873 17.3539 18.8749L14.035 16.2613H14.0342Z" fill="#34A853"/>
<path d="M17.3543 18.8756C19.2749 17.0836 20.5218 14.4166 20.5218 11.0006C20.5218 10.3793 20.4264 9.71168 20.2838 9.09131H10.4995V13.1487H16.131C15.8536 14.5128 15.1073 15.5689 14.0354 16.2619L17.3543 18.8756Z" fill="#4A90E2"/>
<path d="M4.61748 12.9846C4.40341 12.3449 4.29466 11.6747 4.29548 11.0001C4.29548 10.3158 4.40485 9.65872 4.60785 9.04447L1.0851 6.31885C0.364433 7.7737 -0.00706995 9.37655 0.000101898 11.0001C0.000101898 12.6801 0.389477 14.2638 1.08248 15.6682L4.61748 12.9846Z" fill="#FBBC05"/>
</g>
<defs>
<clipPath id="clip0_424_16263">
<rect width="21" height="21" fill="white" transform="translate(0 0.5)"/>
</clipPath>
</defs>
</svg>
