<svg width="77" height="77" viewBox="0 0 77 77" fill="none" xmlns="http://www.w3.org/2000/svg">
<g filter="url(#filter0_b_424_16252)">
<circle cx="38.5" cy="38.5" r="38.5" fill="white" fill-opacity="0.05"/>
<circle cx="38.5" cy="38.5" r="37.5" stroke="url(#paint0_linear_424_16252)" stroke-width="2"/>
<circle cx="38.5" cy="38.5" r="37.5" stroke="white" stroke-width="2"/>
</g>
<g clip-path="url(#clip0_424_16252)">
<path d="M34.965 49.8737C35.1015 49.8057 35.2163 49.7009 35.2966 49.5712C35.3769 49.4415 35.4194 49.292 35.4194 49.1395L35.4194 42.6976L60.306 38.8101C60.4993 38.78 60.6755 38.6818 60.8028 38.5332C60.93 38.3845 61 38.1953 61 37.9997L61 37.9931C60.9984 37.7965 60.9262 37.607 60.7965 37.4591C60.6669 37.3113 60.4884 37.2149 60.2937 37.1876L35.4194 33.6906L35.4194 26.8599C35.4194 26.7075 35.377 26.5582 35.2969 26.4286C35.2168 26.299 35.1022 26.1943 34.966 26.1262C34.8297 26.058 34.6772 26.0292 34.5254 26.0429C34.3737 26.0565 34.2288 26.1122 34.1069 26.2036L19.3282 37.3443C18.9658 37.6161 18.8923 38.1303 19.1641 38.4927C19.2108 38.5549 19.266 38.6101 19.3282 38.6567L34.1069 49.7966C34.2287 49.8877 34.3735 49.9432 34.525 49.9568C34.6765 49.9705 34.8289 49.9417 34.965 49.8737Z" fill="url(#paint1_linear_424_16252)"/>
</g>
<defs>
<filter id="filter0_b_424_16252" x="-10" y="-10" width="97" height="97" filterUnits="userSpaceOnUse" color-interpolation-filters="sRGB">
<feFlood flood-opacity="0" result="BackgroundImageFix"/>
<feGaussianBlur in="BackgroundImageFix" stdDeviation="5"/>
<feComposite in2="SourceAlpha" operator="in" result="effect1_backgroundBlur_424_16252"/>
<feBlend mode="normal" in="SourceGraphic" in2="effect1_backgroundBlur_424_16252" result="shape"/>
</filter>
<linearGradient id="paint0_linear_424_16252" x1="-8.38848" y1="130.41" x2="44.7089" y2="115.026" gradientUnits="userSpaceOnUse">
<stop stop-color="white"/>
<stop offset="1" stop-color="white" stop-opacity="0"/>
</linearGradient>
<linearGradient id="paint1_linear_424_16252" x1="61" y1="37.9998" x2="19" y2="37.9998" gradientUnits="userSpaceOnUse">
<stop stop-color="white" stop-opacity="0"/>
<stop offset="1" stop-color="white"/>
</linearGradient>
<clipPath id="clip0_424_16252">
<rect width="42" height="42" fill="white" transform="translate(61 17) rotate(90)"/>
</clipPath>
</defs>
</svg>
