<svg width="822" height="617" viewBox="0 0 822 617" fill="none" xmlns="http://www.w3.org/2000/svg">
<g style="mix-blend-mode:overlay" clip-path="url(#clip0_451_8589)">
<g opacity="0.5">
<path d="M-5.44536 376.445L64.009 416.549L64.009 496.734L63.7318 496.896L-5.44537 536.838L-74.8998 496.734L-74.8998 416.549L-74.6225 416.387L-5.44536 376.445ZM62.9231 417.173L-5.44536 377.716L-73.8138 417.173L-73.8138 496.087L-5.44537 535.544L62.9231 496.087L62.9231 417.173Z" fill="#D0D9DD"/>
</g>
<path opacity="0.5" d="M63.4543 -140.657L63.7316 -140.495L132.909 -100.553L132.909 -20.3676L132.631 -20.2059L63.4543 19.7363L-6.00012 -20.3676L-6.00011 -100.553L-5.72286 -100.714L63.4543 -140.657ZM131.823 -99.9288L63.4543 -139.386L-4.91424 -99.9288L-4.91424 -21.0145L63.4543 18.4427L131.823 -21.0145L131.823 -99.9288Z" fill="#D0D9DD"/>
<path opacity="0.5" d="M63.4543 98.0035L132.909 138.108L132.909 218.292L132.631 218.454L63.4543 258.396L-6.00012 218.292L-6.00011 138.108L-5.72286 137.946L63.4543 98.0035ZM131.823 138.731L63.4543 99.2741L-4.91424 138.731L-4.91424 217.646L63.4543 257.103L131.823 217.646L131.823 138.731Z" fill="#D0D9DD"/>
<path opacity="0.5" d="M270.177 -21.3382L270.454 -21.1765L339.632 18.7658L339.632 98.9507L339.354 99.1124L270.177 139.055L200.723 98.9507L200.723 18.7658L201 18.6041L270.177 -21.3382ZM338.546 19.3895L270.177 -20.0676L201.809 19.3895L201.809 98.3038L270.177 137.761L338.546 98.3038L338.546 19.3895Z" fill="#D0D9DD"/>
<path opacity="0.5" d="M339.1 18.443L408.554 58.547L408.554 138.732L408.277 138.894L339.1 178.836L269.646 138.732L269.646 58.547L269.923 58.3853L339.1 18.443ZM407.469 59.1708L339.1 19.7136L270.732 59.1707L270.732 138.085L339.1 177.542L407.468 138.085L407.469 59.1708Z" fill="#D0D9DD"/>
<path opacity="0.5" d="M132.377 217.345L201.832 257.449L201.832 337.634L201.555 337.796L132.377 377.738L62.923 337.634L62.923 257.449L63.2002 257.288L132.377 217.345ZM200.746 258.073L132.377 218.616L64.0089 258.073L64.0089 336.987L132.377 376.445L200.746 336.987L200.746 258.073Z" fill="#D0D9DD"/>
<path opacity="0.5" d="M132.377 58.2233L201.832 98.3273L201.832 178.512L201.555 178.674L132.377 218.616L62.923 178.512L62.923 98.3273L63.2002 98.1656L132.377 58.2233ZM200.746 98.951L132.377 59.4939L64.0089 98.951L64.0089 177.865L132.377 217.323L200.746 177.865L200.746 98.951Z" fill="#D0D9DD"/>
<path opacity="0.5" d="M339.1 -140.657L339.377 -140.495L408.554 -100.553L408.554 -20.3676L408.277 -20.2059L339.1 19.7363L269.646 -20.3676L269.646 -100.553L269.923 -100.714L339.1 -140.657ZM407.469 -99.9288L339.1 -139.386L270.732 -99.9288L270.732 -21.0145L339.1 18.4427L407.468 -21.0145L407.469 -99.9288Z" fill="#D0D9DD"/>
<path d="M132.377 -21.6381L132.793 -21.4071L202.109 18.6045L202.109 99.1129L201.693 99.3439L132.377 139.355L62.6458 99.1129L62.6458 18.6045L63.0617 18.3735L132.377 -21.6381ZM200.469 19.5748L132.377 -19.7207L64.2863 19.5748L64.2863 98.1657L132.377 137.461L200.469 98.1657L200.469 19.5748Z" fill="white"/>
<path d="M-5.4455 -101.2L-5.02963 -100.969L64.2861 -60.957L64.2861 19.5513L63.8703 19.7824L-5.44552 59.7939L-75.1772 19.5513L-75.1772 -60.957L-74.7613 -61.188L-5.4455 -101.2ZM62.6457 -59.9867L-5.4455 -99.2822L-73.5367 -59.9867L-73.5367 18.6042L-5.44552 57.8996L62.6457 18.6042L62.6457 -59.9867Z" fill="white"/>
<path d="M-5.4455 296.584L64.2861 336.826L64.2861 417.335L63.8703 417.566L-5.44552 457.577L-75.1772 417.335L-75.1772 336.826L-74.7613 336.595L-5.4455 296.584ZM62.6457 337.796L-5.4455 298.501L-73.5367 337.796L-73.5367 416.387L-5.44552 455.683L62.6457 416.387L62.6457 337.796Z" fill="white"/>
<path d="M63.4544 -61.4184L63.8703 -61.1874L133.186 -21.1757L133.186 59.3326L132.77 59.5636L63.4544 99.5752L-6.27736 59.3326L-6.27735 -21.1758L-5.86139 -21.4068L63.4544 -61.4184ZM131.546 -20.2055L63.4544 -59.5009L-4.63683 -20.2055L-4.63684 58.3854L63.4544 97.6809L131.546 58.3854L131.546 -20.2055Z" fill="white"/>
<path d="M63.4544 177.242L133.186 217.484L133.186 297.993L132.77 298.224L63.4544 338.235L-6.27736 297.993L-6.27735 217.484L-5.86139 217.253L63.4544 177.242ZM131.546 218.455L63.4544 179.159L-4.63683 218.455L-4.63684 297.046L63.4544 336.341L131.546 297.046L131.546 218.455Z" fill="white"/>
<path d="M408 -101.2L408.416 -100.969L477.732 -60.957L477.732 19.5513L477.316 19.7824L408 59.7939L338.268 19.5513L338.268 -60.957L338.684 -61.188L408 -101.2ZM476.091 -59.9867L408 -99.2822L339.909 -59.9867L339.909 18.6042L408 57.8996L476.091 18.6042L476.091 -59.9867Z" fill="white"/>
<path d="M408 57.9L477.732 98.1426L477.732 178.651L477.316 178.882L408 218.894L338.268 178.651L338.268 98.1426L338.684 97.9116L408 57.9ZM476.091 99.1129L408 59.8174L339.909 99.1129L339.909 177.704L408 216.999L476.091 177.704L476.091 99.1129Z" fill="white"/>
<path opacity="0.5" d="M65.3953 96.942L65.3953 99.1597L63.4544 100.269L61.5367 99.1597L61.5367 96.9419L63.4544 95.81L65.3953 96.942Z" fill="#D0D9DD"/>
<path opacity="0.5" d="M65.0488 176.595L65.0488 178.443L63.4546 179.367L61.8603 178.443L61.8603 176.595L63.4546 175.671L65.0488 176.595Z" fill="#D0D9DD"/>
<path opacity="0.5" d="M68.168 254.285L68.168 259.737L63.4545 262.463L58.7411 259.737L58.7411 254.285L63.4545 251.559L68.168 254.285Z" fill="#D0D9DD"/>
<path opacity="0.5" d="M68.2603 333.708L68.2603 339.252L63.4544 342.024L58.6716 339.252L58.6716 333.708L63.4544 330.936L68.2603 333.708Z" fill="#D0D9DD"/>
<path opacity="0.5" d="M0.400147 532.818L0.400147 539.564L-5.44548 542.937L-11.2911 539.564L-11.2911 532.818L-5.44548 529.445L0.400147 532.818Z" fill="#D0D9DD"/>
<path opacity="0.5" d="M341.573 96.6182L341.573 99.4827L339.1 100.915L336.605 99.4827L336.605 96.6182L339.1 95.1628L341.573 96.6182Z" fill="#D0D9DD"/>
<path opacity="0.5" d="M483.947 93.9848L483.947 102.093L476.9 106.159L469.876 102.093L469.876 93.9848L476.9 89.942L483.947 93.9848Z" fill="#D0D9DD"/>
<path opacity="0.5" d="M412.991 134.389L412.991 140.164L408 143.052L403.009 140.164L403.009 134.389L408 131.501L412.991 134.389Z" fill="#D0D9DD"/>
<path opacity="0.5" d="M208.07 253.823L208.07 261.655L201.277 265.582L194.484 261.655L194.484 253.823L201.277 249.919L208.07 253.823Z" fill="#D0D9DD"/>
<path d="M346.609 14.2159L346.609 22.902L339.1 27.2451L331.568 22.902L331.568 14.2159L339.1 9.87287L346.609 14.2159Z" fill="white"/>
<path d="M343.074 175.232L343.074 179.829L339.1 182.116L335.126 179.829L335.126 175.232L339.1 172.922L343.074 175.232Z" fill="white"/>
<path d="M66.2502 414.354L66.2502 417.566L63.4545 419.183L60.6819 417.566L60.6819 414.354L63.4545 412.76L66.2502 414.354Z" fill="white"/>
<path d="M69.3 492.068L69.3 498.814L63.4544 502.187L57.6319 498.814L57.6319 492.068L63.4544 488.718L69.3 492.068Z" fill="white"/>
<path d="M135.959 55.775L135.959 59.9101L132.377 61.9893L128.796 59.9101L128.796 55.775L132.377 53.719L135.959 55.775Z" fill="white"/>
<path d="M134.757 135.913L134.757 138.662L132.377 140.025L129.998 138.662L129.998 135.913L132.377 134.527L134.757 135.913Z" fill="white"/>
<path d="M135.034 215.175L135.034 218.247L132.377 219.795L129.697 218.247L129.697 215.175L132.377 213.627L135.034 215.175Z" fill="white"/>
<path d="M136.975 293.465L136.975 298.801L132.377 301.458L127.756 298.801L127.756 293.465L132.377 290.808L136.975 293.465Z" fill="white"/>
<path d="M136.398 373.257L136.398 377.878L132.377 380.211L128.357 377.878L128.357 373.257L132.377 370.924L136.398 373.257Z" fill="white"/>
<path d="M481.937 15.6714L481.937 21.4697L476.9 24.3574L471.886 21.4697L471.886 15.6713L476.9 12.7606L481.937 15.6714Z" fill="white"/>
<path d="M411.396 55.8904L411.396 59.8176L408 61.7812L404.604 59.8176L404.604 55.8904L408 53.9268L411.396 55.8904Z" fill="white"/>
<path d="M411.859 214.481L411.859 218.94L408 221.181L404.141 218.94L404.141 214.481L408 212.24L411.859 214.481Z" fill="white"/>
</g>
<defs>
<clipPath id="clip0_451_8589">
<rect width="1035" height="1235" fill="white" transform="translate(822 617) rotate(-180)"/>
</clipPath>
</defs>
</svg>
