<svg
    xmlns="http://www.w3.org/2000/svg"
    viewBox="0 0 259 45"
    fill="none"
  >
    <path
      fill-rule="evenodd"
      clip-rule="evenodd"
      d="M247.323 41.4636H223.055L201.806 25.724L189.942 34.5125V41.6022H28.0819C12.6135 41.6022 0 32.2763 0 20.801C0 9.32565 12.6135 -0.000244141 28.0819 -0.000244141H259L229.514 21.8411H206.557V20.1076H228.554L253.36 1.73319H28.0819C13.9005 1.73319 2.34016 10.279 2.34016 20.801C2.34016 31.323 13.9005 39.8688 28.0819 39.8688H187.602V33.7844L201.806 23.2625L224.015 39.7301H247.206L252.097 36.1072L258.111 40.5448L252.097 44.9998L247.323 41.4636ZM254.811 40.5622L252.12 38.5687L249.405 40.5622L252.12 42.5556L254.811 40.5622Z"
      fill="url(#paint0_linear_424_676)"
    />
    <defs>
      <linearGradient
        id="paint0_linear_424_676"
        x1="-1.5843e-06"
        y1="21.4409"
        x2="209.172"
        y2="25.0241"
        gradientUnits="userSpaceOnUse"
      >
        <stop stop-color="#F93099" />
        <stop offset="1" stop-color="#EB80E9" />
      </linearGradient>
    </defs>
  </svg>