<svg width="1077" height="1786" viewBox="0 0 1077 1786" fill="none" xmlns="http://www.w3.org/2000/svg">
<g opacity="0.3" filter="url(#filter0_f_596_5660)">
<circle cx="183.667" cy="892.667" r="348.667" fill="#B95DFE"/>
</g>
<g style="mix-blend-mode:overlay" clip-path="url(#clip0_596_5660)">
<path opacity="0.5" d="M369.046 938.339L369.206 938.433L409.106 961.471L409.106 1007.72L408.946 1007.81L369.046 1030.85L368.886 1030.76L328.986 1007.72L328.986 961.471L329.146 961.377L369.046 938.339ZM408.48 961.831L369.046 939.072L329.612 961.831L329.612 1007.35L369.046 1030.11L408.48 1007.35L408.48 961.831Z" fill="#D0D9DD"/>
<path opacity="0.5" d="M11.3418 823.615L11.5017 823.708L51.4021 846.746L51.4021 892.996L51.2422 893.089L11.3418 916.127L11.1818 916.034L-28.7185 892.996L-28.7185 846.746L-28.5586 846.653L11.3418 823.615ZM50.7757 847.106L11.3418 824.347L-28.0921 847.106L-28.0922 892.622L11.3418 915.381L50.7757 892.622L50.7757 847.106Z" fill="#D0D9DD"/>
<path opacity="0.5" d="M11.3418 869.505L11.5017 869.599L51.4021 892.637L51.4021 938.886L51.2422 938.979L11.3418 962.018L11.1818 961.924L-28.7185 938.886L-28.7185 892.637L-28.5586 892.543L11.3418 869.505ZM50.7757 892.996L11.3418 870.238L-28.0921 892.996L-28.0922 938.513L11.3418 961.271L50.7757 938.513L50.7757 892.996Z" fill="#D0D9DD"/>
<path opacity="0.5" d="M11.3418 915.394L11.5017 915.487L51.4021 938.525L51.4021 984.775L51.2422 984.868L11.3418 1007.91L11.1818 1007.81L-28.7185 984.775L-28.7185 938.525L-28.5586 938.432L11.3418 915.394ZM50.7757 938.885L11.3418 916.127L-28.0921 938.885L-28.0922 984.402L11.3418 1007.16L50.7757 984.402L50.7757 938.885Z" fill="#D0D9DD"/>
<path opacity="0.5" d="M11.3418 1053.05L11.5017 1053.14L51.4021 1076.18L51.4021 1122.43L51.2422 1122.52L11.3418 1145.56L11.1818 1145.47L-28.7185 1122.43L-28.7185 1076.18L-28.5586 1076.09L11.3418 1053.05ZM50.7757 1076.54L11.3418 1053.78L-28.0921 1076.54L-28.0922 1122.06L11.3418 1144.82L50.7757 1122.06L50.7757 1076.54Z" fill="#D0D9DD"/>
<path opacity="0.5" d="M11.3418 1144.82L11.5017 1144.91L51.4021 1167.95L51.4021 1214.2L51.2422 1214.29L11.3418 1237.33L-28.7185 1214.2L-28.7185 1167.95L-28.5586 1167.85L11.3418 1144.82ZM50.7757 1168.31L11.3418 1145.55L-28.0921 1168.31L-28.0922 1213.82L11.3418 1236.58L50.7757 1213.82L50.7757 1168.31Z" fill="#D0D9DD"/>
<path opacity="0.5" d="M11.3418 1282.49L51.4021 1305.62L51.4021 1351.87L51.2422 1351.96L11.3418 1375L-28.7185 1351.87L-28.7185 1305.62L-28.5586 1305.52L11.3418 1282.49ZM50.7757 1305.98L11.3418 1283.22L-28.0921 1305.98L-28.0922 1351.49L11.3418 1374.25L50.7757 1351.49L50.7757 1305.98Z" fill="#D0D9DD"/>
<path opacity="0.5" d="M11.3418 1328.36L51.4021 1351.49L51.4021 1397.74L51.2422 1397.84L11.3418 1420.87L-28.7185 1397.74L-28.7185 1351.49L-28.5586 1351.4L11.3418 1328.36ZM50.7757 1351.85L11.3418 1329.1L-28.0921 1351.85L-28.0922 1397.37L11.3418 1420.13L50.7757 1397.37L50.7757 1351.85Z" fill="#D0D9DD"/>
<path opacity="0.5" d="M11.3418 1420.14L51.4021 1443.27L51.4021 1489.52L51.2422 1489.62L11.3418 1512.64L-28.7185 1489.51L-28.7185 1443.26L-28.5586 1443.17L11.3418 1420.13L11.3418 1420.14ZM50.7757 1443.63L11.3418 1420.87L-28.0921 1443.63L-28.0922 1489.15L11.3418 1511.91L50.7757 1489.15L50.7757 1443.63Z" fill="#D0D9DD"/>
<path opacity="0.5" d="M51.0955 800.669L51.2554 800.763L91.1558 823.801L91.1558 870.05L90.9958 870.144L51.0955 893.182L50.9355 893.088L11.0352 870.05L11.0352 823.801L11.1951 823.707L51.0955 800.669ZM90.5294 824.161L51.0955 801.402L11.6615 824.161L11.6615 869.677L51.0955 892.435L90.5294 869.677L90.5294 824.161Z" fill="#D0D9DD"/>
<path opacity="0.5" d="M51.0955 846.56L51.2554 846.653L91.1558 869.691L91.1558 915.941L90.9958 916.034L51.0955 939.072L50.9355 938.979L11.0352 915.941L11.0352 869.691L11.1951 869.598L51.0955 846.56ZM90.5294 870.051L51.0955 847.293L11.6615 870.051L11.6615 915.568L51.0955 938.326L90.5294 915.568L90.5294 870.051Z" fill="#D0D9DD"/>
<path opacity="0.5" d="M51.0957 984.216L51.2556 984.309L91.156 1007.35L91.156 1053.6L90.9961 1053.69L51.0957 1076.73L50.9358 1076.64L11.0354 1053.6L11.0354 1007.35L11.1953 1007.25L51.0957 984.216ZM90.5297 1007.71L51.0957 984.949L11.6618 1007.71L11.6618 1053.22L51.0957 1075.98L90.5296 1053.22L90.5297 1007.71Z" fill="#D0D9DD"/>
<path opacity="0.5" d="M51.0957 1030.1L51.2556 1030.2L91.156 1053.24L91.156 1099.49L90.9961 1099.58L51.0957 1122.62L50.9358 1122.52L11.0354 1099.49L11.0354 1053.24L11.1953 1053.14L51.0957 1030.1ZM90.5297 1053.6L51.0957 1030.84L11.6618 1053.6L11.6618 1099.11L51.0957 1121.87L90.5296 1099.11L90.5297 1053.6Z" fill="#D0D9DD"/>
<path opacity="0.5" d="M51.0955 1213.65L91.1558 1236.78L91.1558 1283.03L90.9958 1283.13L51.0955 1306.16L11.0352 1283.03L11.0352 1236.78L11.1951 1236.69L51.0955 1213.65ZM90.5294 1237.14L51.0955 1214.38L11.6615 1237.14L11.6615 1282.66L51.0955 1305.42L90.5294 1282.66L90.5294 1237.14Z" fill="#D0D9DD"/>
<path opacity="0.5" d="M51.0957 1259.54L91.156 1282.67L91.156 1328.92L90.9961 1329.01L51.0957 1352.05L11.0354 1328.92L11.0354 1282.67L11.1953 1282.58L51.0957 1259.54ZM90.5297 1283.03L51.0957 1260.27L11.6618 1283.03L11.6618 1328.55L51.0957 1351.31L90.5296 1328.55L90.5297 1283.03Z" fill="#D0D9DD"/>
<path opacity="0.5" d="M90.8359 823.615L90.9959 823.708L130.896 846.746L130.896 892.996L130.736 893.089L90.8359 916.127L90.676 916.034L50.7756 892.996L50.7756 846.746L50.9355 846.653L90.8359 823.615ZM130.27 847.106L90.8359 824.347L51.402 847.106L51.402 892.622L90.8359 915.381L130.27 892.622L130.27 847.106Z" fill="#D0D9DD"/>
<path opacity="0.5" d="M90.8362 961.285L90.9961 961.378L130.896 984.416L130.896 1030.67L130.737 1030.76L90.8362 1053.8L90.6763 1053.7L50.7759 1030.67L50.7759 984.416L50.9358 984.323L90.8362 961.285ZM130.27 984.776L90.8362 962.017L51.4022 984.776L51.4022 1030.29L90.8362 1053.05L130.27 1030.29L130.27 984.776Z" fill="#D0D9DD"/>
<path opacity="0.5" d="M90.8359 1053.05L90.9959 1053.14L130.896 1076.18L130.896 1122.43L130.736 1122.52L90.8359 1145.56L90.676 1145.47L50.7756 1122.43L50.7756 1076.18L50.9355 1076.09L90.8359 1053.05ZM130.27 1076.54L90.8359 1053.78L51.402 1076.54L51.402 1122.06L90.8359 1144.82L130.27 1122.06L130.27 1076.54Z" fill="#D0D9DD"/>
<g opacity="0.5">
<path d="M90.8362 1374.25L130.896 1397.38L130.896 1443.63L130.737 1443.73L90.8362 1466.76L50.7759 1443.63L50.7759 1397.38L50.9358 1397.29L90.8362 1374.25ZM130.27 1397.74L90.8362 1374.98L51.4022 1397.74L51.4022 1443.26L90.8362 1466.02L130.27 1443.26L130.27 1397.74Z" fill="#D0D9DD"/>
</g>
<path opacity="0.5" d="M130.576 846.56L130.736 846.653L170.637 869.691L170.637 915.941L170.477 916.034L130.576 939.072L130.416 938.979L90.5161 915.941L90.5161 869.691L90.676 869.598L130.576 846.56ZM170.01 870.051L130.576 847.293L91.1424 870.051L91.1424 915.568L130.576 938.326L170.01 915.568L170.01 870.051Z" fill="#D0D9DD"/>
<path opacity="0.5" d="M130.576 892.449L130.736 892.542L170.637 915.58L170.637 961.83L170.477 961.923L130.576 984.961L130.416 984.868L90.5161 961.83L90.5161 915.58L90.676 915.487L130.576 892.449ZM170.01 915.94L130.576 893.181L91.1424 915.94L91.1424 961.456L130.576 984.215L170.01 961.456L170.01 915.94Z" fill="#D0D9DD"/>
<path opacity="0.5" d="M130.577 1030.1L130.737 1030.2L170.637 1053.24L170.637 1099.49L170.477 1099.58L130.577 1122.62L130.417 1122.52L90.5164 1099.49L90.5164 1053.24L90.6763 1053.14L130.577 1030.1ZM170.011 1053.6L130.577 1030.84L91.1427 1053.6L91.1427 1099.11L130.577 1121.87L170.011 1099.11L170.011 1053.6Z" fill="#D0D9DD"/>
<path opacity="0.5" d="M130.576 1076L130.736 1076.09L170.637 1099.13L170.637 1145.38L170.477 1145.47L130.576 1168.51L90.5161 1145.38L90.5161 1099.13L90.676 1099.03L130.576 1076ZM170.01 1099.49L130.576 1076.73L91.1424 1099.49L91.1424 1145L130.576 1167.76L170.01 1145L170.01 1099.49Z" fill="#D0D9DD"/>
<path opacity="0.5" d="M130.576 1213.65L170.637 1236.78L170.637 1283.03L170.477 1283.13L130.576 1306.16L90.5161 1283.03L90.5161 1236.78L90.676 1236.69L130.576 1213.65ZM170.01 1237.14L130.576 1214.38L91.1424 1237.14L91.1424 1282.66L130.576 1305.42L170.01 1282.66L170.01 1237.14Z" fill="#D0D9DD"/>
<path opacity="0.5" d="M249.811 823.615L249.971 823.708L289.872 846.746L289.872 892.996L289.712 893.089L249.811 916.127L249.651 916.034L209.751 892.996L209.751 846.746L209.911 846.653L249.811 823.615ZM289.245 847.106L249.811 824.347L210.377 847.106L210.377 892.622L249.811 915.381L289.245 892.622L289.245 847.106Z" fill="#D0D9DD"/>
<path opacity="0.5" d="M249.811 961.285L249.971 961.378L289.872 984.416L289.872 1030.67L289.712 1030.76L249.811 1053.8L249.651 1053.7L209.751 1030.67L209.751 984.416L209.911 984.323L249.811 961.285ZM289.245 984.776L249.811 962.017L210.377 984.776L210.377 1030.29L249.811 1053.05L289.245 1030.29L289.245 984.776Z" fill="#D0D9DD"/>
<path opacity="0.5" d="M249.811 1144.82L249.971 1144.91L289.871 1167.95L289.871 1214.2L289.711 1214.29L249.811 1237.33L209.751 1214.2L209.751 1167.95L209.911 1167.85L249.811 1144.82ZM289.245 1168.31L249.811 1145.55L210.377 1168.31L210.377 1213.82L249.811 1236.58L289.245 1213.82L289.245 1168.31Z" fill="#D0D9DD"/>
<path opacity="0.5" d="M289.565 800.669L289.725 800.763L329.625 823.801L329.625 870.05L329.465 870.144L289.565 893.182L289.405 893.088L249.505 870.05L249.505 823.801L249.665 823.707L289.565 800.669ZM328.999 824.161L289.565 801.402L250.131 824.161L250.131 869.677L289.565 892.435L328.999 869.677L328.999 824.161Z" fill="#D0D9DD"/>
<path opacity="0.5" d="M289.565 892.449L289.725 892.542L329.625 915.58L329.625 961.83L329.466 961.923L289.565 984.961L289.405 984.868L249.505 961.83L249.505 915.58L249.665 915.487L289.565 892.449ZM328.999 915.94L289.565 893.181L250.131 915.94L250.131 961.456L289.565 984.215L328.999 961.456L328.999 915.94Z" fill="#D0D9DD"/>
<path opacity="0.5" d="M289.565 984.216L289.725 984.309L329.625 1007.35L329.625 1053.6L329.466 1053.69L289.565 1076.73L289.405 1076.64L249.505 1053.6L249.505 1007.35L249.665 1007.25L289.565 984.216ZM328.999 1007.71L289.565 984.949L250.131 1007.71L250.131 1053.22L289.565 1075.98L328.999 1053.22L328.999 1007.71Z" fill="#D0D9DD"/>
<path opacity="0.5" d="M289.565 1030.1L289.725 1030.2L329.625 1053.24L329.625 1099.49L329.466 1099.58L289.565 1122.62L289.405 1122.52L249.505 1099.49L249.505 1053.24L249.665 1053.14L289.565 1030.1ZM328.999 1053.6L289.565 1030.84L250.131 1053.6L250.131 1099.11L289.565 1121.87L328.999 1099.11L328.999 1053.6Z" fill="#D0D9DD"/>
<path opacity="0.5" d="M289.565 1167.76L329.625 1190.89L329.625 1237.14L329.465 1237.24L289.565 1260.27L249.505 1237.14L249.505 1190.89L249.665 1190.8L289.565 1167.76ZM328.999 1191.25L289.565 1168.49L250.131 1191.25L250.131 1236.77L289.565 1259.53L328.999 1236.77L328.999 1191.25Z" fill="#D0D9DD"/>
<path opacity="0.5" d="M329.305 823.615L329.465 823.708L369.366 846.746L369.366 892.996L369.206 893.089L329.305 916.127L329.145 916.034L289.245 892.996L289.245 846.746L289.405 846.653L329.305 823.615ZM368.739 847.106L329.305 824.347L289.871 847.106L289.871 892.622L329.305 915.381L368.739 892.622L368.739 847.106Z" fill="#D0D9DD"/>
<path opacity="0.5" d="M329.305 1053.05L329.465 1053.14L369.366 1076.18L369.366 1122.43L369.206 1122.52L329.305 1145.56L329.145 1145.47L289.245 1122.43L289.245 1076.18L289.405 1076.09L329.305 1053.05ZM368.739 1076.54L329.305 1053.78L289.871 1076.54L289.871 1122.06L329.305 1144.82L368.739 1122.06L368.739 1076.54Z" fill="#D0D9DD"/>
<path opacity="0.5" d="M369.046 846.56L369.206 846.653L409.106 869.691L409.106 915.941L408.946 916.034L369.046 939.072L368.886 938.979L328.986 915.941L328.986 869.691L329.146 869.598L369.046 846.56ZM408.48 870.051L369.046 847.293L329.612 870.051L329.612 915.568L369.046 938.326L408.48 915.568L408.48 870.051Z" fill="#D0D9DD"/>
<path opacity="0.5" d="M408.8 915.394L408.96 915.487L448.86 938.525L448.86 984.775L448.7 984.868L408.8 1007.91L408.64 1007.81L368.739 984.775L368.74 938.525L368.899 938.432L408.8 915.394ZM448.234 938.885L408.8 916.127L369.366 938.885L369.366 984.402L408.8 1007.16L448.234 984.402L448.234 938.885Z" fill="#D0D9DD"/>
<path opacity="0.5" d="M528.034 846.56L528.194 846.653L568.095 869.691L568.095 915.941L567.935 916.034L528.034 939.072L527.874 938.979L487.974 915.941L487.974 869.691L488.134 869.598L528.034 846.56ZM567.455 870.051L528.021 847.293L488.587 870.051L488.587 915.568L528.021 938.326L567.455 915.568L567.455 870.051Z" fill="#D0D9DD"/>
<path opacity="0.5" d="M170.33 823.615L170.49 823.708L210.391 846.746L210.391 892.996L210.231 893.089L170.33 916.127L170.17 916.034L130.27 892.996L130.27 846.746L130.43 846.653L170.33 823.615ZM209.764 847.106L170.33 824.347L130.896 847.106L130.896 892.622L170.33 915.381L209.764 892.623L209.764 847.106Z" fill="#D0D9DD"/>
<path opacity="0.5" d="M170.33 869.505L170.49 869.599L210.391 892.637L210.391 938.886L210.231 938.979L170.33 962.018L170.17 961.924L130.27 938.886L130.27 892.637L130.43 892.543L170.33 869.505ZM209.764 892.996L170.33 870.238L130.896 892.996L130.896 938.513L170.33 961.271L209.764 938.513L209.764 892.996Z" fill="#D0D9DD"/>
<path opacity="0.5" d="M170.33 915.394L170.49 915.487L210.391 938.525L210.391 984.775L210.231 984.868L170.33 1007.91L170.17 1007.81L130.27 984.775L130.27 938.525L130.43 938.432L170.33 915.394ZM209.764 938.885L170.33 916.127L130.896 938.885L130.896 984.402L170.33 1007.16L209.764 984.402L209.764 938.885Z" fill="#D0D9DD"/>
<path opacity="0.5" d="M170.33 1053.05L170.49 1053.14L210.391 1076.18L210.391 1122.43L210.231 1122.52L170.33 1145.56L170.17 1145.47L130.27 1122.43L130.27 1076.18L130.43 1076.09L170.33 1053.05ZM209.764 1076.54L170.33 1053.78L130.896 1076.54L130.896 1122.06L170.33 1144.82L209.764 1122.06L209.764 1076.54Z" fill="#D0D9DD"/>
<path opacity="0.5" d="M170.33 1282.49L210.391 1305.62L210.391 1351.87L210.231 1351.96L170.33 1375L130.27 1351.87L130.27 1305.62L130.43 1305.52L170.33 1282.49ZM209.764 1305.98L170.33 1283.22L130.896 1305.98L130.896 1351.49L170.33 1374.25L209.764 1351.49L209.764 1305.98Z" fill="#D0D9DD"/>
<path opacity="0.5" d="M170.33 1190.71L210.391 1213.84L210.391 1260.09L210.231 1260.18L170.33 1283.22L130.27 1260.09L130.27 1213.84L130.43 1213.74L170.33 1190.71ZM209.764 1214.2L170.33 1191.44L130.896 1214.2L130.896 1259.71L170.33 1282.47L209.764 1259.71L209.764 1214.2Z" fill="#D0D9DD"/>
<path opacity="0.5" d="M289.565 1076L289.725 1076.09L329.625 1099.13L329.625 1145.38L329.465 1145.47L289.565 1168.51L249.505 1145.38L249.505 1099.13L249.665 1099.03L289.565 1076ZM328.999 1099.49L289.565 1076.73L250.131 1099.49L250.131 1145L289.565 1167.76L328.999 1145L328.999 1099.49Z" fill="#D0D9DD"/>
<path d="M408.8 1006.61L409.04 1006.75L449.02 1029.83L449.02 1076.26L448.78 1076.39L408.8 1099.47L408.56 1099.34L368.58 1076.26L368.58 1029.83L368.819 1029.69L408.8 1006.61ZM448.074 1030.38L408.8 1007.72L369.526 1030.38L369.526 1075.72L408.8 1098.38L448.074 1075.72L448.074 1030.38Z" fill="white"/>
<path d="M130.577 984.042L130.817 984.175L170.797 1007.25L170.797 1053.69L170.557 1053.82L130.577 1076.9L130.337 1076.77L90.3564 1053.69L90.3564 1007.25L90.5963 1007.12L130.577 984.042ZM169.851 1007.81L130.577 985.148L91.3026 1007.81L91.3026 1053.14L130.577 1075.81L169.851 1053.14L169.851 1007.81Z" fill="white"/>
<path d="M11.3418 1006.99L11.5817 1007.12L51.562 1030.2L51.562 1076.63L51.3221 1076.77L11.3418 1099.85L11.1019 1099.71L-28.8785 1076.63L-28.8785 1030.2L-28.6386 1030.07L11.3418 1006.99ZM50.6158 1030.76L11.3418 1008.09L-27.9322 1030.76L-27.9322 1076.09L11.3418 1098.75L50.6158 1076.09L50.6158 1030.76Z" fill="white"/>
<path d="M11.3418 1236.41L51.562 1259.62L51.562 1306.06L51.3221 1306.19L11.3418 1329.27L-28.8785 1306.06L-28.8785 1259.62L-28.6386 1259.49L11.3418 1236.41ZM50.6158 1260.18L11.3418 1237.51L-27.9322 1260.18L-27.9322 1305.51L11.3418 1328.17L50.6158 1305.51L50.6158 1260.18Z" fill="white"/>
<path d="M170.33 1144.64L170.57 1144.78L210.551 1167.85L210.551 1214.29L210.311 1214.42L170.33 1237.5L130.11 1214.29L130.11 1167.85L130.35 1167.72L170.33 1144.64ZM209.604 1168.41L170.33 1145.75L131.056 1168.41L131.056 1213.74L170.33 1236.41L209.604 1213.74L209.604 1168.41Z" fill="white"/>
<path d="M170.33 1006.99L170.57 1007.12L210.551 1030.2L210.551 1076.63L210.311 1076.77L170.33 1099.85L170.09 1099.71L130.11 1076.63L130.11 1030.2L130.35 1030.07L170.33 1006.99ZM209.604 1030.76L170.33 1008.09L131.056 1030.76L131.056 1076.09L170.33 1098.75L209.604 1076.09L209.604 1030.76Z" fill="white"/>
<path d="M249.811 1052.86L250.051 1053L290.032 1076.08L290.031 1122.51L289.792 1122.64L249.811 1145.72L249.571 1145.59L209.591 1122.51L209.591 1076.08L209.831 1075.94L249.811 1052.86ZM289.085 1076.63L249.811 1053.97L210.537 1076.63L210.537 1121.96L249.811 1144.63L289.085 1121.96L289.085 1076.63Z" fill="white"/>
<path d="M51.0955 1121.7L51.3353 1121.83L91.3157 1144.91L91.3157 1191.35L91.0758 1191.48L51.0955 1214.56L10.8752 1191.35L10.8752 1144.91L11.1151 1144.78L51.0955 1121.7ZM90.3695 1145.47L51.0955 1122.8L11.8214 1145.47L11.8214 1190.8L51.0955 1213.46L90.3695 1190.8L90.3695 1145.47Z" fill="white"/>
<path d="M51.0955 1167.57L91.3157 1190.79L91.3157 1237.22L91.0758 1237.36L51.0955 1260.43L10.8752 1237.22L10.8752 1190.79L11.1151 1190.65L51.0955 1167.57ZM90.3695 1191.35L51.0955 1168.68L11.8214 1191.35L11.8214 1236.68L51.0955 1259.34L90.3695 1236.68L90.3695 1191.35Z" fill="white"/>
<path d="M90.8359 869.319L91.0758 869.452L131.056 892.53L131.056 938.966L130.816 939.1L90.8359 962.178L90.5961 962.045L50.6157 938.966L50.6157 892.53L50.8556 892.397L90.8359 869.319ZM130.11 893.09L90.8359 870.425L51.5619 893.09L51.5619 938.42L90.8359 961.085L130.11 938.42L130.11 893.09Z" fill="white"/>
<path d="M90.8359 1098.75L91.0758 1098.89L131.056 1121.96L131.056 1168.4L130.816 1168.53L90.8359 1191.61L50.6157 1168.4L50.6157 1121.96L50.8556 1121.83L90.8359 1098.75ZM130.11 1122.52L90.8359 1099.86L51.5619 1122.52L51.5619 1167.85L90.8359 1190.52L130.11 1167.85L130.11 1122.52Z" fill="white"/>
<path d="M90.8362 1328.19L131.056 1351.4L131.056 1397.84L130.817 1397.97L90.8362 1421.05L50.616 1397.84L50.616 1351.4L50.8558 1351.27L90.8362 1328.19ZM130.11 1351.96L90.8362 1329.29L51.5622 1351.96L51.5622 1397.29L90.8362 1419.95L130.11 1397.29L130.11 1351.96Z" fill="white"/>
<path d="M130.576 1121.7L130.816 1121.83L170.797 1144.91L170.797 1191.35L170.557 1191.48L130.576 1214.56L90.3561 1191.35L90.3561 1144.91L90.5961 1144.78L130.576 1121.7ZM169.85 1145.47L130.576 1122.8L91.3024 1145.47L91.3024 1190.8L130.576 1213.46L169.85 1190.8L169.85 1145.47Z" fill="white"/>
<path d="M130.576 1259.35L170.797 1282.57L170.797 1329L170.557 1329.13L130.576 1352.21L90.3561 1329L90.3561 1282.57L90.5961 1282.43L130.576 1259.35ZM169.85 1283.13L130.576 1260.46L91.3024 1283.13L91.3024 1328.46L130.576 1351.12L169.85 1328.46L169.85 1283.13Z" fill="white"/>
<path d="M249.811 915.208L250.051 915.341L290.032 938.419L290.031 984.855L289.792 984.989L249.811 1008.07L249.571 1007.93L209.591 984.855L209.591 938.419L209.831 938.286L249.811 915.208ZM289.085 938.979L249.811 916.314L210.537 938.979L210.537 984.309L249.811 1006.97L289.085 984.309L289.085 938.979Z" fill="white"/>
<path d="M289.565 846.374L289.805 846.507L329.785 869.585L329.785 916.021L329.546 916.154L289.565 939.232L289.325 939.099L249.345 916.021L249.345 869.585L249.585 869.452L289.565 846.374ZM328.839 870.145L289.565 847.48L250.291 870.145L250.291 915.475L289.565 938.14L328.839 915.475L328.839 870.145Z" fill="white"/>
<path d="M329.305 961.098L329.545 961.232L369.526 984.31L369.526 1030.75L369.286 1030.88L329.305 1053.96L329.066 1053.82L289.085 1030.75L289.085 984.31L289.325 984.176L329.305 961.098ZM368.579 984.869L329.305 962.204L290.031 984.869L290.031 1030.2L329.305 1052.86L368.579 1030.2L368.579 984.869Z" fill="white"/>
<path d="M329.305 1098.75L329.545 1098.89L369.526 1121.96L369.526 1168.4L369.286 1168.53L329.305 1191.61L289.085 1168.4L289.085 1121.96L289.325 1121.83L329.305 1098.75ZM368.579 1122.52L329.305 1099.86L290.031 1122.52L290.031 1167.85L329.305 1190.52L368.579 1167.85L368.579 1122.52Z" fill="white"/>
<path d="M329.305 1190.52L369.526 1213.73L369.526 1260.17L369.286 1260.3L329.305 1283.38L289.085 1260.17L289.085 1213.73L289.325 1213.6L329.305 1190.52ZM368.579 1214.29L329.305 1191.63L290.031 1214.29L290.031 1259.62L329.305 1282.29L368.579 1259.62L368.579 1214.29Z" fill="white"/>
<path d="M369.046 892.262L369.286 892.396L409.266 915.474L409.266 961.91L409.026 962.043L369.046 985.121L368.806 984.988L328.826 961.91L328.826 915.474L329.066 915.34L369.046 892.262ZM408.32 916.033L369.046 893.368L329.772 916.033L329.772 961.363L369.046 984.029L408.32 961.363L408.32 916.033Z" fill="white"/>
<path d="M448.54 846.374L448.78 846.507L488.761 869.585L488.761 916.021L488.521 916.154L448.54 939.232L448.3 939.099L408.32 916.021L408.32 869.585L408.56 869.452L448.54 846.374ZM487.814 870.145L448.54 847.48L409.266 870.145L409.266 915.475L448.54 938.14L487.814 915.475L487.814 870.145Z" fill="white"/>
<path d="M488.281 823.442L488.521 823.575L528.501 846.653L528.501 893.089L528.261 893.223L488.281 916.301L488.041 916.168L448.061 893.089L448.061 846.653L448.3 846.52L488.281 823.442ZM527.555 847.213L488.281 824.548L449.007 847.213L449.007 892.543L488.281 915.208L527.555 892.543L527.555 847.213Z" fill="white"/>
<path opacity="0.5" d="M53.0144 891.663L53.0144 893.875L51.0953 894.994L49.1629 893.875L49.1629 891.663L51.0953 890.557L53.0144 891.663Z" fill="#D0D9DD"/>
<path opacity="0.5" d="M52.9612 937.539L52.9612 939.684L51.0954 940.764L49.2297 939.684L49.2297 937.539L51.0954 936.46L52.9612 937.539Z" fill="#D0D9DD"/>
<path opacity="0.5" d="M52.668 983.55L52.668 985.362L51.0954 986.281L49.5095 985.362L49.5095 983.55L51.0954 982.644L52.668 983.55Z" fill="#D0D9DD"/>
<path opacity="0.5" d="M52.2949 1029.61L52.2949 1031L51.0955 1031.69L49.8828 1031L49.8828 1029.61L51.0955 1028.91L52.2949 1029.61Z" fill="#D0D9DD"/>
<path opacity="0.5" d="M53.2942 1258.25L53.2942 1260.79L51.0953 1262.06L48.883 1260.79L48.883 1258.25L51.0953 1256.97L53.2942 1258.25Z" fill="#D0D9DD"/>
<path opacity="0.5" d="M53.9475 1441.25L53.9475 1444.54L51.0956 1446.19L48.2303 1444.54L48.2303 1441.25L51.0956 1439.6L53.9475 1441.25Z" fill="#D0D9DD"/>
<path opacity="0.5" d="M55.4534 1486.22L55.4534 1491.26L51.0955 1493.77L46.7243 1491.26L46.7243 1486.22L51.0955 1483.69L55.4534 1486.22Z" fill="#D0D9DD"/>
<path opacity="0.5" d="M13.5939 868.506L13.5939 871.104L11.3416 872.396L9.08941 871.104L9.08941 868.506L11.3416 867.2L13.5939 868.506Z" fill="#D0D9DD"/>
<path opacity="0.5" d="M13.7405 914.235L13.7405 916.993L11.3417 918.379L8.94283 916.993L8.94283 914.235L11.3417 912.849L13.7405 914.235Z" fill="#D0D9DD"/>
<path opacity="0.5" d="M14.5267 959.591L14.5267 963.268L11.3417 965.094L8.16987 963.268L8.16987 959.591L11.3417 957.752L14.5267 959.591Z" fill="#D0D9DD"/>
<path opacity="0.5" d="M14.7266 1234.36L14.7266 1238.26L11.3416 1240.21L7.96991 1238.26L7.96991 1234.36L11.3416 1232.4L14.7266 1234.36Z" fill="#D0D9DD"/>
<path opacity="0.5" d="M13.2874 1280.99L13.2874 1283.23L11.3417 1284.36L9.40925 1283.23L9.40926 1280.99L11.3417 1279.87L13.2874 1280.99Z" fill="#D0D9DD"/>
<path opacity="0.5" d="M12.661 1327.16L12.661 1328.7L11.3417 1329.46L10.0223 1328.7L10.0223 1327.16L11.3417 1326.4L12.661 1327.16Z" fill="#D0D9DD"/>
<path opacity="0.5" d="M14.2468 1372.07L14.2468 1375.41L11.3416 1377.09L8.44967 1375.41L8.44967 1372.07L11.3416 1370.4L14.2468 1372.07Z" fill="#D0D9DD"/>
<path opacity="0.5" d="M12.6876 1419.73L12.6876 1421.27L11.3416 1422.05L10.009 1421.27L10.009 1419.73L11.3416 1418.96L12.6876 1419.73Z" fill="#D0D9DD"/>
<path opacity="0.5" d="M14.2069 1464.74L14.2069 1468.04L11.3417 1469.68L8.48971 1468.04L8.48971 1464.74L11.3417 1463.09L14.2069 1464.74Z" fill="#D0D9DD"/>
<path opacity="0.5" d="M12.9141 1510.27L12.9141 1512.09L11.3415 1513L9.76892 1512.09L9.76892 1510.27L11.3415 1509.36L12.9141 1510.27Z" fill="#D0D9DD"/>
<path opacity="0.5" d="M132.095 846.052L132.095 847.798L130.576 848.664L129.07 847.798L129.07 846.052L130.576 845.186L132.095 846.052Z" fill="#D0D9DD"/>
<path opacity="0.5" d="M134.241 890.65L134.241 894.887L130.576 897.006L126.911 894.887L126.911 890.65L130.576 888.545L134.241 890.65Z" fill="#D0D9DD"/>
<path opacity="0.5" d="M131.776 937.925L131.776 939.297L130.576 939.99L129.39 939.297L129.39 937.925L130.576 937.232L131.776 937.925Z" fill="#D0D9DD"/>
<path opacity="0.5" d="M134.481 982.203L134.481 986.707L130.576 988.959L126.685 986.707L126.685 982.203L130.576 979.965L134.481 982.203Z" fill="#D0D9DD"/>
<path opacity="0.5" d="M131.696 1213.04L131.696 1214.32L130.576 1214.96L129.47 1214.32L129.47 1213.04L130.576 1212.39L131.696 1213.04Z" fill="#D0D9DD"/>
<path opacity="0.5" d="M131.496 1258.98L131.496 1260.05L130.576 1260.58L129.657 1260.05L129.657 1258.98L130.576 1258.45L131.496 1258.98Z" fill="#D0D9DD"/>
<path opacity="0.5" d="M133.295 1303.79L133.295 1306.94L130.576 1308.51L127.858 1306.94L127.858 1303.79L130.576 1302.22L133.295 1303.79Z" fill="#D0D9DD"/>
<path opacity="0.5" d="M133.348 1349.6L133.348 1352.8L130.576 1354.4L127.818 1352.8L127.818 1349.6L130.576 1348L133.348 1349.6Z" fill="#D0D9DD"/>
<path opacity="0.5" d="M92.4751 914.675L92.4751 916.554L90.8359 917.5L89.1967 916.554L89.1967 914.675L90.8359 913.729L92.4751 914.675Z" fill="#D0D9DD"/>
<path opacity="0.5" d="M92.2751 1006.41L92.2751 1008.07L90.8359 1008.89L89.3966 1008.07L89.3966 1006.41L90.8359 1005.57L92.2751 1006.41Z" fill="#D0D9DD"/>
<path opacity="0.5" d="M91.7954 1052.5L91.7954 1053.61L90.8359 1054.16L89.8764 1053.61L89.8764 1052.5L90.8359 1051.94L91.7954 1052.5Z" fill="#D0D9DD"/>
<path opacity="0.5" d="M92.9282 1143.47L92.9282 1145.88L90.8359 1147.09L88.7436 1145.88L88.7436 1143.47L90.8359 1142.26L92.9282 1143.47Z" fill="#D0D9DD"/>
<path opacity="0.5" d="M91.9019 1189.88L91.9019 1191.11L90.8357 1191.72L89.7696 1191.11L89.7696 1189.88L90.8357 1189.27L91.9019 1189.88Z" fill="#D0D9DD"/>
<path opacity="0.5" d="M92.8882 1280.93L92.8882 1283.3L90.8358 1284.48L88.7835 1283.3L88.7835 1280.93L90.8358 1279.75L92.8882 1280.93Z" fill="#D0D9DD"/>
<path opacity="0.5" d="M94.2075 1464.45L94.2075 1468.34L90.8358 1470.28L87.4642 1468.34L87.4642 1464.45L90.8358 1462.5L94.2075 1464.45Z" fill="#D0D9DD"/>
<path opacity="0.5" d="M292.417 845.281L292.417 848.572L289.565 850.225L286.713 848.572L286.713 845.281L289.565 843.629L292.417 845.281Z" fill="#D0D9DD"/>
<path opacity="0.5" d="M290.738 892.09L290.738 893.449L289.565 894.129L288.392 893.449L288.392 892.09L289.565 891.424L290.738 892.09Z" fill="#D0D9DD"/>
<path opacity="0.5" d="M292.537 982.736L292.537 986.174L289.565 987.893L286.593 986.174L286.593 982.736L289.565 981.03L292.537 982.736Z" fill="#D0D9DD"/>
<path opacity="0.5" d="M292.617 1028.53L292.617 1032.06L289.565 1033.84L286.5 1032.06L286.5 1028.53L289.565 1026.77L292.617 1028.53Z" fill="#D0D9DD"/>
<path opacity="0.5" d="M254.156 1096.79L254.156 1101.8L249.811 1104.31L245.48 1101.8L245.48 1096.79L249.811 1094.29L254.156 1096.79Z" fill="#D0D9DD"/>
<path opacity="0.5" d="M214.415 1119.49L214.415 1124.5L210.071 1127L205.74 1124.5L205.74 1119.49L210.071 1116.98L214.415 1119.49Z" fill="#D0D9DD"/>
<path opacity="0.5" d="M290.991 1212.85L290.991 1214.5L289.565 1215.33L288.125 1214.5L288.125 1212.85L289.565 1212.01L290.991 1212.85Z" fill="#D0D9DD"/>
<path opacity="0.5" d="M173.902 913.543L173.902 917.687L170.33 919.752L166.745 917.687L166.745 913.543L170.33 911.477L173.902 913.543Z" fill="#D0D9DD"/>
<path opacity="0.5" d="M171.929 960.498L171.929 962.35L170.33 963.27L168.731 962.35L168.731 960.498L170.33 959.579L171.929 960.498Z" fill="#D0D9DD"/>
<path opacity="0.5" d="M171.969 1006.3L171.969 1008.19L170.33 1009.15L168.678 1008.19L168.678 1006.3L170.33 1005.34L171.969 1006.3Z" fill="#D0D9DD"/>
<path opacity="0.5" d="M172.049 1052.06L172.049 1054.05L170.33 1055.04L168.611 1054.05L168.611 1052.06L170.33 1051.06L172.049 1052.06Z" fill="#D0D9DD"/>
<path opacity="0.5" d="M172.036 1097.87L172.036 1099.85L170.33 1100.83L168.611 1099.85L168.611 1097.87L170.33 1096.89L172.036 1097.87Z" fill="#D0D9DD"/>
<path opacity="0.5" d="M172.636 1143.35L172.636 1146L170.33 1147.33L168.025 1146L168.025 1143.35L170.33 1142.02L172.636 1143.35Z" fill="#D0D9DD"/>
<path opacity="0.5" d="M331.318 822.829L331.318 825.148L329.305 826.32L327.293 825.148L327.293 822.829L329.305 821.657L331.318 822.829Z" fill="#D0D9DD"/>
<path opacity="0.5" d="M371.511 845.508L371.511 848.346L369.046 849.771L366.594 848.346L366.594 845.508L369.046 844.095L371.511 845.508Z" fill="#D0D9DD"/>
<path opacity="0.5" d="M371.445 1074.75L371.445 1077.53L369.046 1078.91L366.66 1077.53L366.66 1074.75L369.046 1073.38L371.445 1074.75Z" fill="#D0D9DD"/>
<path opacity="0.5" d="M371.191 1120.75L371.191 1123.22L369.046 1124.46L366.913 1123.22L366.914 1120.75L369.046 1119.53L371.191 1120.75Z" fill="#D0D9DD"/>
<path opacity="0.5" d="M373.11 1211.33L373.11 1216.01L369.046 1218.35L364.994 1216.01L364.994 1211.33L369.046 1209L373.11 1211.33Z" fill="#D0D9DD"/>
<path opacity="0.5" d="M330.425 869.158L330.425 870.45L329.305 871.09L328.186 870.45L328.186 869.158L329.305 868.505L330.425 869.158Z" fill="#D0D9DD"/>
<path opacity="0.5" d="M331.411 1051.84L331.411 1054.26L329.305 1055.47L327.2 1054.26L327.2 1051.84L329.305 1050.62L331.411 1051.84Z" fill="#D0D9DD"/>
<path opacity="0.5" d="M330.305 1144.1L330.305 1145.26L329.305 1145.83L328.306 1145.26L328.306 1144.1L329.305 1143.52L330.305 1144.1Z" fill="#D0D9DD"/>
<path opacity="0.5" d="M332.184 1234.64L332.184 1237.97L329.305 1239.63L326.427 1237.97L326.427 1234.64L329.305 1232.97L332.184 1234.64Z" fill="#D0D9DD"/>
<path opacity="0.5" d="M450.193 891.81L450.193 893.728L448.54 894.688L446.888 893.728L446.888 891.81L448.54 890.863L450.193 891.81Z" fill="#D0D9DD"/>
<path opacity="0.5" d="M451.259 937.046L451.259 940.191L448.54 941.75L445.821 940.191L445.821 937.046L448.54 935.474L451.259 937.046Z" fill="#D0D9DD"/>
<path opacity="0.5" d="M451.499 982.751L451.499 986.162L448.54 987.867L445.595 986.162L445.595 982.751L448.54 981.045L451.499 982.751Z" fill="#D0D9DD"/>
<path opacity="0.5" d="M412.251 867.812L412.251 871.796L408.8 873.781L405.348 871.796L405.348 867.812L408.8 865.813L412.251 867.812Z" fill="#D0D9DD"/>
<path opacity="0.5" d="M411.625 913.981L411.625 917.246L408.8 918.885L405.961 917.246L405.961 913.981L408.8 912.342L411.625 913.981Z" fill="#D0D9DD"/>
<path opacity="0.5" d="M410.892 1097.66L410.892 1100.07L408.8 1101.29L406.707 1100.07L406.707 1097.66L408.8 1096.45L410.892 1097.66Z" fill="#D0D9DD"/>
<path opacity="0.5" d="M490.293 822.829L490.293 825.147L488.294 826.307L486.282 825.147L486.282 822.829L488.294 821.67L490.293 822.829Z" fill="#D0D9DD"/>
<path opacity="0.5" d="M531.659 936.513L531.659 940.711L528.034 942.803L524.409 940.711L524.409 936.513L528.034 934.422L531.659 936.513Z" fill="#D0D9DD"/>
<path opacity="0.5" d="M492.345 913.275L492.345 917.952L488.294 920.297L484.229 917.952L484.229 913.275L488.294 910.93L492.345 913.275Z" fill="#D0D9DD"/>
<path opacity="0.5" d="M213.989 1303.52L213.989 1308.04L210.07 1310.31L206.152 1308.04L206.152 1303.52L210.07 1301.27L213.989 1303.52Z" fill="#D0D9DD"/>
<path d="M292.417 1074.5L292.417 1077.79L289.565 1079.45L286.713 1077.79L286.713 1074.5L289.565 1072.85L292.417 1074.5Z" fill="white"/>
<path d="M212.923 1028.61L212.923 1031.9L210.071 1033.56L207.219 1031.9L207.219 1028.61L210.071 1026.96L212.923 1028.61Z" fill="white"/>
<path d="M293.896 1165.32L293.896 1170.33L289.565 1172.84L285.22 1170.33L285.22 1165.32L289.565 1162.82L293.896 1165.32Z" fill="white"/>
<path d="M291.857 1258.2L291.857 1260.85L289.565 1262.17L287.273 1260.85L287.273 1258.2L289.565 1256.86L291.857 1258.2Z" fill="white"/>
<path d="M370.725 1029.33L370.725 1031.26L369.046 1032.24L367.38 1031.26L367.38 1029.33L369.046 1028.37L370.725 1029.33Z" fill="white"/>
<path d="M12.5676 823.282L12.5676 824.694L11.3416 825.4L10.1155 824.694L10.1155 823.282L11.3416 822.576L12.5676 823.282Z" fill="white"/>
<path d="M55.7598 1073.45L55.7598 1078.83L51.0954 1081.53L46.431 1078.83L46.431 1073.45L51.0954 1070.76L55.7598 1073.45Z" fill="white"/>
<path d="M53.281 1120.73L53.281 1123.24L51.0954 1124.51L48.9098 1123.24L48.9098 1120.73L51.0954 1119.46L53.281 1120.73Z" fill="white"/>
<path d="M52.4812 1167.03L52.4812 1168.64L51.0952 1169.44L49.6959 1168.64L49.6959 1167.03L51.0952 1166.21L52.4812 1167.03Z" fill="white"/>
<path d="M53.5342 1212.26L53.5342 1215.08L51.0954 1216.49L48.6566 1215.08L48.6566 1212.26L51.0954 1210.85L53.5342 1212.26Z" fill="white"/>
<path d="M52.4546 1304.56L52.4546 1306.15L51.0953 1306.95L49.7226 1306.15L49.7226 1304.56L51.0953 1303.78L52.4546 1304.56Z" fill="white"/>
<path d="M53.5342 1349.8L53.5342 1352.61L51.0954 1354.03L48.6432 1352.61L48.6432 1349.8L51.0954 1348.39L53.5342 1349.8Z" fill="white"/>
<path d="M53.3076 1395.77L53.3076 1398.33L51.0954 1399.61L48.8698 1398.33L48.8698 1395.77L51.0954 1394.48L53.3076 1395.77Z" fill="white"/>
<path d="M13.2473 1006.15L13.2473 1008.33L11.3416 1009.43L9.44917 1008.33L9.44917 1006.15L11.3416 1005.06L13.2473 1006.15Z" fill="white"/>
<path d="M13.9403 1051.56L13.9403 1054.56L11.3416 1056.05L8.74287 1054.56L8.74287 1051.56L11.3416 1050.05L13.9403 1051.56Z" fill="white"/>
<path d="M13.4739 1097.63L13.4739 1100.1L11.3416 1101.32L9.20933 1100.1L9.20933 1097.63L11.3416 1096.41L13.4739 1097.63Z" fill="white"/>
<path d="M12.9275 1143.76L12.9275 1145.59L11.3416 1146.51L9.75571 1145.59L9.75571 1143.76L11.3416 1142.84L12.9275 1143.76Z" fill="white"/>
<path d="M93.8877 822.229L93.8877 825.747L90.8359 827.506L87.784 825.747L87.784 822.229L90.8359 820.471L93.8877 822.229Z" fill="white"/>
<path d="M133.961 1028.35L133.961 1032.25L130.576 1034.2L127.205 1032.25L127.205 1028.35L130.576 1026.4L133.961 1028.35Z" fill="white"/>
<path d="M131.789 1075.45L131.789 1076.83L130.576 1077.53L129.377 1076.83L129.377 1075.45L130.576 1074.76L131.789 1075.45Z" fill="white"/>
<path d="M133.642 1120.22L133.642 1123.75L130.576 1125.52L127.525 1123.75L127.525 1120.22L130.576 1118.46L133.642 1120.22Z" fill="white"/>
<path d="M132.189 1396.12L132.189 1397.97L130.576 1398.9L128.977 1397.97L128.977 1396.12L130.576 1395.2L132.189 1396.12Z" fill="white"/>
<path d="M133.948 1440.94L133.948 1444.83L130.576 1446.78L127.218 1444.83L127.218 1440.94L130.576 1439.01L133.948 1440.94Z" fill="white"/>
<path d="M92.1152 869.065L92.1152 870.544L90.8359 871.277L89.5565 870.544L89.5565 869.065L90.8359 868.319L92.1152 869.065Z" fill="white"/>
<path d="M93.1814 960.071L93.1814 962.776L90.8359 964.135L88.4903 962.776L88.4903 960.071L90.8359 958.712L93.1814 960.071Z" fill="white"/>
<path d="M91.9419 1098.22L91.9419 1099.51L90.8358 1100.15L89.7296 1099.51L89.7296 1098.22L90.8358 1097.58L91.9419 1098.22Z" fill="white"/>
<path d="M93.7544 1234.62L93.7544 1237.98L90.8358 1239.67L87.9173 1237.98L87.9173 1234.62L90.8358 1232.93L93.7544 1234.62Z" fill="white"/>
<path d="M93.2881 1326.51L93.2881 1329.35L90.836 1330.77L88.3838 1329.35L88.3838 1326.51L90.836 1325.1L93.2881 1326.51Z" fill="white"/>
<path d="M92.1018 1373.01L92.1018 1374.48L90.8358 1375.21L89.5697 1374.48L89.5697 1373.01L90.8358 1372.28L92.1018 1373.01Z" fill="white"/>
<path d="M92.2351 1419.7L92.2351 1421.31L90.8358 1422.11L89.4365 1421.31L89.4365 1419.7L90.8358 1418.89L92.2351 1419.7Z" fill="white"/>
<path d="M252.716 822.309L252.716 825.653L249.811 827.332L246.919 825.653L246.919 822.309L249.811 820.643L252.716 822.309Z" fill="white"/>
<path d="M212.962 845.254L212.962 848.598L210.071 850.277L207.179 848.598L207.179 845.254L210.071 843.588L212.962 845.254Z" fill="white"/>
<path d="M172.662 868.451L172.662 871.143L170.33 872.502L167.985 871.143L167.985 868.451L170.33 867.106L172.662 868.451Z" fill="white"/>
<path d="M172.396 1189.29L172.396 1191.68L170.33 1192.88L168.264 1191.68L168.264 1189.29L170.33 1188.11L172.396 1189.29Z" fill="white"/>
<path d="M171.703 1235.52L171.703 1237.1L170.33 1237.89L168.957 1237.1L168.957 1235.52L170.33 1234.72L171.703 1235.52Z" fill="white"/>
<path d="M171.863 1281.23L171.863 1283.01L170.33 1283.9L168.784 1283.01L168.784 1281.23L170.33 1280.34L171.863 1281.23Z" fill="white"/>
<path d="M172.982 1326.39L172.982 1329.47L170.33 1331L167.665 1329.47L167.665 1326.39L170.33 1324.86L172.982 1326.39Z" fill="white"/>
<path d="M172.649 1372.41L172.649 1375.08L170.33 1376.42L168.011 1375.08L168.011 1372.41L170.33 1371.07L172.649 1372.41Z" fill="white"/>
<path d="M370.725 891.81L370.725 893.742L369.046 894.701L367.38 893.742L367.38 891.81L369.046 890.837L370.725 891.81Z" fill="white"/>
<path d="M371.245 937.353L371.245 939.871L369.046 941.137L366.86 939.871L366.86 937.353L369.046 936.087L371.245 937.353Z" fill="white"/>
<path d="M371.951 1166.16L371.951 1169.51L369.046 1171.17L366.154 1169.51L366.154 1166.16L369.046 1164.48L371.951 1166.16Z" fill="white"/>
<path d="M333.33 913.289L333.33 917.939L329.305 920.258L325.281 917.939L325.281 913.289L329.305 910.971L333.33 913.289Z" fill="white"/>
<path d="M332.304 959.698L332.304 963.149L329.305 964.881L326.32 963.149L326.32 959.698L329.305 957.965L332.304 959.698Z" fill="white"/>
<path d="M332.557 1005.36L332.557 1009.12L329.305 1010.98L326.067 1009.12L326.067 1005.36L329.305 1003.5L332.557 1005.36Z" fill="white"/>
<path d="M331.264 1189.36L331.264 1191.63L329.305 1192.76L327.346 1191.63L327.346 1189.36L329.305 1188.23L331.264 1189.36Z" fill="white"/>
<path d="M331.531 1280.83L331.531 1283.4L329.305 1284.7L327.08 1283.4L327.08 1280.83L329.305 1279.54L331.531 1280.83Z" fill="white"/>
<path d="M451.392 845.281L451.392 848.572L448.54 850.225L445.688 848.572L445.688 845.281L448.54 843.629L451.392 845.281Z" fill="white"/>
<path d="M451.272 1074.57L451.272 1077.71L448.54 1079.3L445.808 1077.71L445.808 1074.57L448.54 1073L451.272 1074.57Z" fill="white"/>
<path d="M412.118 959.511L412.118 963.348L408.8 965.254L405.481 963.348L405.481 959.511L408.8 957.592L412.118 959.511Z" fill="white"/>
<path d="M410.345 1006.35L410.345 1008.13L408.8 1009.03L407.24 1008.13L407.24 1006.35L408.8 1005.45L410.345 1006.35Z" fill="white"/>
<path d="M530.167 891.543L530.167 894.009L528.034 895.234L525.902 894.009L525.902 891.543L528.034 890.304L530.167 891.543Z" fill="white"/>
</g>
<defs>
<filter id="filter0_f_596_5660" x="-709" y="0" width="1785.33" height="1785.33" filterUnits="userSpaceOnUse" color-interpolation-filters="sRGB">
<feFlood flood-opacity="0" result="BackgroundImageFix"/>
<feBlend mode="normal" in="SourceGraphic" in2="BackgroundImageFix" result="shape"/>
<feGaussianBlur stdDeviation="272" result="effect1_foregroundBlur_596_5660"/>
</filter>
<clipPath id="clip0_596_5660">
<rect width="596.973" height="712.33" fill="white" transform="translate(568.095 1513) rotate(-180)"/>
</clipPath>
</defs>
</svg>
